STARTFONT 2.1
FONT -Misc-Liberation Sans & Manu-Medium-R-Normal--10-100-72-72-P-51-ISO10646-1
SIZE 10 72 72
FONTBOUNDINGBOX 11 14 -1 -3
STARTPROPERTIES 14
FAMILY_NAME "Liberation Sans & Manu"
WEIGHT_NAME "Medium"
SLANT "R"
SETWIDTH_NAME "Normal"
PIXEL_SIZE 10
POINT_SIZE 100
RESOLUTION_X 72
RESOLUTION_Y 72
SPACING "P"
AVERAGE_WIDTH 51
CHARSET_REGISTRY "ISO10646"
CHARSET_ENCODING "1"
FONT_ASCENT 9
FONT_DESCENT 2
ENDPROPERTIES
CHARS 7258
STARTCHAR 0020
ENCODING 32
SWIDTH 300 0
DWIDTH 3 0
BBX 0 0 0 0
BITMAP
ENDCHAR
STARTCHAR 0021
ENCODING 33
SWIDTH 200 0
DWIDTH 2 0
BBX 1 7 0 0
BITMAP
80
80
80
80
80
00
80
ENDCHAR
STARTCHAR 0022
ENCODING 34
SWIDTH 400 0
DWIDTH 4 0
BBX 3 2 0 5
BITMAP
A0
A0
ENDCHAR
STARTCHAR 0023
ENCODING 35
SWIDTH 600 0
DWIDTH 6 0
BBX 5 7 0 0
BITMAP
50
50
F8
50
F8
50
50
ENDCHAR
STARTCHAR 0024
ENCODING 36
SWIDTH 600 0
DWIDTH 6 0
BBX 5 9 0 -1
BITMAP
20
78
A0
A0
70
28
28
F0
20
ENDCHAR
STARTCHAR 0025
ENCODING 37
SWIDTH 800 0
DWIDTH 8 0
BBX 7 7 0 0
BITMAP
44
A8
A8
54
2A
2A
44
ENDCHAR
STARTCHAR 0026
ENCODING 38
SWIDTH 700 0
DWIDTH 7 0
BBX 6 7 0 0
BITMAP
30
48
50
64
A4
98
64
ENDCHAR
STARTCHAR 0027
ENCODING 39
SWIDTH 200 0
DWIDTH 2 0
BBX 1 2 0 5
BITMAP
80
80
ENDCHAR
STARTCHAR 0028
ENCODING 40
SWIDTH 300 0
DWIDTH 3 0
BBX 2 9 0 -2
BITMAP
40
40
80
80
80
80
80
40
40
ENDCHAR
STARTCHAR 0029
ENCODING 41
SWIDTH 300 0
DWIDTH 3 0
BBX 2 9 0 -2
BITMAP
80
80
40
40
40
40
40
80
80
ENDCHAR
STARTCHAR 002A
ENCODING 42
SWIDTH 600 0
DWIDTH 6 0
BBX 5 5 0 2
BITMAP
20
A8
70
A8
20
ENDCHAR
STARTCHAR 002B
ENCODING 43
SWIDTH 600 0
DWIDTH 6 0
BBX 5 5 0 1
BITMAP
20
20
F8
20
20
ENDCHAR
STARTCHAR 002C
ENCODING 44
SWIDTH 200 0
DWIDTH 2 0
BBX 1 2 0 -1
BITMAP
80
80
ENDCHAR
STARTCHAR 002D
ENCODING 45
SWIDTH 400 0
DWIDTH 4 0
BBX 3 1 0 2
BITMAP
E0
ENDCHAR
STARTCHAR 002E
ENCODING 46
SWIDTH 200 0
DWIDTH 2 0
BBX 1 1 0 0
BITMAP
80
ENDCHAR
STARTCHAR 002F
ENCODING 47
SWIDTH 400 0
DWIDTH 4 0
BBX 3 7 0 0
BITMAP
20
20
40
40
40
80
80
ENDCHAR
STARTCHAR 0030
ENCODING 48
SWIDTH 600 0
DWIDTH 6 0
BBX 5 7 0 0
BITMAP
70
88
88
88
88
88
70
ENDCHAR
STARTCHAR 0031
ENCODING 49
SWIDTH 600 0
DWIDTH 6 0
BBX 5 7 0 0
BITMAP
60
A0
20
20
20
20
F8
ENDCHAR
STARTCHAR 0032
ENCODING 50
SWIDTH 600 0
DWIDTH 6 0
BBX 5 7 0 0
BITMAP
F0
08
08
30
40
80
F8
ENDCHAR
STARTCHAR 0033
ENCODING 51
SWIDTH 600 0
DWIDTH 6 0
BBX 5 7 0 0
BITMAP
F0
08
08
30
08
08
F0
ENDCHAR
STARTCHAR 0034
ENCODING 52
SWIDTH 600 0
DWIDTH 6 0
BBX 5 7 0 0
BITMAP
10
30
50
50
90
F8
10
ENDCHAR
STARTCHAR 0035
ENCODING 53
SWIDTH 600 0
DWIDTH 6 0
BBX 5 7 0 0
BITMAP
F8
80
F0
88
08
08
F0
ENDCHAR
STARTCHAR 0036
ENCODING 54
SWIDTH 600 0
DWIDTH 6 0
BBX 5 7 0 0
BITMAP
78
80
F0
88
88
88
70
ENDCHAR
STARTCHAR 0037
ENCODING 55
SWIDTH 600 0
DWIDTH 6 0
BBX 5 7 0 0
BITMAP
F8
08
10
20
20
40
40
ENDCHAR
STARTCHAR 0038
ENCODING 56
SWIDTH 600 0
DWIDTH 6 0
BBX 5 7 0 0
BITMAP
70
88
88
70
88
88
70
ENDCHAR
STARTCHAR 0039
ENCODING 57
SWIDTH 600 0
DWIDTH 6 0
BBX 5 7 0 0
BITMAP
70
88
88
88
78
08
F0
ENDCHAR
STARTCHAR 003A
ENCODING 58
SWIDTH 200 0
DWIDTH 2 0
BBX 1 5 0 0
BITMAP
80
00
00
00
80
ENDCHAR
STARTCHAR 003B
ENCODING 59
SWIDTH 200 0
DWIDTH 2 0
BBX 1 6 0 -1
BITMAP
80
00
00
00
80
80
ENDCHAR
STARTCHAR 003C
ENCODING 60
SWIDTH 600 0
DWIDTH 6 0
BBX 5 5 0 1
BITMAP
18
60
80
60
18
ENDCHAR
STARTCHAR 003D
ENCODING 61
SWIDTH 600 0
DWIDTH 6 0
BBX 5 3 0 2
BITMAP
F8
00
F8
ENDCHAR
STARTCHAR 003E
ENCODING 62
SWIDTH 600 0
DWIDTH 6 0
BBX 5 5 0 1
BITMAP
C0
30
08
30
C0
ENDCHAR
STARTCHAR 003F
ENCODING 63
SWIDTH 600 0
DWIDTH 6 0
BBX 5 7 0 0
BITMAP
70
88
08
10
20
00
20
ENDCHAR
STARTCHAR 0040
ENCODING 64
SWIDTH 1000 0
DWIDTH 10 0
BBX 9 8 0 -1
BITMAP
3E00
4100
9A80
A480
A480
9B00
4000
3C00
ENDCHAR
STARTCHAR 0041
ENCODING 65
SWIDTH 800 0
DWIDTH 8 0
BBX 7 7 0 0
BITMAP
10
28
28
44
7C
82
82
ENDCHAR
STARTCHAR 0042
ENCODING 66
SWIDTH 600 0
DWIDTH 6 0
BBX 5 7 0 0
BITMAP
F0
88
88
F0
88
88
F0
ENDCHAR
STARTCHAR 0043
ENCODING 67
SWIDTH 600 0
DWIDTH 6 0
BBX 5 7 0 0
BITMAP
70
88
80
80
80
88
70
ENDCHAR
STARTCHAR 0044
ENCODING 68
SWIDTH 600 0
DWIDTH 6 0
BBX 5 7 0 0
BITMAP
F0
88
88
88
88
88
F0
ENDCHAR
STARTCHAR 0045
ENCODING 69
SWIDTH 600 0
DWIDTH 6 0
BBX 5 7 0 0
BITMAP
F8
80
80
F8
80
80
F8
ENDCHAR
STARTCHAR 0046
ENCODING 70
SWIDTH 500 0
DWIDTH 5 0
BBX 4 7 0 0
BITMAP
F0
80
80
F0
80
80
80
ENDCHAR
STARTCHAR 0047
ENCODING 71
SWIDTH 700 0
DWIDTH 7 0
BBX 6 7 0 0
BITMAP
78
84
80
9C
84
84
78
ENDCHAR
STARTCHAR 0048
ENCODING 72
SWIDTH 600 0
DWIDTH 6 0
BBX 5 7 0 0
BITMAP
88
88
88
F8
88
88
88
ENDCHAR
STARTCHAR 0049
ENCODING 73
SWIDTH 200 0
DWIDTH 2 0
BBX 1 7 0 0
BITMAP
80
80
80
80
80
80
80
ENDCHAR
STARTCHAR 004A
ENCODING 74
SWIDTH 500 0
DWIDTH 5 0
BBX 4 7 0 0
BITMAP
30
10
10
10
10
90
60
ENDCHAR
STARTCHAR 004B
ENCODING 75
SWIDTH 700 0
DWIDTH 7 0
BBX 6 7 0 0
BITMAP
88
90
A0
E0
90
88
84
ENDCHAR
STARTCHAR 004C
ENCODING 76
SWIDTH 500 0
DWIDTH 5 0
BBX 4 7 0 0
BITMAP
80
80
80
80
80
80
F0
ENDCHAR
STARTCHAR 004D
ENCODING 77
SWIDTH 800 0
DWIDTH 8 0
BBX 7 7 0 0
BITMAP
82
C6
AA
AA
92
92
82
ENDCHAR
STARTCHAR 004E
ENCODING 78
SWIDTH 600 0
DWIDTH 6 0
BBX 5 7 0 0
BITMAP
88
C8
A8
A8
98
88
88
ENDCHAR
STARTCHAR 004F
ENCODING 79
SWIDTH 700 0
DWIDTH 7 0
BBX 6 7 0 0
BITMAP
78
84
84
84
84
84
78
ENDCHAR
STARTCHAR 0050
ENCODING 80
SWIDTH 600 0
DWIDTH 6 0
BBX 5 7 0 0
BITMAP
F0
88
88
F0
80
80
80
ENDCHAR
STARTCHAR 0051
ENCODING 81
SWIDTH 700 0
DWIDTH 7 0
BBX 6 9 0 -2
BITMAP
78
84
84
84
84
84
78
10
08
ENDCHAR
STARTCHAR 0052
ENCODING 82
SWIDTH 600 0
DWIDTH 6 0
BBX 5 7 0 0
BITMAP
F0
88
88
F0
A0
90
88
ENDCHAR
STARTCHAR 0053
ENCODING 83
SWIDTH 600 0
DWIDTH 6 0
BBX 5 7 0 0
BITMAP
70
88
80
70
08
88
70
ENDCHAR
STARTCHAR 0054
ENCODING 84
SWIDTH 600 0
DWIDTH 6 0
BBX 5 7 0 0
BITMAP
F8
20
20
20
20
20
20
ENDCHAR
STARTCHAR 0055
ENCODING 85
SWIDTH 600 0
DWIDTH 6 0
BBX 5 7 0 0
BITMAP
88
88
88
88
88
88
70
ENDCHAR
STARTCHAR 0056
ENCODING 86
SWIDTH 800 0
DWIDTH 8 0
BBX 7 7 0 0
BITMAP
82
44
44
44
28
28
10
ENDCHAR
STARTCHAR 0057
ENCODING 87
SWIDTH 1000 0
DWIDTH 10 0
BBX 9 7 0 0
BITMAP
8880
8880
5500
5500
5500
2200
2200
ENDCHAR
STARTCHAR 0058
ENCODING 88
SWIDTH 600 0
DWIDTH 6 0
BBX 5 7 0 0
BITMAP
88
50
50
20
50
50
88
ENDCHAR
STARTCHAR 0059
ENCODING 89
SWIDTH 800 0
DWIDTH 8 0
BBX 7 7 0 0
BITMAP
82
44
28
10
10
10
10
ENDCHAR
STARTCHAR 005A
ENCODING 90
SWIDTH 500 0
DWIDTH 5 0
BBX 4 7 0 0
BITMAP
F0
10
20
40
40
80
F0
ENDCHAR
STARTCHAR 005B
ENCODING 91
SWIDTH 300 0
DWIDTH 3 0
BBX 2 9 0 -2
BITMAP
C0
80
80
80
80
80
80
80
C0
ENDCHAR
STARTCHAR 005C
ENCODING 92
SWIDTH 400 0
DWIDTH 4 0
BBX 3 7 0 0
BITMAP
80
80
40
40
40
20
20
ENDCHAR
STARTCHAR 005D
ENCODING 93
SWIDTH 300 0
DWIDTH 3 0
BBX 2 9 0 -2
BITMAP
C0
40
40
40
40
40
40
40
C0
ENDCHAR
STARTCHAR 005E
ENCODING 94
SWIDTH 400 0
DWIDTH 4 0
BBX 3 4 0 3
BITMAP
40
40
A0
A0
ENDCHAR
STARTCHAR 005F
ENCODING 95
SWIDTH 600 0
DWIDTH 6 0
BBX 6 1 0 -2
BITMAP
FC
ENDCHAR
STARTCHAR 0060
ENCODING 96
SWIDTH 300 0
DWIDTH 3 0
BBX 2 2 0 6
BITMAP
80
40
ENDCHAR
STARTCHAR 0061
ENCODING 97
SWIDTH 500 0
DWIDTH 5 0
BBX 4 5 0 0
BITMAP
E0
10
70
90
70
ENDCHAR
STARTCHAR 0062
ENCODING 98
SWIDTH 500 0
DWIDTH 5 0
BBX 4 7 0 0
BITMAP
80
80
E0
90
90
90
E0
ENDCHAR
STARTCHAR 0063
ENCODING 99
SWIDTH 500 0
DWIDTH 5 0
BBX 4 5 0 0
BITMAP
70
80
80
80
70
ENDCHAR
STARTCHAR 0064
ENCODING 100
SWIDTH 500 0
DWIDTH 5 0
BBX 4 7 0 0
BITMAP
10
10
70
90
90
90
70
ENDCHAR
STARTCHAR 0065
ENCODING 101
SWIDTH 500 0
DWIDTH 5 0
BBX 4 5 0 0
BITMAP
60
90
F0
80
70
ENDCHAR
STARTCHAR 0066
ENCODING 102
SWIDTH 300 0
DWIDTH 3 0
BBX 2 7 0 0
BITMAP
40
80
C0
80
80
80
80
ENDCHAR
STARTCHAR 0067
ENCODING 103
SWIDTH 500 0
DWIDTH 5 0
BBX 4 7 0 -2
BITMAP
70
90
90
90
70
10
E0
ENDCHAR
STARTCHAR 0068
ENCODING 104
SWIDTH 500 0
DWIDTH 5 0
BBX 4 7 0 0
BITMAP
80
80
E0
90
90
90
90
ENDCHAR
STARTCHAR 0069
ENCODING 105
SWIDTH 200 0
DWIDTH 2 0
BBX 1 7 0 0
BITMAP
80
00
80
80
80
80
80
ENDCHAR
STARTCHAR 006A
ENCODING 106
SWIDTH 200 0
DWIDTH 2 0
BBX 2 9 -1 -2
BITMAP
40
00
40
40
40
40
40
40
80
ENDCHAR
STARTCHAR 006B
ENCODING 107
SWIDTH 500 0
DWIDTH 5 0
BBX 4 7 0 0
BITMAP
80
80
90
A0
C0
A0
90
ENDCHAR
STARTCHAR 006C
ENCODING 108
SWIDTH 200 0
DWIDTH 2 0
BBX 1 7 0 0
BITMAP
80
80
80
80
80
80
80
ENDCHAR
STARTCHAR 006D
ENCODING 109
SWIDTH 800 0
DWIDTH 8 0
BBX 7 5 0 0
BITMAP
EC
92
92
92
92
ENDCHAR
STARTCHAR 006E
ENCODING 110
SWIDTH 500 0
DWIDTH 5 0
BBX 4 5 0 0
BITMAP
E0
90
90
90
90
ENDCHAR
STARTCHAR 006F
ENCODING 111
SWIDTH 500 0
DWIDTH 5 0
BBX 4 5 0 0
BITMAP
60
90
90
90
60
ENDCHAR
STARTCHAR 0070
ENCODING 112
SWIDTH 500 0
DWIDTH 5 0
BBX 4 7 0 -2
BITMAP
E0
90
90
90
E0
80
80
ENDCHAR
STARTCHAR 0071
ENCODING 113
SWIDTH 500 0
DWIDTH 5 0
BBX 4 7 0 -2
BITMAP
70
90
90
90
70
10
10
ENDCHAR
STARTCHAR 0072
ENCODING 114
SWIDTH 400 0
DWIDTH 4 0
BBX 3 5 0 0
BITMAP
A0
C0
80
80
80
ENDCHAR
STARTCHAR 0073
ENCODING 115
SWIDTH 400 0
DWIDTH 4 0
BBX 3 5 0 0
BITMAP
60
80
40
20
C0
ENDCHAR
STARTCHAR 0074
ENCODING 116
SWIDTH 300 0
DWIDTH 3 0
BBX 2 6 0 0
BITMAP
80
C0
80
80
80
40
ENDCHAR
STARTCHAR 0075
ENCODING 117
SWIDTH 500 0
DWIDTH 5 0
BBX 4 5 0 0
BITMAP
90
90
90
90
70
ENDCHAR
STARTCHAR 0076
ENCODING 118
SWIDTH 600 0
DWIDTH 6 0
BBX 5 5 0 0
BITMAP
88
88
50
50
20
ENDCHAR
STARTCHAR 0077
ENCODING 119
SWIDTH 600 0
DWIDTH 6 0
BBX 5 5 0 0
BITMAP
A8
A8
A8
50
50
ENDCHAR
STARTCHAR 0078
ENCODING 120
SWIDTH 400 0
DWIDTH 4 0
BBX 3 5 0 0
BITMAP
A0
A0
40
A0
A0
ENDCHAR
STARTCHAR 0079
ENCODING 121
SWIDTH 600 0
DWIDTH 6 0
BBX 5 7 0 -2
BITMAP
88
88
50
50
20
20
C0
ENDCHAR
STARTCHAR 007A
ENCODING 122
SWIDTH 400 0
DWIDTH 4 0
BBX 3 5 0 0
BITMAP
E0
20
40
80
E0
ENDCHAR
STARTCHAR 007B
ENCODING 123
SWIDTH 400 0
DWIDTH 4 0
BBX 3 9 0 -2
BITMAP
20
40
40
40
80
40
40
40
20
ENDCHAR
STARTCHAR 007C
ENCODING 124
SWIDTH 200 0
DWIDTH 2 0
BBX 1 9 0 -2
BITMAP
80
80
80
80
80
80
80
80
80
ENDCHAR
STARTCHAR 007D
ENCODING 125
SWIDTH 400 0
DWIDTH 4 0
BBX 3 9 0 -2
BITMAP
80
40
40
40
20
40
40
40
80
ENDCHAR
STARTCHAR 007E
ENCODING 126
SWIDTH 600 0
DWIDTH 6 0
BBX 5 2 0 3
BITMAP
68
90
ENDCHAR
STARTCHAR 00A0
ENCODING 160
SWIDTH 300 0
DWIDTH 3 0
BBX 0 0 0 0
BITMAP
ENDCHAR
STARTCHAR 00A1
ENCODING 161
SWIDTH 200 0
DWIDTH 2 0
BBX 1 7 0 -2
BITMAP
80
00
80
80
80
80
80
ENDCHAR
STARTCHAR 00A2
ENCODING 162
SWIDTH 600 0
DWIDTH 6 0
BBX 5 7 0 0
BITMAP
20
78
80
80
80
78
20
ENDCHAR
STARTCHAR 00A3
ENCODING 163
SWIDTH 600 0
DWIDTH 6 0
BBX 5 7 0 0
BITMAP
38
40
40
F0
40
40
F8
ENDCHAR
STARTCHAR 00A4
ENCODING 164
SWIDTH 500 0
DWIDTH 5 0
BBX 4 4 0 1
BITMAP
F0
90
90
F0
ENDCHAR
STARTCHAR 00A5
ENCODING 165
SWIDTH 600 0
DWIDTH 6 0
BBX 5 7 0 0
BITMAP
88
88
50
F8
20
F8
20
ENDCHAR
STARTCHAR 00A6
ENCODING 166
SWIDTH 200 0
DWIDTH 2 0
BBX 1 9 0 -2
BITMAP
80
80
80
80
00
80
80
80
80
ENDCHAR
STARTCHAR 00A7
ENCODING 167
SWIDTH 500 0
DWIDTH 5 0
BBX 4 8 0 -1
BITMAP
70
80
60
90
90
60
10
E0
ENDCHAR
STARTCHAR 00A8
ENCODING 168
SWIDTH 400 0
DWIDTH 4 0
BBX 3 1 0 6
BITMAP
A0
ENDCHAR
STARTCHAR 00A9
ENCODING 169
SWIDTH 900 0
DWIDTH 9 0
BBX 8 8 0 -1
BITMAP
3C
42
9D
A1
A1
9D
42
3C
ENDCHAR
STARTCHAR 00AA
ENCODING 170
SWIDTH 600 0
DWIDTH 6 0
BBX 5 5 0 3
BITMAP
E0
10
70
90
68
ENDCHAR
STARTCHAR 00AB
ENCODING 171
SWIDTH 700 0
DWIDTH 7 0
BBX 6 5 0 0
BITMAP
24
48
90
48
24
ENDCHAR
STARTCHAR 00AC
ENCODING 172
SWIDTH 600 0
DWIDTH 6 0
BBX 5 3 0 1
BITMAP
F8
08
08
ENDCHAR
STARTCHAR 00AD
ENCODING 173
SWIDTH 400 0
DWIDTH 4 0
BBX 3 1 0 2
BITMAP
E0
ENDCHAR
STARTCHAR 00AE
ENCODING 174
SWIDTH 900 0
DWIDTH 9 0
BBX 8 8 0 -1
BITMAP
3C
42
B9
A5
B9
A5
42
3C
ENDCHAR
STARTCHAR 00AF
ENCODING 175
SWIDTH 600 0
DWIDTH 6 0
BBX 6 1 0 7
BITMAP
FC
ENDCHAR
STARTCHAR 00B0
ENCODING 176
SWIDTH 400 0
DWIDTH 4 0
BBX 3 3 0 4
BITMAP
40
A0
40
ENDCHAR
STARTCHAR 00B1
ENCODING 177
SWIDTH 600 0
DWIDTH 6 0
BBX 5 7 0 -1
BITMAP
20
20
F8
20
20
00
F8
ENDCHAR
STARTCHAR 00B2
ENCODING 178
SWIDTH 400 0
DWIDTH 4 0
BBX 3 5 0 2
BITMAP
C0
20
40
80
E0
ENDCHAR
STARTCHAR 00B3
ENCODING 179
SWIDTH 400 0
DWIDTH 4 0
BBX 3 5 0 2
BITMAP
C0
20
40
20
C0
ENDCHAR
STARTCHAR 00B4
ENCODING 180
SWIDTH 300 0
DWIDTH 3 0
BBX 2 2 0 6
BITMAP
40
80
ENDCHAR
STARTCHAR 00B5
ENCODING 181
SWIDTH 600 0
DWIDTH 6 0
BBX 5 7 0 -2
BITMAP
90
90
90
90
E8
80
80
ENDCHAR
STARTCHAR 00B6
ENCODING 182
SWIDTH 600 0
DWIDTH 6 0
BBX 5 8 0 -1
BITMAP
F8
D0
D0
50
50
50
50
50
ENDCHAR
STARTCHAR 00B7
ENCODING 183
SWIDTH 200 0
DWIDTH 2 0
BBX 1 1 0 3
BITMAP
80
ENDCHAR
STARTCHAR 00B8
ENCODING 184
SWIDTH 300 0
DWIDTH 3 0
BBX 2 3 0 -2
BITMAP
80
40
80
ENDCHAR
STARTCHAR 00B9
ENCODING 185
SWIDTH 300 0
DWIDTH 3 0
BBX 3 4 0 3
BITMAP
C0
40
40
E0
ENDCHAR
STARTCHAR 00BA
ENCODING 186
SWIDTH 500 0
DWIDTH 5 0
BBX 4 6 0 1
BITMAP
60
90
90
60
00
F0
ENDCHAR
STARTCHAR 00BB
ENCODING 187
SWIDTH 700 0
DWIDTH 7 0
BBX 6 5 0 0
BITMAP
90
48
24
48
90
ENDCHAR
STARTCHAR 00BC
ENCODING 188
SWIDTH 1100 0
DWIDTH 11 0
BBX 10 7 0 0
BITMAP
C400
4400
4880
E980
0A80
13C0
1080
ENDCHAR
STARTCHAR 00BD
ENCODING 189
SWIDTH 1000 0
DWIDTH 10 0
BBX 9 7 0 0
BITMAP
C400
4400
4B00
E880
0900
1200
1380
ENDCHAR
STARTCHAR 00BE
ENCODING 190
SWIDTH 1100 0
DWIDTH 11 0
BBX 10 7 0 0
BITMAP
C400
2400
4880
2980
CA80
13C0
1080
ENDCHAR
STARTCHAR 00BF
ENCODING 191
SWIDTH 600 0
DWIDTH 6 0
BBX 5 7 0 -2
BITMAP
20
00
20
40
80
88
70
ENDCHAR
STARTCHAR 00C0
ENCODING 192
SWIDTH 800 0
DWIDTH 8 0
BBX 7 10 0 0
BITMAP
10
08
00
10
28
28
44
7C
82
82
ENDCHAR
STARTCHAR 00C1
ENCODING 193
SWIDTH 800 0
DWIDTH 8 0
BBX 7 10 0 0
BITMAP
08
10
00
10
28
28
44
7C
82
82
ENDCHAR
STARTCHAR 00C2
ENCODING 194
SWIDTH 800 0
DWIDTH 8 0
BBX 7 10 0 0
BITMAP
10
28
00
10
28
28
44
7C
82
82
ENDCHAR
STARTCHAR 00C3
ENCODING 195
SWIDTH 800 0
DWIDTH 8 0
BBX 7 10 0 0
BITMAP
14
28
00
10
28
28
44
7C
82
82
ENDCHAR
STARTCHAR 00C4
ENCODING 196
SWIDTH 800 0
DWIDTH 8 0
BBX 7 9 0 0
BITMAP
28
00
10
28
28
44
7C
82
82
ENDCHAR
STARTCHAR 00C5
ENCODING 197
SWIDTH 800 0
DWIDTH 8 0
BBX 7 9 0 0
BITMAP
10
28
10
28
28
44
7C
82
82
ENDCHAR
STARTCHAR 00C6
ENCODING 198
SWIDTH 1000 0
DWIDTH 10 0
BBX 9 7 0 0
BITMAP
0F80
1400
2400
2780
7C00
8400
8780
ENDCHAR
STARTCHAR 00C7
ENCODING 199
SWIDTH 600 0
DWIDTH 6 0
BBX 5 9 0 -2
BITMAP
70
88
80
80
80
88
70
10
20
ENDCHAR
STARTCHAR 00C8
ENCODING 200
SWIDTH 600 0
DWIDTH 6 0
BBX 5 10 0 0
BITMAP
40
20
00
F8
80
80
F8
80
80
F8
ENDCHAR
STARTCHAR 00C9
ENCODING 201
SWIDTH 600 0
DWIDTH 6 0
BBX 5 10 0 0
BITMAP
10
20
00
F8
80
80
F8
80
80
F8
ENDCHAR
STARTCHAR 00CA
ENCODING 202
SWIDTH 600 0
DWIDTH 6 0
BBX 5 10 0 0
BITMAP
20
50
00
F8
80
80
F8
80
80
F8
ENDCHAR
STARTCHAR 00CB
ENCODING 203
SWIDTH 600 0
DWIDTH 6 0
BBX 5 9 0 0
BITMAP
50
00
F8
80
80
F8
80
80
F8
ENDCHAR
STARTCHAR 00CC
ENCODING 204
SWIDTH 200 0
DWIDTH 2 0
BBX 2 10 -1 0
BITMAP
80
40
00
40
40
40
40
40
40
40
ENDCHAR
STARTCHAR 00CD
ENCODING 205
SWIDTH 200 0
DWIDTH 2 0
BBX 2 10 0 0
BITMAP
40
80
00
80
80
80
80
80
80
80
ENDCHAR
STARTCHAR 00CE
ENCODING 206
SWIDTH 200 0
DWIDTH 2 0
BBX 3 10 -1 0
BITMAP
40
A0
00
40
40
40
40
40
40
40
ENDCHAR
STARTCHAR 00CF
ENCODING 207
SWIDTH 200 0
DWIDTH 2 0
BBX 3 9 -1 0
BITMAP
A0
00
40
40
40
40
40
40
40
ENDCHAR
STARTCHAR 00D0
ENCODING 208
SWIDTH 600 0
DWIDTH 6 0
BBX 6 7 -1 0
BITMAP
78
44
44
E4
44
44
78
ENDCHAR
STARTCHAR 00D1
ENCODING 209
SWIDTH 600 0
DWIDTH 6 0
BBX 5 10 0 0
BITMAP
28
50
00
88
C8
A8
A8
98
88
88
ENDCHAR
STARTCHAR 00D2
ENCODING 210
SWIDTH 700 0
DWIDTH 7 0
BBX 6 10 0 0
BITMAP
20
10
00
78
84
84
84
84
84
78
ENDCHAR
STARTCHAR 00D3
ENCODING 211
SWIDTH 700 0
DWIDTH 7 0
BBX 6 10 0 0
BITMAP
10
20
00
78
84
84
84
84
84
78
ENDCHAR
STARTCHAR 00D4
ENCODING 212
SWIDTH 700 0
DWIDTH 7 0
BBX 6 10 0 0
BITMAP
10
28
00
78
84
84
84
84
84
78
ENDCHAR
STARTCHAR 00D5
ENCODING 213
SWIDTH 700 0
DWIDTH 7 0
BBX 6 10 0 0
BITMAP
28
50
00
78
84
84
84
84
84
78
ENDCHAR
STARTCHAR 00D6
ENCODING 214
SWIDTH 700 0
DWIDTH 7 0
BBX 6 9 0 0
BITMAP
28
00
78
84
84
84
84
84
78
ENDCHAR
STARTCHAR 00D7
ENCODING 215
SWIDTH 400 0
DWIDTH 4 0
BBX 3 3 0 2
BITMAP
A0
40
A0
ENDCHAR
STARTCHAR 00D8
ENCODING 216
SWIDTH 800 0
DWIDTH 8 0
BBX 7 7 0 0
BITMAP
7A
84
8A
92
A2
42
BC
ENDCHAR
STARTCHAR 00D9
ENCODING 217
SWIDTH 600 0
DWIDTH 6 0
BBX 5 10 0 0
BITMAP
20
10
00
88
88
88
88
88
88
70
ENDCHAR
STARTCHAR 00DA
ENCODING 218
SWIDTH 600 0
DWIDTH 6 0
BBX 5 10 0 0
BITMAP
10
20
00
88
88
88
88
88
88
70
ENDCHAR
STARTCHAR 00DB
ENCODING 219
SWIDTH 600 0
DWIDTH 6 0
BBX 5 10 0 0
BITMAP
20
50
00
88
88
88
88
88
88
70
ENDCHAR
STARTCHAR 00DC
ENCODING 220
SWIDTH 600 0
DWIDTH 6 0
BBX 5 9 0 0
BITMAP
50
00
88
88
88
88
88
88
70
ENDCHAR
STARTCHAR 00DD
ENCODING 221
SWIDTH 800 0
DWIDTH 8 0
BBX 7 10 0 0
BITMAP
08
10
00
82
44
28
10
10
10
10
ENDCHAR
STARTCHAR 00DE
ENCODING 222
SWIDTH 600 0
DWIDTH 6 0
BBX 5 7 0 0
BITMAP
80
F0
88
88
88
F0
80
ENDCHAR
STARTCHAR 00DF
ENCODING 223
SWIDTH 500 0
DWIDTH 5 0
BBX 4 8 0 0
BITMAP
60
90
90
A0
90
90
90
A0
ENDCHAR
STARTCHAR 00E0
ENCODING 224
SWIDTH 500 0
DWIDTH 5 0
BBX 4 8 0 0
BITMAP
80
40
00
E0
10
70
90
70
ENDCHAR
STARTCHAR 00E1
ENCODING 225
SWIDTH 500 0
DWIDTH 5 0
BBX 4 8 0 0
BITMAP
20
40
00
E0
10
70
90
70
ENDCHAR
STARTCHAR 00E2
ENCODING 226
SWIDTH 500 0
DWIDTH 5 0
BBX 4 8 0 0
BITMAP
40
A0
00
E0
10
70
90
70
ENDCHAR
STARTCHAR 00E3
ENCODING 227
SWIDTH 500 0
DWIDTH 5 0
BBX 4 8 0 0
BITMAP
50
A0
00
E0
10
70
90
70
ENDCHAR
STARTCHAR 00E4
ENCODING 228
SWIDTH 500 0
DWIDTH 5 0
BBX 4 7 0 0
BITMAP
A0
00
E0
10
70
90
70
ENDCHAR
STARTCHAR 00E5
ENCODING 229
SWIDTH 500 0
DWIDTH 5 0
BBX 4 9 0 0
BITMAP
40
A0
40
00
E0
10
70
90
70
ENDCHAR
STARTCHAR 00E6
ENCODING 230
SWIDTH 900 0
DWIDTH 9 0
BBX 8 5 0 0
BITMAP
F6
09
7F
88
77
ENDCHAR
STARTCHAR 00E7
ENCODING 231
SWIDTH 500 0
DWIDTH 5 0
BBX 4 7 0 -2
BITMAP
70
80
80
80
70
20
40
ENDCHAR
STARTCHAR 00E8
ENCODING 232
SWIDTH 500 0
DWIDTH 5 0
BBX 4 8 0 0
BITMAP
40
20
00
60
90
F0
80
70
ENDCHAR
STARTCHAR 00E9
ENCODING 233
SWIDTH 500 0
DWIDTH 5 0
BBX 4 8 0 0
BITMAP
10
20
00
60
90
F0
80
70
ENDCHAR
STARTCHAR 00EA
ENCODING 234
SWIDTH 500 0
DWIDTH 5 0
BBX 4 8 0 0
BITMAP
20
50
00
60
90
F0
80
70
ENDCHAR
STARTCHAR 00EB
ENCODING 235
SWIDTH 500 0
DWIDTH 5 0
BBX 4 7 0 0
BITMAP
50
00
60
90
F0
80
70
ENDCHAR
STARTCHAR 00EC
ENCODING 236
SWIDTH 200 0
DWIDTH 2 0
BBX 2 8 -1 0
BITMAP
80
40
00
40
40
40
40
40
ENDCHAR
STARTCHAR 00ED
ENCODING 237
SWIDTH 200 0
DWIDTH 2 0
BBX 2 8 0 0
BITMAP
40
80
00
80
80
80
80
80
ENDCHAR
STARTCHAR 00EE
ENCODING 238
SWIDTH 200 0
DWIDTH 2 0
BBX 3 8 -1 0
BITMAP
40
A0
00
40
40
40
40
40
ENDCHAR
STARTCHAR 00EF
ENCODING 239
SWIDTH 200 0
DWIDTH 2 0
BBX 3 7 -1 0
BITMAP
A0
00
40
40
40
40
40
ENDCHAR
STARTCHAR 00F0
ENCODING 240
SWIDTH 500 0
DWIDTH 5 0
BBX 4 7 0 0
BITMAP
50
20
10
70
90
90
60
ENDCHAR
STARTCHAR 00F1
ENCODING 241
SWIDTH 500 0
DWIDTH 5 0
BBX 4 8 0 0
BITMAP
50
A0
00
E0
90
90
90
90
ENDCHAR
STARTCHAR 00F2
ENCODING 242
SWIDTH 500 0
DWIDTH 5 0
BBX 4 8 0 0
BITMAP
40
20
00
60
90
90
90
60
ENDCHAR
STARTCHAR 00F3
ENCODING 243
SWIDTH 500 0
DWIDTH 5 0
BBX 4 8 0 0
BITMAP
10
20
00
60
90
90
90
60
ENDCHAR
STARTCHAR 00F4
ENCODING 244
SWIDTH 500 0
DWIDTH 5 0
BBX 4 8 0 0
BITMAP
20
50
00
60
90
90
90
60
ENDCHAR
STARTCHAR 00F5
ENCODING 245
SWIDTH 500 0
DWIDTH 5 0
BBX 4 8 0 0
BITMAP
50
A0
00
60
90
90
90
60
ENDCHAR
STARTCHAR 00F6
ENCODING 246
SWIDTH 500 0
DWIDTH 5 0
BBX 4 7 0 0
BITMAP
50
00
60
90
90
90
60
ENDCHAR
STARTCHAR 00F7
ENCODING 247
SWIDTH 600 0
DWIDTH 6 0
BBX 5 5 0 1
BITMAP
20
00
F8
00
20
ENDCHAR
STARTCHAR 00F8
ENCODING 248
SWIDTH 600 0
DWIDTH 6 0
BBX 5 7 0 -1
BITMAP
08
70
98
A8
C8
70
80
ENDCHAR
STARTCHAR 00F9
ENCODING 249
SWIDTH 500 0
DWIDTH 5 0
BBX 4 8 0 0
BITMAP
40
20
00
90
90
90
90
70
ENDCHAR
STARTCHAR 00FA
ENCODING 250
SWIDTH 500 0
DWIDTH 5 0
BBX 4 8 0 0
BITMAP
10
20
00
90
90
90
90
70
ENDCHAR
STARTCHAR 00FB
ENCODING 251
SWIDTH 500 0
DWIDTH 5 0
BBX 4 8 0 0
BITMAP
20
50
00
90
90
90
90
70
ENDCHAR
STARTCHAR 00FC
ENCODING 252
SWIDTH 500 0
DWIDTH 5 0
BBX 4 7 0 0
BITMAP
50
00
90
90
90
90
70
ENDCHAR
STARTCHAR 00FD
ENCODING 253
SWIDTH 600 0
DWIDTH 6 0
BBX 5 10 0 -2
BITMAP
10
20
00
88
88
50
50
20
20
C0
ENDCHAR
STARTCHAR 00FE
ENCODING 254
SWIDTH 500 0
DWIDTH 5 0
BBX 4 9 0 -2
BITMAP
80
80
E0
90
90
90
E0
80
80
ENDCHAR
STARTCHAR 00FF
ENCODING 255
SWIDTH 600 0
DWIDTH 6 0
BBX 5 9 0 -2
BITMAP
50
00
88
88
50
50
20
20
C0
ENDCHAR
STARTCHAR 0100
ENCODING 256
SWIDTH 800 0
DWIDTH 8 0
BBX 7 9 0 0
BITMAP
38
00
10
28
28
44
7C
82
82
ENDCHAR
STARTCHAR 0101
ENCODING 257
SWIDTH 500 0
DWIDTH 5 0
BBX 4 7 0 0
BITMAP
E0
00
E0
10
70
90
70
ENDCHAR
STARTCHAR 0102
ENCODING 258
SWIDTH 800 0
DWIDTH 8 0
BBX 7 10 0 0
BITMAP
28
10
00
10
28
28
44
7C
82
82
ENDCHAR
STARTCHAR 0103
ENCODING 259
SWIDTH 500 0
DWIDTH 5 0
BBX 4 8 0 0
BITMAP
A0
40
00
E0
10
70
90
70
ENDCHAR
STARTCHAR 0104
ENCODING 260
SWIDTH 800 0
DWIDTH 8 0
BBX 7 9 0 -2
BITMAP
10
28
28
44
7C
82
82
04
02
ENDCHAR
STARTCHAR 0105
ENCODING 261
SWIDTH 500 0
DWIDTH 5 0
BBX 4 7 0 -2
BITMAP
E0
10
70
90
70
20
10
ENDCHAR
STARTCHAR 0106
ENCODING 262
SWIDTH 600 0
DWIDTH 6 0
BBX 5 10 0 0
BITMAP
10
20
00
70
88
80
80
80
88
70
ENDCHAR
STARTCHAR 0107
ENCODING 263
SWIDTH 500 0
DWIDTH 5 0
BBX 4 8 0 0
BITMAP
10
20
00
70
80
80
80
70
ENDCHAR
STARTCHAR 0108
ENCODING 264
SWIDTH 600 0
DWIDTH 6 0
BBX 5 10 0 0
BITMAP
20
50
00
70
88
80
80
80
88
70
ENDCHAR
STARTCHAR 0109
ENCODING 265
SWIDTH 500 0
DWIDTH 5 0
BBX 4 8 0 0
BITMAP
20
50
00
70
80
80
80
70
ENDCHAR
STARTCHAR 010A
ENCODING 266
SWIDTH 600 0
DWIDTH 6 0
BBX 5 9 0 0
BITMAP
20
00
70
88
80
80
80
88
70
ENDCHAR
STARTCHAR 010B
ENCODING 267
SWIDTH 500 0
DWIDTH 5 0
BBX 4 7 0 0
BITMAP
20
00
70
80
80
80
70
ENDCHAR
STARTCHAR 010C
ENCODING 268
SWIDTH 600 0
DWIDTH 6 0
BBX 5 10 0 0
BITMAP
50
20
00
70
88
80
80
80
88
70
ENDCHAR
STARTCHAR 010D
ENCODING 269
SWIDTH 500 0
DWIDTH 5 0
BBX 4 8 0 0
BITMAP
50
20
00
70
80
80
80
70
ENDCHAR
STARTCHAR 010E
ENCODING 270
SWIDTH 600 0
DWIDTH 6 0
BBX 5 10 0 0
BITMAP
50
20
00
F0
88
88
88
88
88
F0
ENDCHAR
STARTCHAR 010F
ENCODING 271
SWIDTH 500 0
DWIDTH 5 0
BBX 6 7 0 0
BITMAP
14
14
70
90
90
90
70
ENDCHAR
STARTCHAR 0110
ENCODING 272
SWIDTH 600 0
DWIDTH 6 0
BBX 6 7 -1 0
BITMAP
78
44
44
E4
44
44
78
ENDCHAR
STARTCHAR 0111
ENCODING 273
SWIDTH 500 0
DWIDTH 5 0
BBX 5 7 0 0
BITMAP
10
38
10
70
90
90
70
ENDCHAR
STARTCHAR 0112
ENCODING 274
SWIDTH 600 0
DWIDTH 6 0
BBX 5 9 0 0
BITMAP
70
00
F8
80
80
F8
80
80
F8
ENDCHAR
STARTCHAR 0113
ENCODING 275
SWIDTH 500 0
DWIDTH 5 0
BBX 4 7 0 0
BITMAP
70
00
60
90
F0
80
70
ENDCHAR
STARTCHAR 0114
ENCODING 276
SWIDTH 600 0
DWIDTH 6 0
BBX 5 10 0 0
BITMAP
50
20
00
F8
80
80
F8
80
80
F8
ENDCHAR
STARTCHAR 0115
ENCODING 277
SWIDTH 500 0
DWIDTH 5 0
BBX 4 8 0 0
BITMAP
50
20
00
60
90
F0
80
70
ENDCHAR
STARTCHAR 0116
ENCODING 278
SWIDTH 600 0
DWIDTH 6 0
BBX 5 9 0 0
BITMAP
20
00
F8
80
80
F8
80
80
F8
ENDCHAR
STARTCHAR 0117
ENCODING 279
SWIDTH 500 0
DWIDTH 5 0
BBX 4 7 0 0
BITMAP
20
00
60
90
F0
80
70
ENDCHAR
STARTCHAR 0118
ENCODING 280
SWIDTH 600 0
DWIDTH 6 0
BBX 5 9 0 -2
BITMAP
F8
80
80
F8
80
80
F8
10
08
ENDCHAR
STARTCHAR 0119
ENCODING 281
SWIDTH 500 0
DWIDTH 5 0
BBX 4 7 0 -2
BITMAP
60
90
F0
80
70
40
20
ENDCHAR
STARTCHAR 011A
ENCODING 282
SWIDTH 600 0
DWIDTH 6 0
BBX 5 10 0 0
BITMAP
50
20
00
F8
80
80
F8
80
80
F8
ENDCHAR
STARTCHAR 011B
ENCODING 283
SWIDTH 500 0
DWIDTH 5 0
BBX 4 8 0 0
BITMAP
50
20
00
60
90
F0
80
70
ENDCHAR
STARTCHAR 011C
ENCODING 284
SWIDTH 700 0
DWIDTH 7 0
BBX 6 10 0 0
BITMAP
10
28
00
78
84
80
9C
84
84
78
ENDCHAR
STARTCHAR 011D
ENCODING 285
SWIDTH 500 0
DWIDTH 5 0
BBX 4 10 0 -2
BITMAP
20
50
00
70
90
90
90
70
10
E0
ENDCHAR
STARTCHAR 011E
ENCODING 286
SWIDTH 700 0
DWIDTH 7 0
BBX 6 10 0 0
BITMAP
28
10
00
78
84
80
9C
84
84
78
ENDCHAR
STARTCHAR 011F
ENCODING 287
SWIDTH 500 0
DWIDTH 5 0
BBX 4 10 0 -2
BITMAP
50
20
00
70
90
90
90
70
10
E0
ENDCHAR
STARTCHAR 0120
ENCODING 288
SWIDTH 700 0
DWIDTH 7 0
BBX 6 9 0 0
BITMAP
10
00
78
84
80
9C
84
84
78
ENDCHAR
STARTCHAR 0121
ENCODING 289
SWIDTH 500 0
DWIDTH 5 0
BBX 4 9 0 -2
BITMAP
20
00
70
90
90
90
70
10
E0
ENDCHAR
STARTCHAR 0122
ENCODING 290
SWIDTH 700 0
DWIDTH 7 0
BBX 6 10 0 -3
BITMAP
78
84
80
9C
84
84
78
00
10
20
ENDCHAR
STARTCHAR 0123
ENCODING 291
SWIDTH 500 0
DWIDTH 5 0
BBX 4 10 0 -2
BITMAP
20
20
00
70
90
90
90
70
10
E0
ENDCHAR
STARTCHAR 0124
ENCODING 292
SWIDTH 600 0
DWIDTH 6 0
BBX 5 10 0 0
BITMAP
20
50
00
88
88
88
F8
88
88
88
ENDCHAR
STARTCHAR 0125
ENCODING 293
SWIDTH 500 0
DWIDTH 5 0
BBX 4 10 0 0
BITMAP
20
50
00
80
80
E0
90
90
90
90
ENDCHAR
STARTCHAR 0126
ENCODING 294
SWIDTH 600 0
DWIDTH 6 0
BBX 7 7 -1 0
BITMAP
44
FE
44
7C
44
44
44
ENDCHAR
STARTCHAR 0127
ENCODING 295
SWIDTH 500 0
DWIDTH 5 0
BBX 5 7 -1 0
BITMAP
40
E0
40
70
48
48
48
ENDCHAR
STARTCHAR 0128
ENCODING 296
SWIDTH 200 0
DWIDTH 2 0
BBX 4 10 -1 0
BITMAP
50
A0
00
40
40
40
40
40
40
40
ENDCHAR
STARTCHAR 0129
ENCODING 297
SWIDTH 200 0
DWIDTH 2 0
BBX 4 8 -1 0
BITMAP
50
A0
00
40
40
40
40
40
ENDCHAR
STARTCHAR 012A
ENCODING 298
SWIDTH 200 0
DWIDTH 2 0
BBX 3 9 -1 0
BITMAP
E0
00
40
40
40
40
40
40
40
ENDCHAR
STARTCHAR 012B
ENCODING 299
SWIDTH 200 0
DWIDTH 2 0
BBX 3 7 -1 0
BITMAP
E0
00
40
40
40
40
40
ENDCHAR
STARTCHAR 012C
ENCODING 300
SWIDTH 200 0
DWIDTH 2 0
BBX 3 10 -1 0
BITMAP
A0
40
00
40
40
40
40
40
40
40
ENDCHAR
STARTCHAR 012D
ENCODING 301
SWIDTH 200 0
DWIDTH 2 0
BBX 3 8 -1 0
BITMAP
A0
40
00
40
40
40
40
40
ENDCHAR
STARTCHAR 012E
ENCODING 302
SWIDTH 200 0
DWIDTH 2 0
BBX 2 9 -1 -2
BITMAP
40
40
40
40
40
40
40
80
40
ENDCHAR
STARTCHAR 012F
ENCODING 303
SWIDTH 200 0
DWIDTH 2 0
BBX 2 9 -1 -2
BITMAP
40
00
40
40
40
40
40
80
40
ENDCHAR
STARTCHAR 0130
ENCODING 304
SWIDTH 200 0
DWIDTH 2 0
BBX 1 9 0 0
BITMAP
80
00
80
80
80
80
80
80
80
ENDCHAR
STARTCHAR 0131
ENCODING 305
SWIDTH 200 0
DWIDTH 2 0
BBX 1 5 0 0
BITMAP
80
80
80
80
80
ENDCHAR
STARTCHAR 0132
ENCODING 306
SWIDTH 600 0
DWIDTH 6 0
BBX 5 7 0 0
BITMAP
98
88
88
88
88
C8
B0
ENDCHAR
STARTCHAR 0133
ENCODING 307
SWIDTH 400 0
DWIDTH 4 0
BBX 3 9 0 -2
BITMAP
A0
00
A0
A0
A0
A0
A0
20
40
ENDCHAR
STARTCHAR 0134
ENCODING 308
SWIDTH 500 0
DWIDTH 5 0
BBX 5 10 0 0
BITMAP
10
28
00
30
10
10
10
10
90
60
ENDCHAR
STARTCHAR 0135
ENCODING 309
SWIDTH 200 0
DWIDTH 2 0
BBX 3 10 -1 -2
BITMAP
40
A0
00
40
40
40
40
40
40
80
ENDCHAR
STARTCHAR 0136
ENCODING 310
SWIDTH 700 0
DWIDTH 7 0
BBX 6 10 0 -3
BITMAP
88
90
A0
E0
90
88
84
00
10
20
ENDCHAR
STARTCHAR 0137
ENCODING 311
SWIDTH 500 0
DWIDTH 5 0
BBX 4 10 0 -3
BITMAP
80
80
90
A0
C0
A0
90
00
40
80
ENDCHAR
STARTCHAR 0138
ENCODING 312
SWIDTH 400 0
DWIDTH 4 0
BBX 3 5 0 0
BITMAP
A0
A0
C0
A0
A0
ENDCHAR
STARTCHAR 0139
ENCODING 313
SWIDTH 500 0
DWIDTH 5 0
BBX 4 10 0 0
BITMAP
40
80
00
80
80
80
80
80
80
F0
ENDCHAR
STARTCHAR 013A
ENCODING 314
SWIDTH 200 0
DWIDTH 2 0
BBX 2 10 0 0
BITMAP
40
80
00
80
80
80
80
80
80
80
ENDCHAR
STARTCHAR 013B
ENCODING 315
SWIDTH 500 0
DWIDTH 5 0
BBX 4 10 0 -3
BITMAP
80
80
80
80
80
80
F0
00
20
40
ENDCHAR
STARTCHAR 013C
ENCODING 316
SWIDTH 200 0
DWIDTH 2 0
BBX 2 10 -1 -3
BITMAP
40
40
40
40
40
40
40
00
40
80
ENDCHAR
STARTCHAR 013D
ENCODING 317
SWIDTH 500 0
DWIDTH 5 0
BBX 4 7 0 0
BITMAP
A0
A0
80
80
80
80
F0
ENDCHAR
STARTCHAR 013E
ENCODING 318
SWIDTH 200 0
DWIDTH 2 0
BBX 3 7 0 0
BITMAP
A0
A0
80
80
80
80
80
ENDCHAR
STARTCHAR 013F
ENCODING 319
SWIDTH 500 0
DWIDTH 5 0
BBX 4 7 0 0
BITMAP
80
80
80
A0
80
80
F0
ENDCHAR
STARTCHAR 0140
ENCODING 320
SWIDTH 200 0
DWIDTH 2 0
BBX 3 7 0 0
BITMAP
80
80
80
A0
80
80
80
ENDCHAR
STARTCHAR 0141
ENCODING 321
SWIDTH 500 0
DWIDTH 5 0
BBX 5 7 -1 0
BITMAP
40
40
40
60
C0
40
78
ENDCHAR
STARTCHAR 0142
ENCODING 322
SWIDTH 200 0
DWIDTH 2 0
BBX 3 7 -1 0
BITMAP
40
40
40
60
C0
40
40
ENDCHAR
STARTCHAR 0143
ENCODING 323
SWIDTH 600 0
DWIDTH 6 0
BBX 5 10 0 0
BITMAP
10
20
00
88
C8
A8
A8
98
88
88
ENDCHAR
STARTCHAR 0144
ENCODING 324
SWIDTH 500 0
DWIDTH 5 0
BBX 4 8 0 0
BITMAP
10
20
00
E0
90
90
90
90
ENDCHAR
STARTCHAR 0145
ENCODING 325
SWIDTH 600 0
DWIDTH 6 0
BBX 5 10 0 -3
BITMAP
88
C8
A8
A8
98
88
88
00
20
40
ENDCHAR
STARTCHAR 0146
ENCODING 326
SWIDTH 500 0
DWIDTH 5 0
BBX 4 8 0 -3
BITMAP
E0
90
90
90
90
00
20
40
ENDCHAR
STARTCHAR 0147
ENCODING 327
SWIDTH 600 0
DWIDTH 6 0
BBX 5 10 0 0
BITMAP
50
20
00
88
C8
A8
A8
98
88
88
ENDCHAR
STARTCHAR 0148
ENCODING 328
SWIDTH 500 0
DWIDTH 5 0
BBX 4 8 0 0
BITMAP
50
20
00
E0
90
90
90
90
ENDCHAR
STARTCHAR 0149
ENCODING 329
SWIDTH 500 0
DWIDTH 5 0
BBX 5 7 -1 0
BITMAP
80
80
70
48
48
48
48
ENDCHAR
STARTCHAR 014A
ENCODING 330
SWIDTH 600 0
DWIDTH 6 0
BBX 5 7 0 0
BITMAP
B0
C8
88
88
88
88
B0
ENDCHAR
STARTCHAR 014B
ENCODING 331
SWIDTH 500 0
DWIDTH 5 0
BBX 4 7 0 -2
BITMAP
E0
90
90
90
90
10
20
ENDCHAR
STARTCHAR 014C
ENCODING 332
SWIDTH 700 0
DWIDTH 7 0
BBX 6 9 0 0
BITMAP
38
00
78
84
84
84
84
84
78
ENDCHAR
STARTCHAR 014D
ENCODING 333
SWIDTH 500 0
DWIDTH 5 0
BBX 4 7 0 0
BITMAP
70
00
60
90
90
90
60
ENDCHAR
STARTCHAR 014E
ENCODING 334
SWIDTH 700 0
DWIDTH 7 0
BBX 6 10 0 0
BITMAP
28
10
00
78
84
84
84
84
84
78
ENDCHAR
STARTCHAR 014F
ENCODING 335
SWIDTH 500 0
DWIDTH 5 0
BBX 4 8 0 0
BITMAP
50
20
00
60
90
90
90
60
ENDCHAR
STARTCHAR 0150
ENCODING 336
SWIDTH 700 0
DWIDTH 7 0
BBX 6 10 0 0
BITMAP
14
28
00
78
84
84
84
84
84
78
ENDCHAR
STARTCHAR 0151
ENCODING 337
SWIDTH 500 0
DWIDTH 5 0
BBX 5 8 0 0
BITMAP
28
50
00
60
90
90
90
60
ENDCHAR
STARTCHAR 0152
ENCODING 338
SWIDTH 900 0
DWIDTH 9 0
BBX 8 7 0 0
BITMAP
7F
88
88
8F
88
88
7F
ENDCHAR
STARTCHAR 0153
ENCODING 339
SWIDTH 900 0
DWIDTH 9 0
BBX 8 5 0 0
BITMAP
76
89
8F
88
77
ENDCHAR
STARTCHAR 0154
ENCODING 340
SWIDTH 600 0
DWIDTH 6 0
BBX 5 10 0 0
BITMAP
10
20
00
F0
88
88
F0
A0
90
88
ENDCHAR
STARTCHAR 0155
ENCODING 341
SWIDTH 400 0
DWIDTH 4 0
BBX 3 8 0 0
BITMAP
20
40
00
A0
C0
80
80
80
ENDCHAR
STARTCHAR 0156
ENCODING 342
SWIDTH 600 0
DWIDTH 6 0
BBX 5 10 0 -3
BITMAP
F0
88
88
F0
A0
90
88
00
20
40
ENDCHAR
STARTCHAR 0157
ENCODING 343
SWIDTH 400 0
DWIDTH 4 0
BBX 4 8 -1 -3
BITMAP
50
60
40
40
40
00
40
80
ENDCHAR
STARTCHAR 0158
ENCODING 344
SWIDTH 600 0
DWIDTH 6 0
BBX 5 10 0 0
BITMAP
50
20
00
F0
88
88
F0
A0
90
88
ENDCHAR
STARTCHAR 0159
ENCODING 345
SWIDTH 400 0
DWIDTH 4 0
BBX 3 8 0 0
BITMAP
A0
40
00
A0
C0
80
80
80
ENDCHAR
STARTCHAR 015A
ENCODING 346
SWIDTH 600 0
DWIDTH 6 0
BBX 5 10 0 0
BITMAP
10
20
00
70
88
80
70
08
88
70
ENDCHAR
STARTCHAR 015B
ENCODING 347
SWIDTH 400 0
DWIDTH 4 0
BBX 4 8 0 0
BITMAP
10
20
00
60
80
40
20
C0
ENDCHAR
STARTCHAR 015C
ENCODING 348
SWIDTH 600 0
DWIDTH 6 0
BBX 5 10 0 0
BITMAP
20
50
00
70
88
80
70
08
88
70
ENDCHAR
STARTCHAR 015D
ENCODING 349
SWIDTH 400 0
DWIDTH 4 0
BBX 3 8 0 0
BITMAP
40
A0
00
60
80
40
20
C0
ENDCHAR
STARTCHAR 015E
ENCODING 350
SWIDTH 600 0
DWIDTH 6 0
BBX 5 9 0 -2
BITMAP
70
88
80
70
08
88
70
10
20
ENDCHAR
STARTCHAR 015F
ENCODING 351
SWIDTH 400 0
DWIDTH 4 0
BBX 3 7 0 -2
BITMAP
60
80
40
20
C0
20
40
ENDCHAR
STARTCHAR 0160
ENCODING 352
SWIDTH 600 0
DWIDTH 6 0
BBX 5 10 0 0
BITMAP
50
20
00
70
88
80
70
08
88
70
ENDCHAR
STARTCHAR 0161
ENCODING 353
SWIDTH 400 0
DWIDTH 4 0
BBX 3 8 0 0
BITMAP
A0
40
00
60
80
40
20
C0
ENDCHAR
STARTCHAR 0162
ENCODING 354
SWIDTH 600 0
DWIDTH 6 0
BBX 5 10 0 -3
BITMAP
F8
20
20
20
20
20
20
00
20
40
ENDCHAR
STARTCHAR 0163
ENCODING 355
SWIDTH 300 0
DWIDTH 3 0
BBX 2 9 0 -3
BITMAP
80
C0
80
80
80
40
00
40
80
ENDCHAR
STARTCHAR 0164
ENCODING 356
SWIDTH 600 0
DWIDTH 6 0
BBX 5 10 0 0
BITMAP
50
20
00
F8
20
20
20
20
20
20
ENDCHAR
STARTCHAR 0165
ENCODING 357
SWIDTH 300 0
DWIDTH 3 0
BBX 3 7 0 0
BITMAP
20
A0
C0
80
80
80
40
ENDCHAR
STARTCHAR 0166
ENCODING 358
SWIDTH 600 0
DWIDTH 6 0
BBX 5 7 0 0
BITMAP
F8
20
20
70
20
20
20
ENDCHAR
STARTCHAR 0167
ENCODING 359
SWIDTH 300 0
DWIDTH 3 0
BBX 2 6 0 0
BITMAP
80
C0
80
C0
80
40
ENDCHAR
STARTCHAR 0168
ENCODING 360
SWIDTH 600 0
DWIDTH 6 0
BBX 5 10 0 0
BITMAP
28
50
00
88
88
88
88
88
88
70
ENDCHAR
STARTCHAR 0169
ENCODING 361
SWIDTH 500 0
DWIDTH 5 0
BBX 4 8 0 0
BITMAP
50
A0
00
90
90
90
90
70
ENDCHAR
STARTCHAR 016A
ENCODING 362
SWIDTH 600 0
DWIDTH 6 0
BBX 5 9 0 0
BITMAP
70
00
88
88
88
88
88
88
70
ENDCHAR
STARTCHAR 016B
ENCODING 363
SWIDTH 500 0
DWIDTH 5 0
BBX 4 7 0 0
BITMAP
70
00
90
90
90
90
70
ENDCHAR
STARTCHAR 016C
ENCODING 364
SWIDTH 600 0
DWIDTH 6 0
BBX 5 10 0 0
BITMAP
50
20
00
88
88
88
88
88
88
70
ENDCHAR
STARTCHAR 016D
ENCODING 365
SWIDTH 500 0
DWIDTH 5 0
BBX 4 8 0 0
BITMAP
50
20
00
90
90
90
90
70
ENDCHAR
STARTCHAR 016E
ENCODING 366
SWIDTH 600 0
DWIDTH 6 0
BBX 5 11 0 0
BITMAP
20
50
20
00
88
88
88
88
88
88
70
ENDCHAR
STARTCHAR 016F
ENCODING 367
SWIDTH 500 0
DWIDTH 5 0
BBX 4 9 0 0
BITMAP
20
50
20
00
90
90
90
90
70
ENDCHAR
STARTCHAR 0170
ENCODING 368
SWIDTH 600 0
DWIDTH 6 0
BBX 5 10 0 0
BITMAP
28
50
00
88
88
88
88
88
88
70
ENDCHAR
STARTCHAR 0171
ENCODING 369
SWIDTH 500 0
DWIDTH 5 0
BBX 5 8 0 0
BITMAP
28
50
00
90
90
90
90
70
ENDCHAR
STARTCHAR 0172
ENCODING 370
SWIDTH 600 0
DWIDTH 6 0
BBX 5 9 0 -2
BITMAP
88
88
88
88
88
88
70
20
10
ENDCHAR
STARTCHAR 0173
ENCODING 371
SWIDTH 500 0
DWIDTH 5 0
BBX 4 7 0 -2
BITMAP
90
90
90
90
70
20
10
ENDCHAR
STARTCHAR 0174
ENCODING 372
SWIDTH 1000 0
DWIDTH 10 0
BBX 9 10 0 0
BITMAP
0800
1400
0000
8880
8880
5500
5500
5500
2200
2200
ENDCHAR
STARTCHAR 0175
ENCODING 373
SWIDTH 600 0
DWIDTH 6 0
BBX 5 8 0 0
BITMAP
20
50
00
A8
A8
A8
50
50
ENDCHAR
STARTCHAR 0176
ENCODING 374
SWIDTH 800 0
DWIDTH 8 0
BBX 7 10 0 0
BITMAP
10
28
00
82
44
28
10
10
10
10
ENDCHAR
STARTCHAR 0177
ENCODING 375
SWIDTH 600 0
DWIDTH 6 0
BBX 5 10 0 -2
BITMAP
20
50
00
88
88
50
50
20
20
C0
ENDCHAR
STARTCHAR 0178
ENCODING 376
SWIDTH 800 0
DWIDTH 8 0
BBX 7 9 0 0
BITMAP
28
00
82
44
28
10
10
10
10
ENDCHAR
STARTCHAR 0179
ENCODING 377
SWIDTH 500 0
DWIDTH 5 0
BBX 4 10 0 0
BITMAP
10
20
00
F0
10
20
40
40
80
F0
ENDCHAR
STARTCHAR 017A
ENCODING 378
SWIDTH 400 0
DWIDTH 4 0
BBX 3 8 0 0
BITMAP
20
40
00
E0
20
40
80
E0
ENDCHAR
STARTCHAR 017B
ENCODING 379
SWIDTH 500 0
DWIDTH 5 0
BBX 4 9 0 0
BITMAP
20
00
F0
10
20
40
40
80
F0
ENDCHAR
STARTCHAR 017C
ENCODING 380
SWIDTH 400 0
DWIDTH 4 0
BBX 3 7 0 0
BITMAP
40
00
E0
20
40
80
E0
ENDCHAR
STARTCHAR 017D
ENCODING 381
SWIDTH 500 0
DWIDTH 5 0
BBX 4 10 0 0
BITMAP
50
20
00
F0
10
20
40
40
80
F0
ENDCHAR
STARTCHAR 017E
ENCODING 382
SWIDTH 400 0
DWIDTH 4 0
BBX 3 8 0 0
BITMAP
A0
40
00
E0
20
40
80
E0
ENDCHAR
STARTCHAR 017F
ENCODING 383
SWIDTH 200 0
DWIDTH 2 0
BBX 2 7 0 0
BITMAP
40
80
80
80
80
80
80
ENDCHAR
STARTCHAR 0192
ENCODING 402
SWIDTH 500 0
DWIDTH 5 0
BBX 4 9 0 -2
BITMAP
30
40
E0
40
40
40
80
80
80
ENDCHAR
STARTCHAR 01FA
ENCODING 506
SWIDTH 800 0
DWIDTH 8 0
BBX 7 10 0 0
BITMAP
08
10
10
28
10
28
28
44
7C
82
ENDCHAR
STARTCHAR 01FB
ENCODING 507
SWIDTH 500 0
DWIDTH 5 0
BBX 4 10 0 0
BITMAP
20
40
40
A0
40
E0
10
70
90
70
ENDCHAR
STARTCHAR 01FC
ENCODING 508
SWIDTH 1000 0
DWIDTH 10 0
BBX 9 10 0 0
BITMAP
0200
0400
0000
0F80
1400
2400
2780
7C00
8400
8780
ENDCHAR
STARTCHAR 01FD
ENCODING 509
SWIDTH 900 0
DWIDTH 9 0
BBX 8 8 0 0
BITMAP
04
08
00
F6
09
7F
88
77
ENDCHAR
STARTCHAR 01FE
ENCODING 510
SWIDTH 800 0
DWIDTH 8 0
BBX 7 10 0 -1
BITMAP
08
10
00
7A
84
8A
92
A2
42
BC
ENDCHAR
STARTCHAR 01FF
ENCODING 511
SWIDTH 600 0
DWIDTH 6 0
BBX 5 9 0 -2
BITMAP
10
20
08
70
98
A8
C8
70
80
ENDCHAR
STARTCHAR 02C6
ENCODING 710
SWIDTH 300 0
DWIDTH 3 0
BBX 3 2 0 6
BITMAP
40
A0
ENDCHAR
STARTCHAR 02C7
ENCODING 711
SWIDTH 300 0
DWIDTH 3 0
BBX 3 2 0 6
BITMAP
A0
40
ENDCHAR
STARTCHAR 02C9
ENCODING 713
SWIDTH 300 0
DWIDTH 3 0
BBX 3 1 0 6
BITMAP
E0
ENDCHAR
STARTCHAR 02D8
ENCODING 728
SWIDTH 300 0
DWIDTH 3 0
BBX 3 2 0 6
BITMAP
A0
40
ENDCHAR
STARTCHAR 02D9
ENCODING 729
SWIDTH 300 0
DWIDTH 3 0
BBX 1 1 1 6
BITMAP
80
ENDCHAR
STARTCHAR 02DA
ENCODING 730
SWIDTH 300 0
DWIDTH 3 0
BBX 3 3 0 6
BITMAP
40
A0
40
ENDCHAR
STARTCHAR 02DB
ENCODING 731
SWIDTH 300 0
DWIDTH 3 0
BBX 2 3 0 -2
BITMAP
40
80
40
ENDCHAR
STARTCHAR 02DC
ENCODING 732
SWIDTH 300 0
DWIDTH 3 0
BBX 4 2 0 6
BITMAP
50
A0
ENDCHAR
STARTCHAR 02DD
ENCODING 733
SWIDTH 300 0
DWIDTH 3 0
BBX 5 2 -1 6
BITMAP
48
90
ENDCHAR
STARTCHAR 037E
ENCODING 894
SWIDTH 200 0
DWIDTH 2 0
BBX 1 6 0 -1
BITMAP
80
00
00
00
80
80
ENDCHAR
STARTCHAR 0384
ENCODING 900
SWIDTH 200 0
DWIDTH 2 0
BBX 1 2 0 5
BITMAP
80
80
ENDCHAR
STARTCHAR 0385
ENCODING 901
SWIDTH 300 0
DWIDTH 3 0
BBX 3 2 0 6
BITMAP
40
E0
ENDCHAR
STARTCHAR 0386
ENCODING 902
SWIDTH 800 0
DWIDTH 8 0
BBX 7 7 0 0
BITMAP
90
A8
28
44
7C
82
82
ENDCHAR
STARTCHAR 0387
ENCODING 903
SWIDTH 200 0
DWIDTH 2 0
BBX 1 1 0 2
BITMAP
80
ENDCHAR
STARTCHAR 0388
ENCODING 904
SWIDTH 800 0
DWIDTH 8 0
BBX 7 7 0 0
BITMAP
BE
A0
20
3E
20
20
3E
ENDCHAR
STARTCHAR 0389
ENCODING 905
SWIDTH 800 0
DWIDTH 8 0
BBX 7 7 0 0
BITMAP
A2
A2
22
3E
22
22
22
ENDCHAR
STARTCHAR 038A
ENCODING 906
SWIDTH 400 0
DWIDTH 4 0
BBX 3 7 0 0
BITMAP
A0
A0
20
20
20
20
20
ENDCHAR
STARTCHAR 038C
ENCODING 908
SWIDTH 900 0
DWIDTH 9 0
BBX 8 7 0 0
BITMAP
9E
A1
21
21
21
21
1E
ENDCHAR
STARTCHAR 038E
ENCODING 910
SWIDTH 1000 0
DWIDTH 10 0
BBX 9 7 0 0
BITMAP
A080
9100
0A00
0400
0400
0400
0400
ENDCHAR
STARTCHAR 038F
ENCODING 911
SWIDTH 800 0
DWIDTH 8 0
BBX 7 7 0 0
BITMAP
9C
A2
22
22
22
14
36
ENDCHAR
STARTCHAR 0390
ENCODING 912
SWIDTH 200 0
DWIDTH 2 0
BBX 3 8 -1 0
BITMAP
40
E0
00
40
40
40
40
40
ENDCHAR
STARTCHAR 0391
ENCODING 913
SWIDTH 800 0
DWIDTH 8 0
BBX 7 7 0 0
BITMAP
10
28
28
44
7C
82
82
ENDCHAR
STARTCHAR 0392
ENCODING 914
SWIDTH 600 0
DWIDTH 6 0
BBX 5 7 0 0
BITMAP
F0
88
88
F0
88
88
F0
ENDCHAR
STARTCHAR 0393
ENCODING 915
SWIDTH 500 0
DWIDTH 5 0
BBX 4 7 0 0
BITMAP
F0
80
80
80
80
80
80
ENDCHAR
STARTCHAR 0394
ENCODING 916
SWIDTH 800 0
DWIDTH 8 0
BBX 7 7 0 0
BITMAP
10
28
28
44
44
82
FE
ENDCHAR
STARTCHAR 0395
ENCODING 917
SWIDTH 600 0
DWIDTH 6 0
BBX 5 7 0 0
BITMAP
F8
80
80
F8
80
80
F8
ENDCHAR
STARTCHAR 0396
ENCODING 918
SWIDTH 500 0
DWIDTH 5 0
BBX 4 7 0 0
BITMAP
F0
10
20
40
40
80
F0
ENDCHAR
STARTCHAR 0397
ENCODING 919
SWIDTH 600 0
DWIDTH 6 0
BBX 5 7 0 0
BITMAP
88
88
88
F8
88
88
88
ENDCHAR
STARTCHAR 0398
ENCODING 920
SWIDTH 700 0
DWIDTH 7 0
BBX 6 7 0 0
BITMAP
78
84
84
B4
84
84
78
ENDCHAR
STARTCHAR 0399
ENCODING 921
SWIDTH 200 0
DWIDTH 2 0
BBX 1 7 0 0
BITMAP
80
80
80
80
80
80
80
ENDCHAR
STARTCHAR 039A
ENCODING 922
SWIDTH 700 0
DWIDTH 7 0
BBX 6 7 0 0
BITMAP
88
90
A0
E0
90
88
84
ENDCHAR
STARTCHAR 039B
ENCODING 923
SWIDTH 800 0
DWIDTH 8 0
BBX 7 7 0 0
BITMAP
10
28
28
44
44
82
82
ENDCHAR
STARTCHAR 039C
ENCODING 924
SWIDTH 800 0
DWIDTH 8 0
BBX 7 7 0 0
BITMAP
82
C6
AA
AA
92
92
82
ENDCHAR
STARTCHAR 039D
ENCODING 925
SWIDTH 600 0
DWIDTH 6 0
BBX 5 7 0 0
BITMAP
88
C8
A8
A8
98
88
88
ENDCHAR
STARTCHAR 039E
ENCODING 926
SWIDTH 600 0
DWIDTH 6 0
BBX 5 7 0 0
BITMAP
F8
00
00
70
00
00
F8
ENDCHAR
STARTCHAR 039F
ENCODING 927
SWIDTH 700 0
DWIDTH 7 0
BBX 6 7 0 0
BITMAP
78
84
84
84
84
84
78
ENDCHAR
STARTCHAR 03A0
ENCODING 928
SWIDTH 600 0
DWIDTH 6 0
BBX 5 7 0 0
BITMAP
F8
88
88
88
88
88
88
ENDCHAR
STARTCHAR 03A1
ENCODING 929
SWIDTH 600 0
DWIDTH 6 0
BBX 5 7 0 0
BITMAP
F0
88
88
F0
80
80
80
ENDCHAR
STARTCHAR 03A3
ENCODING 931
SWIDTH 500 0
DWIDTH 5 0
BBX 4 7 0 0
BITMAP
F0
80
40
20
40
80
F0
ENDCHAR
STARTCHAR 03A4
ENCODING 932
SWIDTH 600 0
DWIDTH 6 0
BBX 5 7 0 0
BITMAP
F8
20
20
20
20
20
20
ENDCHAR
STARTCHAR 03A5
ENCODING 933
SWIDTH 800 0
DWIDTH 8 0
BBX 7 7 0 0
BITMAP
82
44
28
10
10
10
10
ENDCHAR
STARTCHAR 03A6
ENCODING 934
SWIDTH 800 0
DWIDTH 8 0
BBX 7 7 0 0
BITMAP
10
7C
92
92
92
7C
10
ENDCHAR
STARTCHAR 03A7
ENCODING 935
SWIDTH 600 0
DWIDTH 6 0
BBX 5 7 0 0
BITMAP
88
50
50
20
50
50
88
ENDCHAR
STARTCHAR 03A8
ENCODING 936
SWIDTH 800 0
DWIDTH 8 0
BBX 7 7 0 0
BITMAP
92
92
92
92
7C
10
10
ENDCHAR
STARTCHAR 03A9
ENCODING 937
SWIDTH 600 0
DWIDTH 6 0
BBX 5 7 0 0
BITMAP
70
88
88
88
88
50
D8
ENDCHAR
STARTCHAR 03AA
ENCODING 938
SWIDTH 200 0
DWIDTH 2 0
BBX 3 9 -1 0
BITMAP
A0
00
40
40
40
40
40
40
40
ENDCHAR
STARTCHAR 03AB
ENCODING 939
SWIDTH 800 0
DWIDTH 8 0
BBX 7 9 0 0
BITMAP
28
00
82
44
28
10
10
10
10
ENDCHAR
STARTCHAR 03AC
ENCODING 940
SWIDTH 600 0
DWIDTH 6 0
BBX 5 8 0 0
BITMAP
20
20
00
68
90
90
90
68
ENDCHAR
STARTCHAR 03AD
ENCODING 941
SWIDTH 400 0
DWIDTH 4 0
BBX 3 8 0 0
BITMAP
20
20
00
60
80
40
80
60
ENDCHAR
STARTCHAR 03AE
ENCODING 942
SWIDTH 500 0
DWIDTH 5 0
BBX 4 10 0 -2
BITMAP
20
20
00
E0
90
90
90
90
10
10
ENDCHAR
STARTCHAR 03AF
ENCODING 943
SWIDTH 200 0
DWIDTH 2 0
BBX 1 8 0 0
BITMAP
80
80
00
80
80
80
80
80
ENDCHAR
STARTCHAR 03B0
ENCODING 944
SWIDTH 500 0
DWIDTH 5 0
BBX 4 8 0 0
BITMAP
20
70
00
90
90
90
90
60
ENDCHAR
STARTCHAR 03B1
ENCODING 945
SWIDTH 600 0
DWIDTH 6 0
BBX 5 5 0 0
BITMAP
68
90
90
90
68
ENDCHAR
STARTCHAR 03B2
ENCODING 946
SWIDTH 500 0
DWIDTH 5 0
BBX 4 9 0 -2
BITMAP
60
90
90
A0
90
90
E0
80
80
ENDCHAR
STARTCHAR 03B3
ENCODING 947
SWIDTH 600 0
DWIDTH 6 0
BBX 5 7 0 -2
BITMAP
88
88
50
50
20
20
20
ENDCHAR
STARTCHAR 03B4
ENCODING 948
SWIDTH 500 0
DWIDTH 5 0
BBX 4 7 0 0
BITMAP
70
20
60
90
90
90
60
ENDCHAR
STARTCHAR 03B5
ENCODING 949
SWIDTH 400 0
DWIDTH 4 0
BBX 3 5 0 0
BITMAP
60
80
40
80
60
ENDCHAR
STARTCHAR 03B6
ENCODING 950
SWIDTH 500 0
DWIDTH 5 0
BBX 4 9 0 -2
BITMAP
F0
10
20
40
80
80
60
10
10
ENDCHAR
STARTCHAR 03B7
ENCODING 951
SWIDTH 500 0
DWIDTH 5 0
BBX 4 7 0 -2
BITMAP
E0
90
90
90
90
10
10
ENDCHAR
STARTCHAR 03B8
ENCODING 952
SWIDTH 500 0
DWIDTH 5 0
BBX 4 7 0 0
BITMAP
60
90
90
F0
90
90
60
ENDCHAR
STARTCHAR 03B9
ENCODING 953
SWIDTH 200 0
DWIDTH 2 0
BBX 1 5 0 0
BITMAP
80
80
80
80
80
ENDCHAR
STARTCHAR 03BA
ENCODING 954
SWIDTH 500 0
DWIDTH 5 0
BBX 4 5 0 0
BITMAP
90
A0
C0
A0
90
ENDCHAR
STARTCHAR 03BB
ENCODING 955
SWIDTH 600 0
DWIDTH 6 0
BBX 5 7 0 0
BITMAP
C0
20
20
20
50
88
88
ENDCHAR
STARTCHAR 03BC
ENCODING 956
SWIDTH 500 0
DWIDTH 5 0
BBX 4 7 0 -2
BITMAP
90
90
90
90
F0
80
80
ENDCHAR
STARTCHAR 03BD
ENCODING 957
SWIDTH 600 0
DWIDTH 6 0
BBX 5 5 0 0
BITMAP
88
88
48
50
20
ENDCHAR
STARTCHAR 03BE
ENCODING 958
SWIDTH 400 0
DWIDTH 4 0
BBX 3 9 0 -2
BITMAP
E0
40
80
40
80
80
40
20
20
ENDCHAR
STARTCHAR 03BF
ENCODING 959
SWIDTH 500 0
DWIDTH 5 0
BBX 4 5 0 0
BITMAP
60
90
90
90
60
ENDCHAR
STARTCHAR 03C0
ENCODING 960
SWIDTH 600 0
DWIDTH 6 0
BBX 5 5 0 0
BITMAP
F8
50
50
50
48
ENDCHAR
STARTCHAR 03C1
ENCODING 961
SWIDTH 500 0
DWIDTH 5 0
BBX 4 7 0 -2
BITMAP
60
90
90
90
E0
80
80
ENDCHAR
STARTCHAR 03C2
ENCODING 962
SWIDTH 400 0
DWIDTH 4 0
BBX 3 7 0 -2
BITMAP
60
80
80
80
40
20
20
ENDCHAR
STARTCHAR 03C3
ENCODING 963
SWIDTH 600 0
DWIDTH 6 0
BBX 5 5 0 0
BITMAP
78
90
90
90
60
ENDCHAR
STARTCHAR 03C4
ENCODING 964
SWIDTH 400 0
DWIDTH 4 0
BBX 3 5 0 0
BITMAP
E0
40
40
40
20
ENDCHAR
STARTCHAR 03C5
ENCODING 965
SWIDTH 500 0
DWIDTH 5 0
BBX 4 5 0 0
BITMAP
90
90
90
90
60
ENDCHAR
STARTCHAR 03C6
ENCODING 966
SWIDTH 600 0
DWIDTH 6 0
BBX 5 7 0 -2
BITMAP
50
A8
A8
A8
70
20
20
ENDCHAR
STARTCHAR 03C7
ENCODING 967
SWIDTH 600 0
DWIDTH 6 0
BBX 5 7 0 -2
BITMAP
88
50
20
20
50
88
88
ENDCHAR
STARTCHAR 03C8
ENCODING 968
SWIDTH 600 0
DWIDTH 6 0
BBX 5 8 0 -2
BITMAP
20
A8
A8
A8
A8
70
20
20
ENDCHAR
STARTCHAR 03C9
ENCODING 969
SWIDTH 800 0
DWIDTH 8 0
BBX 7 5 0 0
BITMAP
44
82
92
92
6C
ENDCHAR
STARTCHAR 03CA
ENCODING 970
SWIDTH 200 0
DWIDTH 2 0
BBX 3 7 -1 0
BITMAP
A0
00
40
40
40
40
40
ENDCHAR
STARTCHAR 03CB
ENCODING 971
SWIDTH 500 0
DWIDTH 5 0
BBX 4 7 0 0
BITMAP
50
00
90
90
90
90
60
ENDCHAR
STARTCHAR 03CC
ENCODING 972
SWIDTH 500 0
DWIDTH 5 0
BBX 4 8 0 0
BITMAP
20
20
00
60
90
90
90
60
ENDCHAR
STARTCHAR 03CD
ENCODING 973
SWIDTH 500 0
DWIDTH 5 0
BBX 4 8 0 0
BITMAP
20
20
00
90
90
90
90
60
ENDCHAR
STARTCHAR 03CE
ENCODING 974
SWIDTH 800 0
DWIDTH 8 0
BBX 7 8 0 0
BITMAP
10
10
00
44
82
92
92
6C
ENDCHAR
STARTCHAR 0401
ENCODING 1025
SWIDTH 600 0
DWIDTH 6 0
BBX 5 9 0 0
BITMAP
50
00
F8
80
80
F8
80
80
F8
ENDCHAR
STARTCHAR 0402
ENCODING 1026
SWIDTH 800 0
DWIDTH 8 0
BBX 7 7 0 0
BITMAP
F8
20
3C
22
22
22
2C
ENDCHAR
STARTCHAR 0403
ENCODING 1027
SWIDTH 500 0
DWIDTH 5 0
BBX 4 10 0 0
BITMAP
20
40
00
F0
80
80
80
80
80
80
ENDCHAR
STARTCHAR 0404
ENCODING 1028
SWIDTH 600 0
DWIDTH 6 0
BBX 5 7 0 0
BITMAP
70
88
80
E0
80
88
70
ENDCHAR
STARTCHAR 0405
ENCODING 1029
SWIDTH 600 0
DWIDTH 6 0
BBX 5 7 0 0
BITMAP
70
88
80
70
08
88
70
ENDCHAR
STARTCHAR 0406
ENCODING 1030
SWIDTH 200 0
DWIDTH 2 0
BBX 1 7 0 0
BITMAP
80
80
80
80
80
80
80
ENDCHAR
STARTCHAR 0407
ENCODING 1031
SWIDTH 200 0
DWIDTH 2 0
BBX 3 9 -1 0
BITMAP
A0
00
40
40
40
40
40
40
40
ENDCHAR
STARTCHAR 0408
ENCODING 1032
SWIDTH 500 0
DWIDTH 5 0
BBX 4 7 0 0
BITMAP
30
10
10
10
10
90
60
ENDCHAR
STARTCHAR 0409
ENCODING 1033
SWIDTH 1100 0
DWIDTH 11 0
BBX 10 7 0 0
BITMAP
3C00
2400
2400
2780
4440
4440
8780
ENDCHAR
STARTCHAR 040A
ENCODING 1034
SWIDTH 900 0
DWIDTH 9 0
BBX 8 7 0 0
BITMAP
88
88
88
FE
89
89
8E
ENDCHAR
STARTCHAR 040B
ENCODING 1035
SWIDTH 800 0
DWIDTH 8 0
BBX 7 7 0 0
BITMAP
FC
20
3C
22
22
22
22
ENDCHAR
STARTCHAR 040C
ENCODING 1036
SWIDTH 600 0
DWIDTH 6 0
BBX 5 10 0 0
BITMAP
10
20
00
88
90
A0
E0
90
90
88
ENDCHAR
STARTCHAR 040E
ENCODING 1038
SWIDTH 700 0
DWIDTH 7 0
BBX 6 10 0 0
BITMAP
48
30
00
84
48
48
30
10
20
C0
ENDCHAR
STARTCHAR 040F
ENCODING 1039
SWIDTH 600 0
DWIDTH 6 0
BBX 5 9 0 -2
BITMAP
88
88
88
88
88
88
F8
20
20
ENDCHAR
STARTCHAR 0410
ENCODING 1040
SWIDTH 800 0
DWIDTH 8 0
BBX 7 7 0 0
BITMAP
10
28
28
44
7C
82
82
ENDCHAR
STARTCHAR 0411
ENCODING 1041
SWIDTH 600 0
DWIDTH 6 0
BBX 5 7 0 0
BITMAP
F0
80
80
F0
88
88
F0
ENDCHAR
STARTCHAR 0412
ENCODING 1042
SWIDTH 600 0
DWIDTH 6 0
BBX 5 7 0 0
BITMAP
F0
88
88
F0
88
88
F0
ENDCHAR
STARTCHAR 0413
ENCODING 1043
SWIDTH 500 0
DWIDTH 5 0
BBX 4 7 0 0
BITMAP
F0
80
80
80
80
80
80
ENDCHAR
STARTCHAR 0414
ENCODING 1044
SWIDTH 800 0
DWIDTH 8 0
BBX 7 9 0 -2
BITMAP
3C
24
24
24
44
44
FE
82
82
ENDCHAR
STARTCHAR 0415
ENCODING 1045
SWIDTH 600 0
DWIDTH 6 0
BBX 5 7 0 0
BITMAP
F8
80
80
F8
80
80
F8
ENDCHAR
STARTCHAR 0416
ENCODING 1046
SWIDTH 1000 0
DWIDTH 10 0
BBX 9 7 0 0
BITMAP
8880
4900
2A00
1C00
2A00
4900
8880
ENDCHAR
STARTCHAR 0417
ENCODING 1047
SWIDTH 600 0
DWIDTH 6 0
BBX 5 7 0 0
BITMAP
70
88
08
30
08
88
70
ENDCHAR
STARTCHAR 0418
ENCODING 1048
SWIDTH 600 0
DWIDTH 6 0
BBX 5 7 0 0
BITMAP
88
88
98
A8
A8
C8
88
ENDCHAR
STARTCHAR 0419
ENCODING 1049
SWIDTH 600 0
DWIDTH 6 0
BBX 5 10 0 0
BITMAP
50
20
00
88
88
98
A8
A8
C8
88
ENDCHAR
STARTCHAR 041A
ENCODING 1050
SWIDTH 600 0
DWIDTH 6 0
BBX 5 7 0 0
BITMAP
88
90
A0
E0
90
90
88
ENDCHAR
STARTCHAR 041B
ENCODING 1051
SWIDTH 700 0
DWIDTH 7 0
BBX 6 7 0 0
BITMAP
3C
24
24
44
44
44
84
ENDCHAR
STARTCHAR 041C
ENCODING 1052
SWIDTH 800 0
DWIDTH 8 0
BBX 7 7 0 0
BITMAP
82
C6
AA
AA
92
92
82
ENDCHAR
STARTCHAR 041D
ENCODING 1053
SWIDTH 600 0
DWIDTH 6 0
BBX 5 7 0 0
BITMAP
88
88
88
F8
88
88
88
ENDCHAR
STARTCHAR 041E
ENCODING 1054
SWIDTH 700 0
DWIDTH 7 0
BBX 6 7 0 0
BITMAP
78
84
84
84
84
84
78
ENDCHAR
STARTCHAR 041F
ENCODING 1055
SWIDTH 600 0
DWIDTH 6 0
BBX 5 7 0 0
BITMAP
F8
88
88
88
88
88
88
ENDCHAR
STARTCHAR 0420
ENCODING 1056
SWIDTH 600 0
DWIDTH 6 0
BBX 5 7 0 0
BITMAP
F0
88
88
F0
80
80
80
ENDCHAR
STARTCHAR 0421
ENCODING 1057
SWIDTH 600 0
DWIDTH 6 0
BBX 5 7 0 0
BITMAP
70
88
80
80
80
88
70
ENDCHAR
STARTCHAR 0422
ENCODING 1058
SWIDTH 600 0
DWIDTH 6 0
BBX 5 7 0 0
BITMAP
F8
20
20
20
20
20
20
ENDCHAR
STARTCHAR 0423
ENCODING 1059
SWIDTH 700 0
DWIDTH 7 0
BBX 6 7 0 0
BITMAP
84
48
48
30
10
20
C0
ENDCHAR
STARTCHAR 0424
ENCODING 1060
SWIDTH 800 0
DWIDTH 8 0
BBX 7 7 0 0
BITMAP
10
7C
92
92
92
7C
10
ENDCHAR
STARTCHAR 0425
ENCODING 1061
SWIDTH 600 0
DWIDTH 6 0
BBX 5 7 0 0
BITMAP
88
50
50
20
50
50
88
ENDCHAR
STARTCHAR 0426
ENCODING 1062
SWIDTH 700 0
DWIDTH 7 0
BBX 6 9 0 -2
BITMAP
88
88
88
88
88
88
FC
04
04
ENDCHAR
STARTCHAR 0427
ENCODING 1063
SWIDTH 600 0
DWIDTH 6 0
BBX 5 7 0 0
BITMAP
88
88
88
88
78
08
08
ENDCHAR
STARTCHAR 0428
ENCODING 1064
SWIDTH 800 0
DWIDTH 8 0
BBX 7 7 0 0
BITMAP
92
92
92
92
92
92
FE
ENDCHAR
STARTCHAR 0429
ENCODING 1065
SWIDTH 900 0
DWIDTH 9 0
BBX 8 9 0 -2
BITMAP
92
92
92
92
92
92
FF
01
01
ENDCHAR
STARTCHAR 042A
ENCODING 1066
SWIDTH 800 0
DWIDTH 8 0
BBX 7 7 0 0
BITMAP
E0
20
20
3C
22
22
3C
ENDCHAR
STARTCHAR 042B
ENCODING 1067
SWIDTH 800 0
DWIDTH 8 0
BBX 7 7 0 0
BITMAP
82
82
82
F2
8A
8A
F2
ENDCHAR
STARTCHAR 042C
ENCODING 1068
SWIDTH 600 0
DWIDTH 6 0
BBX 5 7 0 0
BITMAP
80
80
80
F0
88
88
F0
ENDCHAR
STARTCHAR 042D
ENCODING 1069
SWIDTH 600 0
DWIDTH 6 0
BBX 5 7 0 0
BITMAP
70
88
08
38
08
88
70
ENDCHAR
STARTCHAR 042E
ENCODING 1070
SWIDTH 900 0
DWIDTH 9 0
BBX 8 7 0 0
BITMAP
9E
A1
A1
E1
A1
A1
9E
ENDCHAR
STARTCHAR 042F
ENCODING 1071
SWIDTH 600 0
DWIDTH 6 0
BBX 5 7 0 0
BITMAP
78
88
88
78
28
48
88
ENDCHAR
STARTCHAR 0430
ENCODING 1072
SWIDTH 500 0
DWIDTH 5 0
BBX 4 5 0 0
BITMAP
E0
10
70
90
70
ENDCHAR
STARTCHAR 0431
ENCODING 1073
SWIDTH 500 0
DWIDTH 5 0
BBX 4 7 0 0
BITMAP
70
80
E0
90
90
90
60
ENDCHAR
STARTCHAR 0432
ENCODING 1074
SWIDTH 400 0
DWIDTH 4 0
BBX 3 5 0 0
BITMAP
C0
A0
C0
A0
C0
ENDCHAR
STARTCHAR 0433
ENCODING 1075
SWIDTH 400 0
DWIDTH 4 0
BBX 3 5 0 0
BITMAP
E0
80
80
80
80
ENDCHAR
STARTCHAR 0434
ENCODING 1076
SWIDTH 700 0
DWIDTH 7 0
BBX 6 7 0 -2
BITMAP
38
28
48
48
FC
84
84
ENDCHAR
STARTCHAR 0435
ENCODING 1077
SWIDTH 500 0
DWIDTH 5 0
BBX 4 5 0 0
BITMAP
60
90
F0
80
70
ENDCHAR
STARTCHAR 0436
ENCODING 1078
SWIDTH 600 0
DWIDTH 6 0
BBX 5 5 0 0
BITMAP
A8
A8
70
A8
A8
ENDCHAR
STARTCHAR 0437
ENCODING 1079
SWIDTH 500 0
DWIDTH 5 0
BBX 4 5 0 0
BITMAP
E0
10
60
10
E0
ENDCHAR
STARTCHAR 0438
ENCODING 1080
SWIDTH 500 0
DWIDTH 5 0
BBX 4 5 0 0
BITMAP
90
90
B0
D0
90
ENDCHAR
STARTCHAR 0439
ENCODING 1081
SWIDTH 500 0
DWIDTH 5 0
BBX 4 8 0 0
BITMAP
50
20
00
90
90
B0
D0
90
ENDCHAR
STARTCHAR 043A
ENCODING 1082
SWIDTH 500 0
DWIDTH 5 0
BBX 4 5 0 0
BITMAP
90
A0
C0
A0
90
ENDCHAR
STARTCHAR 043B
ENCODING 1083
SWIDTH 600 0
DWIDTH 6 0
BBX 5 5 0 0
BITMAP
38
28
48
48
88
ENDCHAR
STARTCHAR 043C
ENCODING 1084
SWIDTH 600 0
DWIDTH 6 0
BBX 5 5 0 0
BITMAP
88
D8
A8
A8
88
ENDCHAR
STARTCHAR 043D
ENCODING 1085
SWIDTH 500 0
DWIDTH 5 0
BBX 4 5 0 0
BITMAP
90
90
F0
90
90
ENDCHAR
STARTCHAR 043E
ENCODING 1086
SWIDTH 500 0
DWIDTH 5 0
BBX 4 5 0 0
BITMAP
60
90
90
90
60
ENDCHAR
STARTCHAR 043F
ENCODING 1087
SWIDTH 500 0
DWIDTH 5 0
BBX 4 5 0 0
BITMAP
F0
90
90
90
90
ENDCHAR
STARTCHAR 0440
ENCODING 1088
SWIDTH 500 0
DWIDTH 5 0
BBX 4 7 0 -2
BITMAP
E0
90
90
90
E0
80
80
ENDCHAR
STARTCHAR 0441
ENCODING 1089
SWIDTH 500 0
DWIDTH 5 0
BBX 4 5 0 0
BITMAP
70
80
80
80
70
ENDCHAR
STARTCHAR 0442
ENCODING 1090
SWIDTH 600 0
DWIDTH 6 0
BBX 5 5 0 0
BITMAP
F8
20
20
20
20
ENDCHAR
STARTCHAR 0443
ENCODING 1091
SWIDTH 600 0
DWIDTH 6 0
BBX 5 7 0 -2
BITMAP
88
88
50
50
20
20
C0
ENDCHAR
STARTCHAR 0444
ENCODING 1092
SWIDTH 800 0
DWIDTH 8 0
BBX 7 9 0 -2
BITMAP
10
10
7C
92
92
92
7C
10
10
ENDCHAR
STARTCHAR 0445
ENCODING 1093
SWIDTH 400 0
DWIDTH 4 0
BBX 3 5 0 0
BITMAP
A0
A0
40
A0
A0
ENDCHAR
STARTCHAR 0446
ENCODING 1094
SWIDTH 600 0
DWIDTH 6 0
BBX 5 7 0 -2
BITMAP
90
90
90
90
F8
08
08
ENDCHAR
STARTCHAR 0447
ENCODING 1095
SWIDTH 500 0
DWIDTH 5 0
BBX 4 5 0 0
BITMAP
90
90
70
10
10
ENDCHAR
STARTCHAR 0448
ENCODING 1096
SWIDTH 600 0
DWIDTH 6 0
BBX 5 5 0 0
BITMAP
A8
A8
A8
A8
F8
ENDCHAR
STARTCHAR 0449
ENCODING 1097
SWIDTH 700 0
DWIDTH 7 0
BBX 6 7 0 -2
BITMAP
A8
A8
A8
A8
FC
04
04
ENDCHAR
STARTCHAR 044A
ENCODING 1098
SWIDTH 500 0
DWIDTH 5 0
BBX 4 5 0 0
BITMAP
C0
40
60
50
60
ENDCHAR
STARTCHAR 044B
ENCODING 1099
SWIDTH 600 0
DWIDTH 6 0
BBX 5 5 0 0
BITMAP
88
88
E8
98
E8
ENDCHAR
STARTCHAR 044C
ENCODING 1100
SWIDTH 500 0
DWIDTH 5 0
BBX 4 5 0 0
BITMAP
80
80
E0
90
E0
ENDCHAR
STARTCHAR 044D
ENCODING 1101
SWIDTH 500 0
DWIDTH 5 0
BBX 4 5 0 0
BITMAP
E0
10
F0
10
E0
ENDCHAR
STARTCHAR 044E
ENCODING 1102
SWIDTH 700 0
DWIDTH 7 0
BBX 6 5 0 0
BITMAP
98
A4
E4
A4
98
ENDCHAR
STARTCHAR 044F
ENCODING 1103
SWIDTH 500 0
DWIDTH 5 0
BBX 4 5 0 0
BITMAP
70
90
70
50
90
ENDCHAR
STARTCHAR 0451
ENCODING 1105
SWIDTH 500 0
DWIDTH 5 0
BBX 4 7 0 0
BITMAP
50
00
60
90
F0
80
70
ENDCHAR
STARTCHAR 0452
ENCODING 1106
SWIDTH 600 0
DWIDTH 6 0
BBX 5 9 0 -2
BITMAP
40
E0
40
70
48
48
48
08
10
ENDCHAR
STARTCHAR 0453
ENCODING 1107
SWIDTH 400 0
DWIDTH 4 0
BBX 3 8 0 0
BITMAP
20
40
00
E0
80
80
80
80
ENDCHAR
STARTCHAR 0454
ENCODING 1108
SWIDTH 500 0
DWIDTH 5 0
BBX 4 5 0 0
BITMAP
70
80
E0
80
70
ENDCHAR
STARTCHAR 0455
ENCODING 1109
SWIDTH 400 0
DWIDTH 4 0
BBX 3 5 0 0
BITMAP
60
80
40
20
C0
ENDCHAR
STARTCHAR 0456
ENCODING 1110
SWIDTH 200 0
DWIDTH 2 0
BBX 1 7 0 0
BITMAP
80
00
80
80
80
80
80
ENDCHAR
STARTCHAR 0457
ENCODING 1111
SWIDTH 200 0
DWIDTH 2 0
BBX 3 7 -1 0
BITMAP
A0
00
40
40
40
40
40
ENDCHAR
STARTCHAR 0458
ENCODING 1112
SWIDTH 200 0
DWIDTH 2 0
BBX 2 9 -1 -2
BITMAP
40
00
40
40
40
40
40
40
80
ENDCHAR
STARTCHAR 0459
ENCODING 1113
SWIDTH 800 0
DWIDTH 8 0
BBX 7 5 0 0
BITMAP
70
50
5C
52
9C
ENDCHAR
STARTCHAR 045A
ENCODING 1114
SWIDTH 700 0
DWIDTH 7 0
BBX 6 5 0 0
BITMAP
A0
A0
F8
A4
B8
ENDCHAR
STARTCHAR 045B
ENCODING 1115
SWIDTH 600 0
DWIDTH 6 0
BBX 5 7 0 0
BITMAP
40
E0
40
70
48
48
48
ENDCHAR
STARTCHAR 045C
ENCODING 1116
SWIDTH 500 0
DWIDTH 5 0
BBX 4 8 0 0
BITMAP
10
20
00
90
A0
C0
A0
90
ENDCHAR
STARTCHAR 045E
ENCODING 1118
SWIDTH 600 0
DWIDTH 6 0
BBX 5 10 0 -2
BITMAP
48
30
00
88
88
50
50
20
20
C0
ENDCHAR
STARTCHAR 045F
ENCODING 1119
SWIDTH 500 0
DWIDTH 5 0
BBX 4 7 0 -2
BITMAP
90
90
90
90
F0
20
20
ENDCHAR
STARTCHAR 0490
ENCODING 1168
SWIDTH 500 0
DWIDTH 5 0
BBX 4 9 0 0
BITMAP
10
10
F0
80
80
80
80
80
80
ENDCHAR
STARTCHAR 0491
ENCODING 1169
SWIDTH 400 0
DWIDTH 4 0
BBX 3 7 0 0
BITMAP
20
20
E0
80
80
80
80
ENDCHAR
STARTCHAR 1E80
ENCODING 7808
SWIDTH 1000 0
DWIDTH 10 0
BBX 9 10 0 0
BITMAP
1000
0800
0000
8880
8880
5500
5500
5500
2200
2200
ENDCHAR
STARTCHAR 1E81
ENCODING 7809
SWIDTH 600 0
DWIDTH 6 0
BBX 5 8 0 0
BITMAP
40
20
00
A8
A8
A8
50
50
ENDCHAR
STARTCHAR 1E82
ENCODING 7810
SWIDTH 1000 0
DWIDTH 10 0
BBX 9 10 0 0
BITMAP
0400
0800
0000
8880
8880
5500
5500
5500
2200
2200
ENDCHAR
STARTCHAR 1E83
ENCODING 7811
SWIDTH 600 0
DWIDTH 6 0
BBX 5 8 0 0
BITMAP
10
20
00
A8
A8
A8
50
50
ENDCHAR
STARTCHAR 1E84
ENCODING 7812
SWIDTH 1000 0
DWIDTH 10 0
BBX 9 9 0 0
BITMAP
1400
0000
8880
8880
5500
5500
5500
2200
2200
ENDCHAR
STARTCHAR 1E85
ENCODING 7813
SWIDTH 600 0
DWIDTH 6 0
BBX 5 7 0 0
BITMAP
50
00
A8
A8
A8
50
50
ENDCHAR
STARTCHAR 1EF2
ENCODING 7922
SWIDTH 800 0
DWIDTH 8 0
BBX 7 10 0 0
BITMAP
20
10
00
82
44
28
10
10
10
10
ENDCHAR
STARTCHAR 1EF3
ENCODING 7923
SWIDTH 600 0
DWIDTH 6 0
BBX 5 10 0 -2
BITMAP
40
20
00
88
88
50
50
20
20
C0
ENDCHAR
STARTCHAR 2013
ENCODING 8211
SWIDTH 700 0
DWIDTH 7 0
BBX 6 1 0 2
BITMAP
FC
ENDCHAR
STARTCHAR 2014
ENCODING 8212
SWIDTH 1100 0
DWIDTH 11 0
BBX 10 1 0 2
BITMAP
FFC0
ENDCHAR
STARTCHAR 2015
ENCODING 8213
SWIDTH 1000 0
DWIDTH 10 0
BBX 10 1 0 2
BITMAP
FFC0
ENDCHAR
STARTCHAR 2017
ENCODING 8215
SWIDTH 600 0
DWIDTH 6 0
BBX 6 2 0 -2
BITMAP
FC
FC
ENDCHAR
STARTCHAR 2018
ENCODING 8216
SWIDTH 200 0
DWIDTH 2 0
BBX 1 2 0 5
BITMAP
80
80
ENDCHAR
STARTCHAR 2019
ENCODING 8217
SWIDTH 200 0
DWIDTH 2 0
BBX 1 2 0 5
BITMAP
80
80
ENDCHAR
STARTCHAR 201A
ENCODING 8218
SWIDTH 200 0
DWIDTH 2 0
BBX 1 2 0 -1
BITMAP
80
80
ENDCHAR
STARTCHAR 201B
ENCODING 8219
SWIDTH 200 0
DWIDTH 2 0
BBX 1 2 0 5
BITMAP
80
80
ENDCHAR
STARTCHAR 201C
ENCODING 8220
SWIDTH 400 0
DWIDTH 4 0
BBX 3 2 0 5
BITMAP
A0
A0
ENDCHAR
STARTCHAR 201D
ENCODING 8221
SWIDTH 400 0
DWIDTH 4 0
BBX 3 2 0 5
BITMAP
A0
A0
ENDCHAR
STARTCHAR 201E
ENCODING 8222
SWIDTH 400 0
DWIDTH 4 0
BBX 3 2 0 -1
BITMAP
A0
A0
ENDCHAR
STARTCHAR 2020
ENCODING 8224
SWIDTH 600 0
DWIDTH 6 0
BBX 5 8 0 -1
BITMAP
20
20
F8
20
20
20
20
20
ENDCHAR
STARTCHAR 2021
ENCODING 8225
SWIDTH 600 0
DWIDTH 6 0
BBX 5 8 0 -1
BITMAP
20
20
F8
20
20
F8
20
20
ENDCHAR
STARTCHAR 2022
ENCODING 8226
SWIDTH 400 0
DWIDTH 4 0
BBX 3 3 0 2
BITMAP
40
E0
40
ENDCHAR
STARTCHAR 2026
ENCODING 8230
SWIDTH 700 0
DWIDTH 7 0
BBX 5 1 1 0
BITMAP
A8
ENDCHAR
STARTCHAR 2030
ENCODING 8240
SWIDTH 1000 0
DWIDTH 10 0
BBX 9 7 0 0
BITMAP
4800
A800
B000
6900
3680
5680
4900
ENDCHAR
STARTCHAR 2032
ENCODING 8242
SWIDTH 300 0
DWIDTH 3 0
BBX 2 3 0 4
BITMAP
40
40
80
ENDCHAR
STARTCHAR 2033
ENCODING 8243
SWIDTH 500 0
DWIDTH 5 0
BBX 4 3 0 4
BITMAP
50
50
A0
ENDCHAR
STARTCHAR 2039
ENCODING 8249
SWIDTH 400 0
DWIDTH 4 0
BBX 3 5 0 0
BITMAP
20
40
80
40
20
ENDCHAR
STARTCHAR 203A
ENCODING 8250
SWIDTH 400 0
DWIDTH 4 0
BBX 3 5 0 0
BITMAP
80
40
20
40
80
ENDCHAR
STARTCHAR 203C
ENCODING 8252
SWIDTH 400 0
DWIDTH 4 0
BBX 3 7 0 0
BITMAP
A0
A0
A0
A0
A0
00
A0
ENDCHAR
STARTCHAR 203E
ENCODING 8254
SWIDTH 300 0
DWIDTH 3 0
BBX 4 1 0 7
BITMAP
F0
ENDCHAR
STARTCHAR 2044
ENCODING 8260
SWIDTH 800 0
DWIDTH 8 0
BBX 7 7 0 0
BITMAP
02
04
08
10
20
40
80
ENDCHAR
STARTCHAR 207F
ENCODING 8319
SWIDTH 400 0
DWIDTH 4 0
BBX 3 4 0 3
BITMAP
C0
A0
A0
A0
ENDCHAR
STARTCHAR 20A3
ENCODING 8355
SWIDTH 600 0
DWIDTH 6 0
BBX 5 7 0 0
BITMAP
78
40
40
78
40
F0
40
ENDCHAR
STARTCHAR 20A4
ENCODING 8356
SWIDTH 600 0
DWIDTH 6 0
BBX 5 7 0 0
BITMAP
38
40
F0
40
F0
40
F8
ENDCHAR
STARTCHAR 20A7
ENCODING 8359
SWIDTH 1100 0
DWIDTH 11 0
BBX 10 7 0 0
BITMAP
E000
9400
9EC0
E500
8480
8440
8380
ENDCHAR
STARTCHAR 20AC
ENCODING 8364
SWIDTH 600 0
DWIDTH 6 0
BBX 5 7 0 0
BITMAP
38
40
F0
40
F0
40
38
ENDCHAR
STARTCHAR 2105
ENCODING 8453
SWIDTH 800 0
DWIDTH 8 0
BBX 7 7 0 0
BITMAP
64
88
88
74
2A
2A
44
ENDCHAR
STARTCHAR 2113
ENCODING 8467
SWIDTH 400 0
DWIDTH 4 0
BBX 4 7 -1 0
BITMAP
20
50
50
60
C0
40
30
ENDCHAR
STARTCHAR 2116
ENCODING 8470
SWIDTH 1000 0
DWIDTH 10 0
BBX 9 7 0 0
BITMAP
8800
C800
A900
AA80
9900
8800
8B80
ENDCHAR
STARTCHAR 2122
ENCODING 8482
SWIDTH 1000 0
DWIDTH 10 0
BBX 9 4 0 3
BITMAP
E880
4D80
4A80
4880
ENDCHAR
STARTCHAR 2126
ENCODING 8486
SWIDTH 700 0
DWIDTH 7 0
BBX 6 7 0 0
BITMAP
78
84
84
84
84
48
CC
ENDCHAR
STARTCHAR 212E
ENCODING 8494
SWIDTH 600 0
DWIDTH 6 0
BBX 5 5 0 0
BITMAP
70
88
F8
80
70
ENDCHAR
STARTCHAR 215B
ENCODING 8539
SWIDTH 1000 0
DWIDTH 10 0
BBX 9 7 0 0
BITMAP
C400
4400
4900
EA80
0900
1280
1100
ENDCHAR
STARTCHAR 215C
ENCODING 8540
SWIDTH 1000 0
DWIDTH 10 0
BBX 9 7 0 0
BITMAP
C400
2400
4900
2A80
C900
1280
1100
ENDCHAR
STARTCHAR 215D
ENCODING 8541
SWIDTH 1000 0
DWIDTH 10 0
BBX 9 7 0 0
BITMAP
C400
8400
C900
2A80
C900
1280
1100
ENDCHAR
STARTCHAR 215E
ENCODING 8542
SWIDTH 1000 0
DWIDTH 10 0
BBX 9 7 0 0
BITMAP
E400
2400
4900
4A80
4900
1280
1100
ENDCHAR
STARTCHAR 2190
ENCODING 8592
SWIDTH 700 0
DWIDTH 7 0
BBX 6 3 0 0
BITMAP
40
FC
40
ENDCHAR
STARTCHAR 2191
ENCODING 8593
SWIDTH 400 0
DWIDTH 4 0
BBX 3 6 0 0
BITMAP
40
E0
40
40
40
40
ENDCHAR
STARTCHAR 2192
ENCODING 8594
SWIDTH 700 0
DWIDTH 7 0
BBX 6 3 0 0
BITMAP
08
FC
08
ENDCHAR
STARTCHAR 2193
ENCODING 8595
SWIDTH 400 0
DWIDTH 4 0
BBX 3 6 0 0
BITMAP
40
40
40
40
E0
40
ENDCHAR
STARTCHAR 2194
ENCODING 8596
SWIDTH 700 0
DWIDTH 7 0
BBX 6 3 0 0
BITMAP
48
FC
48
ENDCHAR
STARTCHAR 2195
ENCODING 8597
SWIDTH 400 0
DWIDTH 4 0
BBX 3 6 0 0
BITMAP
40
E0
40
40
E0
40
ENDCHAR
STARTCHAR 21A8
ENCODING 8616
SWIDTH 400 0
DWIDTH 4 0
BBX 3 8 0 -2
BITMAP
40
E0
40
40
E0
40
00
E0
ENDCHAR
STARTCHAR 2202
ENCODING 8706
SWIDTH 400 0
DWIDTH 4 0
BBX 3 7 0 0
BITMAP
C0
20
60
A0
A0
A0
40
ENDCHAR
STARTCHAR 2206
ENCODING 8710
SWIDTH 800 0
DWIDTH 8 0
BBX 7 7 0 0
BITMAP
10
28
28
44
44
82
FE
ENDCHAR
STARTCHAR 220F
ENCODING 8719
SWIDTH 700 0
DWIDTH 7 0
BBX 6 9 0 -2
BITMAP
FC
84
84
84
84
84
84
84
84
ENDCHAR
STARTCHAR 2211
ENCODING 8721
SWIDTH 600 0
DWIDTH 6 0
BBX 5 9 0 -2
BITMAP
F8
80
40
20
10
20
40
80
F8
ENDCHAR
STARTCHAR 2212
ENCODING 8722
SWIDTH 600 0
DWIDTH 6 0
BBX 5 1 0 3
BITMAP
F8
ENDCHAR
STARTCHAR 2215
ENCODING 8725
SWIDTH 800 0
DWIDTH 8 0
BBX 7 7 0 0
BITMAP
02
04
08
10
20
40
80
ENDCHAR
STARTCHAR 2219
ENCODING 8729
SWIDTH 200 0
DWIDTH 2 0
BBX 1 1 0 3
BITMAP
80
ENDCHAR
STARTCHAR 221A
ENCODING 8730
SWIDTH 600 0
DWIDTH 6 0
BBX 5 8 0 0
BITMAP
08
08
08
90
50
50
20
20
ENDCHAR
STARTCHAR 221E
ENCODING 8734
SWIDTH 800 0
DWIDTH 8 0
BBX 7 4 0 0
BITMAP
6C
92
92
6C
ENDCHAR
STARTCHAR 221F
ENCODING 8735
SWIDTH 800 0
DWIDTH 8 0
BBX 7 7 0 0
BITMAP
80
80
80
80
80
80
FE
ENDCHAR
STARTCHAR 2229
ENCODING 8745
SWIDTH 600 0
DWIDTH 6 0
BBX 5 5 0 0
BITMAP
70
88
88
88
88
ENDCHAR
STARTCHAR 222A
ENCODING 8746
SWIDTH 600 0
DWIDTH 6 0
BBX 5 5 0 0
BITMAP
88
88
88
88
70
ENDCHAR
STARTCHAR 222B
ENCODING 8747
SWIDTH 200 0
DWIDTH 2 0
BBX 3 9 -1 -2
BITMAP
20
40
40
40
40
40
40
40
80
ENDCHAR
STARTCHAR 2248
ENCODING 8776
SWIDTH 500 0
DWIDTH 5 0
BBX 4 4 0 1
BITMAP
50
A0
50
A0
ENDCHAR
STARTCHAR 2260
ENCODING 8800
SWIDTH 600 0
DWIDTH 6 0
BBX 5 5 0 0
BITMAP
10
F8
20
F8
40
ENDCHAR
STARTCHAR 2261
ENCODING 8801
SWIDTH 600 0
DWIDTH 6 0
BBX 5 5 0 1
BITMAP
F8
00
F8
00
F8
ENDCHAR
STARTCHAR 2264
ENCODING 8804
SWIDTH 600 0
DWIDTH 6 0
BBX 5 7 0 -1
BITMAP
18
60
80
60
18
00
F8
ENDCHAR
STARTCHAR 2265
ENCODING 8805
SWIDTH 600 0
DWIDTH 6 0
BBX 5 7 0 -1
BITMAP
C0
30
08
30
C0
00
F8
ENDCHAR
STARTCHAR 2302
ENCODING 8962
SWIDTH 600 0
DWIDTH 6 0
BBX 5 6 0 0
BITMAP
20
50
88
88
88
F8
ENDCHAR
STARTCHAR 2310
ENCODING 8976
SWIDTH 600 0
DWIDTH 6 0
BBX 5 3 0 1
BITMAP
F8
80
80
ENDCHAR
STARTCHAR 2320
ENCODING 8992
SWIDTH 200 0
DWIDTH 2 0
BBX 2 11 0 -3
BITMAP
40
80
80
80
80
80
80
80
80
80
80
ENDCHAR
STARTCHAR 2321
ENCODING 8993
SWIDTH 200 0
DWIDTH 2 0
BBX 2 11 -1 -3
BITMAP
40
40
40
40
40
40
40
40
40
40
80
ENDCHAR
STARTCHAR 25A0
ENCODING 9632
SWIDTH 800 0
DWIDTH 8 0
BBX 7 7 0 0
BITMAP
FE
FE
FE
FE
FE
FE
FE
ENDCHAR
STARTCHAR 25A1
ENCODING 9633
SWIDTH 800 0
DWIDTH 8 0
BBX 7 7 0 0
BITMAP
FE
82
82
82
82
82
FE
ENDCHAR
STARTCHAR 25AA
ENCODING 9642
SWIDTH 400 0
DWIDTH 4 0
BBX 3 3 0 2
BITMAP
E0
E0
E0
ENDCHAR
STARTCHAR 25AB
ENCODING 9643
SWIDTH 400 0
DWIDTH 4 0
BBX 3 3 0 2
BITMAP
E0
A0
E0
ENDCHAR
STARTCHAR 25AC
ENCODING 9644
SWIDTH 1100 0
DWIDTH 11 0
BBX 10 3 0 1
BITMAP
FFC0
FFC0
FFC0
ENDCHAR
STARTCHAR 25B2
ENCODING 9650
SWIDTH 800 0
DWIDTH 8 0
BBX 7 7 0 0
BITMAP
10
10
38
38
7C
7C
FE
ENDCHAR
STARTCHAR 25B6
ENCODING 9654
SWIDTH 800 0
DWIDTH 8 0
BBX 7 7 0 0
BITMAP
80
E0
F8
FE
F8
E0
80
ENDCHAR
STARTCHAR 25BC
ENCODING 9660
SWIDTH 800 0
DWIDTH 8 0
BBX 7 7 0 0
BITMAP
FE
7C
7C
38
38
10
10
ENDCHAR
STARTCHAR 25C0
ENCODING 9664
SWIDTH 800 0
DWIDTH 8 0
BBX 7 7 0 0
BITMAP
02
0E
3E
FE
3E
0E
02
ENDCHAR
STARTCHAR 25CA
ENCODING 9674
SWIDTH 400 0
DWIDTH 4 0
BBX 3 7 0 0
BITMAP
40
40
A0
A0
A0
40
40
ENDCHAR
STARTCHAR 25CB
ENCODING 9675
SWIDTH 500 0
DWIDTH 5 0
BBX 4 4 0 1
BITMAP
60
90
90
60
ENDCHAR
STARTCHAR 25CF
ENCODING 9679
SWIDTH 500 0
DWIDTH 5 0
BBX 4 4 0 1
BITMAP
60
F0
F0
60
ENDCHAR
STARTCHAR 25D8
ENCODING 9688
SWIDTH 600 0
DWIDTH 6 0
BBX 6 6 0 0
BITMAP
FC
CC
84
84
CC
FC
ENDCHAR
STARTCHAR 25D9
ENCODING 9689
SWIDTH 600 0
DWIDTH 6 0
BBX 6 6 0 0
BITMAP
FC
CC
B4
B4
CC
FC
ENDCHAR
STARTCHAR 25E6
ENCODING 9702
SWIDTH 400 0
DWIDTH 4 0
BBX 3 3 0 2
BITMAP
40
A0
40
ENDCHAR
STARTCHAR 2605
ENCODING 9733
SWIDTH 600 0
DWIDTH 6 0
BBX 5 6 0 1
BITMAP
20
20
F8
70
50
88
ENDCHAR
STARTCHAR 2606
ENCODING 9734
SWIDTH 600 0
DWIDTH 6 0
BBX 5 6 0 1
BITMAP
20
20
F8
50
70
88
ENDCHAR
STARTCHAR 263A
ENCODING 9786
SWIDTH 800 0
DWIDTH 8 0
BBX 7 8 0 -1
BITMAP
38
44
AA
82
AA
92
44
38
ENDCHAR
STARTCHAR 263B
ENCODING 9787
SWIDTH 800 0
DWIDTH 8 0
BBX 7 8 0 -1
BITMAP
38
7C
D6
FE
D6
EE
7C
38
ENDCHAR
STARTCHAR 263C
ENCODING 9788
SWIDTH 600 0
DWIDTH 6 0
BBX 5 5 0 0
BITMAP
20
70
D8
70
20
ENDCHAR
STARTCHAR 2640
ENCODING 9792
SWIDTH 600 0
DWIDTH 6 0
BBX 5 8 0 -1
BITMAP
70
88
88
88
70
20
70
20
ENDCHAR
STARTCHAR 2642
ENCODING 9794
SWIDTH 800 0
DWIDTH 8 0
BBX 7 7 0 0
BITMAP
0E
06
7A
88
88
88
70
ENDCHAR
STARTCHAR 2660
ENCODING 9824
SWIDTH 600 0
DWIDTH 6 0
BBX 5 6 0 0
BITMAP
20
70
F8
F8
20
70
ENDCHAR
STARTCHAR 2663
ENCODING 9827
SWIDTH 800 0
DWIDTH 8 0
BBX 7 6 0 0
BITMAP
10
38
54
FE
54
38
ENDCHAR
STARTCHAR 2665
ENCODING 9829
SWIDTH 600 0
DWIDTH 6 0
BBX 5 7 0 -1
BITMAP
50
F8
F8
F8
70
20
20
ENDCHAR
STARTCHAR 2666
ENCODING 9830
SWIDTH 600 0
DWIDTH 6 0
BBX 5 7 0 -1
BITMAP
20
20
70
F8
70
20
20
ENDCHAR
STARTCHAR 266A
ENCODING 9834
SWIDTH 600 0
DWIDTH 6 0
BBX 5 6 0 0
BITMAP
30
28
20
60
E0
40
ENDCHAR
STARTCHAR 266B
ENCODING 9835
SWIDTH 600 0
DWIDTH 6 0
BBX 5 7 0 0
BITMAP
60
50
48
48
C8
D8
18
ENDCHAR
STARTCHAR 3000
ENCODING 12288
SWIDTH 960 0
DWIDTH 10 0
BBX 0 0 0 0
BITMAP
ENDCHAR
STARTCHAR 3001
ENCODING 12289
SWIDTH 960 0
DWIDTH 10 0
BBX 3 3 1 -1
BITMAP
C0
20
20
ENDCHAR
STARTCHAR 3002
ENCODING 12290
SWIDTH 960 0
DWIDTH 10 0
BBX 4 4 1 -1
BITMAP
60
90
90
60
ENDCHAR
STARTCHAR 3003
ENCODING 12291
SWIDTH 960 0
DWIDTH 10 0
BBX 5 5 3 1
BITMAP
48
48
48
90
90
ENDCHAR
STARTCHAR 3005
ENCODING 12293
SWIDTH 960 0
DWIDTH 10 0
BBX 6 6 2 0
BITMAP
38
44
44
88
30
08
ENDCHAR
STARTCHAR 3006
ENCODING 12294
SWIDTH 960 0
DWIDTH 10 0
BBX 8 8 1 -1
BITMAP
01
02
74
88
94
A2
C0
80
ENDCHAR
STARTCHAR 3007
ENCODING 12295
SWIDTH 960 0
DWIDTH 10 0
BBX 9 7 1 0
BITMAP
1C00
6300
8080
8080
8080
6300
1C00
ENDCHAR
STARTCHAR 3008
ENCODING 12296
SWIDTH 960 0
DWIDTH 10 0
BBX 3 9 6 -1
BITMAP
20
20
40
40
80
40
40
20
20
ENDCHAR
STARTCHAR 3009
ENCODING 12297
SWIDTH 960 0
DWIDTH 10 0
BBX 3 9 2 -1
BITMAP
80
80
40
40
20
40
40
80
80
ENDCHAR
STARTCHAR 300A
ENCODING 12298
SWIDTH 960 0
DWIDTH 10 0
BBX 5 9 5 -1
BITMAP
28
28
50
50
A0
50
50
28
28
ENDCHAR
STARTCHAR 300B
ENCODING 12299
SWIDTH 960 0
DWIDTH 10 0
BBX 5 9 2 -1
BITMAP
A0
A0
50
50
28
50
50
A0
A0
ENDCHAR
STARTCHAR 300C
ENCODING 12300
SWIDTH 960 0
DWIDTH 10 0
BBX 4 7 6 1
BITMAP
70
80
80
80
80
80
80
ENDCHAR
STARTCHAR 300D
ENCODING 12301
SWIDTH 960 0
DWIDTH 10 0
BBX 4 7 1 -1
BITMAP
10
10
10
10
10
10
E0
ENDCHAR
STARTCHAR 300E
ENCODING 12302
SWIDTH 960 0
DWIDTH 10 0
BBX 5 8 5 0
BITMAP
70
88
B0
A0
A0
A0
A0
40
ENDCHAR
STARTCHAR 300F
ENCODING 12303
SWIDTH 960 0
DWIDTH 10 0
BBX 5 8 1 -1
BITMAP
10
28
28
28
28
68
88
70
ENDCHAR
STARTCHAR 3010
ENCODING 12304
SWIDTH 960 0
DWIDTH 10 0
BBX 4 9 6 -1
BITMAP
F0
E0
C0
80
80
80
C0
E0
F0
ENDCHAR
STARTCHAR 3011
ENCODING 12305
SWIDTH 960 0
DWIDTH 10 0
BBX 4 9 1 -1
BITMAP
F0
70
30
10
10
10
30
70
F0
ENDCHAR
STARTCHAR 3012
ENCODING 12306
SWIDTH 960 0
DWIDTH 10 0
BBX 7 7 2 0
BITMAP
FE
00
FE
10
10
10
10
ENDCHAR
STARTCHAR 3013
ENCODING 12307
SWIDTH 960 0
DWIDTH 10 0
BBX 8 6 1 0
BITMAP
FF
FF
00
00
FF
FF
ENDCHAR
STARTCHAR 3014
ENCODING 12308
SWIDTH 960 0
DWIDTH 10 0
BBX 4 9 5 -1
BITMAP
30
C0
80
80
80
80
80
C0
30
ENDCHAR
STARTCHAR 3015
ENCODING 12309
SWIDTH 960 0
DWIDTH 10 0
BBX 4 9 2 -1
BITMAP
C0
30
10
10
10
10
10
30
C0
ENDCHAR
STARTCHAR 301C
ENCODING 12316
SWIDTH 960 0
DWIDTH 10 0
BBX 9 3 1 2
BITMAP
7080
8880
8700
ENDCHAR
STARTCHAR 3041
ENCODING 12353
SWIDTH 960 0
DWIDTH 10 0
BBX 7 7 1 -1
BITMAP
20
F8
20
7A
AC
B2
62
ENDCHAR
STARTCHAR 3042
ENCODING 12354
SWIDTH 960 0
DWIDTH 10 0
BBX 8 9 1 -1
BITMAP
20
FE
20
3D
62
A5
A9
91
62
ENDCHAR
STARTCHAR 3043
ENCODING 12355
SWIDTH 960 0
DWIDTH 10 0
BBX 6 5 2 -1
BITMAP
88
84
80
88
70
ENDCHAR
STARTCHAR 3044
ENCODING 12356
SWIDTH 960 0
DWIDTH 10 0
BBX 8 8 1 -1
BITMAP
80
82
81
81
81
81
88
70
ENDCHAR
STARTCHAR 3045
ENCODING 12357
SWIDTH 960 0
DWIDTH 10 0
BBX 6 7 2 -1
BITMAP
20
10
F8
14
04
08
30
ENDCHAR
STARTCHAR 3046
ENCODING 12358
SWIDTH 960 0
DWIDTH 10 0
BBX 8 9 1 -1
BITMAP
10
08
3C
CA
09
01
01
02
1C
ENDCHAR
STARTCHAR 3047
ENCODING 12359
SWIDTH 960 0
DWIDTH 10 0
BBX 7 7 2 -1
BITMAP
20
10
F8
14
08
32
CC
ENDCHAR
STARTCHAR 3048
ENCODING 12360
SWIDTH 960 0
DWIDTH 10 0
BBX 8 9 1 -1
BITMAP
10
08
3E
C9
02
0C
10
29
C6
ENDCHAR
STARTCHAR 3049
ENCODING 12361
SWIDTH 960 0
DWIDTH 10 0
BBX 8 7 1 -1
BITMAP
10
F8
10
3D
52
96
62
ENDCHAR
STARTCHAR 304A
ENCODING 12362
SWIDTH 960 0
DWIDTH 10 0
BBX 8 9 1 -1
BITMAP
10
FC
10
3D
52
95
91
91
62
ENDCHAR
STARTCHAR 304B
ENCODING 12363
SWIDTH 960 0
DWIDTH 10 0
BBX 9 9 1 -1
BITMAP
1000
1000
F800
2400
2200
4F80
4200
8200
8400
ENDCHAR
STARTCHAR 304C
ENCODING 12364
SWIDTH 960 0
DWIDTH 10 0
BBX 9 9 1 -1
BITMAP
1280
1280
F800
2400
2200
4F80
4200
8200
8400
ENDCHAR
STARTCHAR 304D
ENCODING 12365
SWIDTH 960 0
DWIDTH 10 0
BBX 8 9 1 -1
BITMAP
04
FF
04
FF
04
7C
84
81
7E
ENDCHAR
STARTCHAR 304E
ENCODING 12366
SWIDTH 960 0
DWIDTH 10 0
BBX 9 9 1 -1
BITMAP
0A80
FE80
0400
FF00
0400
7C00
8400
8100
7E00
ENDCHAR
STARTCHAR 304F
ENCODING 12367
SWIDTH 960 0
DWIDTH 10 0
BBX 5 9 3 -1
BITMAP
18
20
40
80
80
80
40
20
18
ENDCHAR
STARTCHAR 3050
ENCODING 12368
SWIDTH 960 0
DWIDTH 10 0
BBX 8 9 2 -1
BITMAP
18
20
45
85
80
80
40
20
18
ENDCHAR
STARTCHAR 3051
ENCODING 12369
SWIDTH 960 0
DWIDTH 10 0
BBX 8 9 1 -1
BITMAP
02
82
BF
82
82
82
82
22
1C
ENDCHAR
STARTCHAR 3052
ENCODING 12370
SWIDTH 960 0
DWIDTH 10 0
BBX 9 9 1 -1
BITMAP
0280
8280
BD00
8200
8200
8200
8200
2200
1C00
ENDCHAR
STARTCHAR 3053
ENCODING 12371
SWIDTH 960 0
DWIDTH 10 0
BBX 8 8 1 -1
BITMAP
7C
02
02
04
40
80
81
7E
ENDCHAR
STARTCHAR 3054
ENCODING 12372
SWIDTH 960 0
DWIDTH 10 0
BBX 9 9 1 -1
BITMAP
0280
7C80
0200
0200
0400
4000
8000
8100
7E00
ENDCHAR
STARTCHAR 3055
ENCODING 12373
SWIDTH 960 0
DWIDTH 10 0
BBX 8 9 1 -1
BITMAP
04
FF
04
3C
44
80
80
41
3E
ENDCHAR
STARTCHAR 3056
ENCODING 12374
SWIDTH 960 0
DWIDTH 10 0
BBX 9 9 1 -1
BITMAP
0A80
FA80
0400
3C00
4400
8000
8000
4100
3E00
ENDCHAR
STARTCHAR 3057
ENCODING 12375
SWIDTH 960 0
DWIDTH 10 0
BBX 7 8 2 -1
BITMAP
80
80
80
82
82
82
44
38
ENDCHAR
STARTCHAR 3058
ENCODING 12376
SWIDTH 960 0
DWIDTH 10 0
BBX 8 9 2 -1
BITMAP
05
85
80
80
82
82
82
44
38
ENDCHAR
STARTCHAR 3059
ENCODING 12377
SWIDTH 960 0
DWIDTH 10 0
BBX 9 9 1 -1
BITMAP
0400
FF80
0400
1C00
2200
2200
1C00
0400
0800
ENDCHAR
STARTCHAR 305A
ENCODING 12378
SWIDTH 960 0
DWIDTH 10 0
BBX 9 9 1 -1
BITMAP
0280
FA80
0400
1C00
2200
2200
1C00
0400
0800
ENDCHAR
STARTCHAR 305B
ENCODING 12379
SWIDTH 960 0
DWIDTH 10 0
BBX 8 9 1 -1
BITMAP
42
42
FF
42
52
4C
40
21
1E
ENDCHAR
STARTCHAR 305C
ENCODING 12380
SWIDTH 960 0
DWIDTH 10 0
BBX 9 9 1 -1
BITMAP
4280
4280
FD00
4200
5200
4C00
4000
2100
1E00
ENDCHAR
STARTCHAR 305D
ENCODING 12381
SWIDTH 960 0
DWIDTH 10 0
BBX 8 9 1 -1
BITMAP
78
04
08
FF
20
40
40
21
1E
ENDCHAR
STARTCHAR 305E
ENCODING 12382
SWIDTH 960 0
DWIDTH 10 0
BBX 9 9 1 -1
BITMAP
7A80
0680
0800
FF00
2000
4000
4000
2100
1E00
ENDCHAR
STARTCHAR 305F
ENCODING 12383
SWIDTH 960 0
DWIDTH 10 0
BBX 9 9 1 -1
BITMAP
2000
F000
2F00
4080
4100
8800
9000
1000
0F80
ENDCHAR
STARTCHAR 3060
ENCODING 12384
SWIDTH 960 0
DWIDTH 10 0
BBX 9 9 1 -1
BITMAP
2280
F280
2F00
4080
4100
8800
9000
1000
0F80
ENDCHAR
STARTCHAR 3061
ENCODING 12385
SWIDTH 960 0
DWIDTH 10 0
BBX 8 9 1 -1
BITMAP
20
FF
20
3C
22
01
01
42
3C
ENDCHAR
STARTCHAR 3062
ENCODING 12386
SWIDTH 960 0
DWIDTH 10 0
BBX 9 9 1 -1
BITMAP
2280
FA80
2000
3C00
2200
0100
0100
4200
3C00
ENDCHAR
STARTCHAR 3063
ENCODING 12387
SWIDTH 960 0
DWIDTH 10 0
BBX 7 6 2 -1
BITMAP
F8
04
02
02
04
18
ENDCHAR
STARTCHAR 3064
ENCODING 12388
SWIDTH 960 0
DWIDTH 10 0
BBX 8 8 1 -1
BITMAP
FC
02
01
01
01
01
02
0C
ENDCHAR
STARTCHAR 3065
ENCODING 12389
SWIDTH 960 0
DWIDTH 10 0
BBX 9 9 1 -1
BITMAP
0280
FE80
0200
0100
0100
0100
0100
0200
0C00
ENDCHAR
STARTCHAR 3066
ENCODING 12390
SWIDTH 960 0
DWIDTH 10 0
BBX 8 8 1 -1
BITMAP
FE
08
10
20
20
20
11
0E
ENDCHAR
STARTCHAR 3067
ENCODING 12391
SWIDTH 960 0
DWIDTH 10 0
BBX 9 9 1 -1
BITMAP
0280
FE80
0800
1000
2000
2000
2000
1100
0E00
ENDCHAR
STARTCHAR 3068
ENCODING 12392
SWIDTH 960 0
DWIDTH 10 0
BBX 7 8 2 -1
BITMAP
80
5C
20
50
80
80
82
7C
ENDCHAR
STARTCHAR 3069
ENCODING 12393
SWIDTH 960 0
DWIDTH 10 0
BBX 8 9 2 -1
BITMAP
05
85
58
20
50
80
80
82
7C
ENDCHAR
STARTCHAR 306A
ENCODING 12394
SWIDTH 960 0
DWIDTH 10 0
BBX 9 9 1 -1
BITMAP
2000
F380
4200
4200
9E00
A300
2280
2200
1C00
ENDCHAR
STARTCHAR 306B
ENCODING 12395
SWIDTH 960 0
DWIDTH 10 0
BBX 8 8 1 -1
BITMAP
9E
81
82
80
90
A0
A0
9F
ENDCHAR
STARTCHAR 306C
ENCODING 12396
SWIDTH 960 0
DWIDTH 10 0
BBX 9 9 1 -1
BITMAP
0400
2400
3E00
6500
A480
AB80
9480
6480
0300
ENDCHAR
STARTCHAR 306D
ENCODING 12397
SWIDTH 960 0
DWIDTH 10 0
BBX 9 9 1 -1
BITMAP
2000
F800
2700
2880
3080
6380
A480
2480
2300
ENDCHAR
STARTCHAR 306E
ENCODING 12398
SWIDTH 960 0
DWIDTH 10 0
BBX 9 9 1 -1
BITMAP
0800
3E00
4900
8880
8880
9080
6080
0100
0600
ENDCHAR
STARTCHAR 306F
ENCODING 12399
SWIDTH 960 0
DWIDTH 10 0
BBX 9 9 1 -1
BITMAP
0100
9F80
8100
8100
8F00
9180
9100
9100
8E00
ENDCHAR
STARTCHAR 3070
ENCODING 12400
SWIDTH 960 0
DWIDTH 10 0
BBX 9 9 1 -1
BITMAP
0280
BE80
8200
8200
9E00
A300
A200
A200
9C00
ENDCHAR
STARTCHAR 3071
ENCODING 12401
SWIDTH 960 0
DWIDTH 10 0
BBX 9 9 1 -1
BITMAP
0100
BE80
8280
8300
9E00
A300
A200
A200
9C00
ENDCHAR
STARTCHAR 3072
ENCODING 12402
SWIDTH 960 0
DWIDTH 10 0
BBX 8 8 1 -1
BITMAP
E7
22
41
81
81
81
42
3C
ENDCHAR
STARTCHAR 3073
ENCODING 12403
SWIDTH 960 0
DWIDTH 10 0
BBX 9 9 1 -1
BITMAP
0280
E280
2000
4380
8100
8100
8100
4200
3C00
ENDCHAR
STARTCHAR 3074
ENCODING 12404
SWIDTH 960 0
DWIDTH 10 0
BBX 9 9 1 -1
BITMAP
0100
E280
2280
4100
8380
8100
8100
4200
3C00
ENDCHAR
STARTCHAR 3075
ENCODING 12405
SWIDTH 960 0
DWIDTH 10 0
BBX 9 9 1 -1
BITMAP
3800
0400
0400
1800
0400
4280
8280
A480
1800
ENDCHAR
STARTCHAR 3076
ENCODING 12406
SWIDTH 960 0
DWIDTH 10 0
BBX 9 9 1 -1
BITMAP
3A80
0680
0400
1800
0400
4280
8280
A480
1800
ENDCHAR
STARTCHAR 3077
ENCODING 12407
SWIDTH 960 0
DWIDTH 10 0
BBX 9 9 1 -1
BITMAP
3900
0680
0680
1900
0400
4280
8280
A480
1800
ENDCHAR
STARTCHAR 3078
ENCODING 12408
SWIDTH 960 0
DWIDTH 10 0
BBX 9 6 1 0
BITMAP
3800
4400
8200
8100
0080
0080
ENDCHAR
STARTCHAR 3079
ENCODING 12409
SWIDTH 960 0
DWIDTH 10 0
BBX 9 8 1 0
BITMAP
0280
0280
3800
4400
8200
8100
0080
0080
ENDCHAR
STARTCHAR 307A
ENCODING 12410
SWIDTH 960 0
DWIDTH 10 0
BBX 9 8 1 0
BITMAP
0100
0280
3A80
4500
8200
8100
0080
0080
ENDCHAR
STARTCHAR 307B
ENCODING 12411
SWIDTH 960 0
DWIDTH 10 0
BBX 9 9 1 -1
BITMAP
9F00
8200
9F80
8200
9E00
A300
A200
A200
9C00
ENDCHAR
STARTCHAR 307C
ENCODING 12412
SWIDTH 960 0
DWIDTH 10 0
BBX 9 9 1 -1
BITMAP
9A80
8280
9D00
8200
9E00
A300
A200
A200
9C00
ENDCHAR
STARTCHAR 307D
ENCODING 12413
SWIDTH 960 0
DWIDTH 10 0
BBX 9 9 1 -1
BITMAP
9D00
8280
BE80
8300
9E00
A300
A200
A200
9C00
ENDCHAR
STARTCHAR 307E
ENCODING 12414
SWIDTH 960 0
DWIDTH 10 0
BBX 7 9 2 -1
BITMAP
08
FE
08
7E
08
78
8C
8A
70
ENDCHAR
STARTCHAR 307F
ENCODING 12415
SWIDTH 960 0
DWIDTH 10 0
BBX 9 9 1 -1
BITMAP
7000
0900
0900
7F80
8900
8900
9100
6100
0600
ENDCHAR
STARTCHAR 3080
ENCODING 12416
SWIDTH 960 0
DWIDTH 10 0
BBX 9 9 1 -1
BITMAP
2000
F380
2000
7100
8880
8880
7080
2100
1E00
ENDCHAR
STARTCHAR 3081
ENCODING 12417
SWIDTH 960 0
DWIDTH 10 0
BBX 9 9 1 -1
BITMAP
0400
2400
3E00
6500
A480
A880
9080
6900
0200
ENDCHAR
STARTCHAR 3082
ENCODING 12418
SWIDTH 960 0
DWIDTH 10 0
BBX 8 8 1 -1
BITMAP
40
FC
40
FD
41
41
22
1C
ENDCHAR
STARTCHAR 3083
ENCODING 12419
SWIDTH 960 0
DWIDTH 10 0
BBX 6 6 2 -1
BITMAP
50
F8
54
48
40
40
ENDCHAR
STARTCHAR 3084
ENCODING 12420
SWIDTH 960 0
DWIDTH 10 0
BBX 8 9 1 -1
BITMAP
24
24
FE
25
25
21
26
20
20
ENDCHAR
STARTCHAR 3085
ENCODING 12421
SWIDTH 960 0
DWIDTH 10 0
BBX 6 7 2 -1
BITMAP
10
B8
D4
94
94
38
10
ENDCHAR
STARTCHAR 3086
ENCODING 12422
SWIDTH 960 0
DWIDTH 10 0
BBX 8 9 1 -1
BITMAP
08
88
BC
CA
89
89
89
1E
08
ENDCHAR
STARTCHAR 3087
ENCODING 12423
SWIDTH 960 0
DWIDTH 10 0
BBX 6 7 2 -1
BITMAP
10
1C
10
7C
90
90
60
ENDCHAR
STARTCHAR 3088
ENCODING 12424
SWIDTH 960 0
DWIDTH 10 0
BBX 8 9 1 -1
BITMAP
08
0F
08
08
78
8E
88
88
70
ENDCHAR
STARTCHAR 3089
ENCODING 12425
SWIDTH 960 0
DWIDTH 10 0
BBX 7 9 2 -1
BITMAP
18
44
40
78
44
02
02
84
78
ENDCHAR
STARTCHAR 308A
ENCODING 12426
SWIDTH 960 0
DWIDTH 10 0
BBX 6 9 2 -1
BITMAP
44
44
44
44
54
24
04
88
70
ENDCHAR
STARTCHAR 308B
ENCODING 12427
SWIDTH 960 0
DWIDTH 10 0
BBX 7 9 2 -1
BITMAP
F8
04
08
38
04
62
92
94
78
ENDCHAR
STARTCHAR 308C
ENCODING 12428
SWIDTH 960 0
DWIDTH 10 0
BBX 9 9 1 -1
BITMAP
2000
F800
2600
2900
3100
6100
A100
2100
2080
ENDCHAR
STARTCHAR 308D
ENCODING 12429
SWIDTH 960 0
DWIDTH 10 0
BBX 7 9 2 -1
BITMAP
F8
04
08
38
04
02
02
84
78
ENDCHAR
STARTCHAR 308E
ENCODING 12430
SWIDTH 960 0
DWIDTH 10 0
BBX 6 7 2 -1
BITMAP
40
40
D8
64
44
C4
48
ENDCHAR
STARTCHAR 308F
ENCODING 12431
SWIDTH 960 0
DWIDTH 10 0
BBX 9 9 1 -1
BITMAP
2000
F800
2600
2900
3080
6080
A080
2080
2300
ENDCHAR
STARTCHAR 3090
ENCODING 12432
SWIDTH 960 0
DWIDTH 10 0
BBX 9 9 1 -1
BITMAP
6000
1000
1000
3E80
5100
9280
9480
9480
6300
ENDCHAR
STARTCHAR 3091
ENCODING 12433
SWIDTH 960 0
DWIDTH 10 0
BBX 9 9 1 -1
BITMAP
3C00
0800
3C00
4200
1200
1C00
2080
6680
9900
ENDCHAR
STARTCHAR 3092
ENCODING 12434
SWIDTH 960 0
DWIDTH 10 0
BBX 8 9 1 -1
BITMAP
10
FF
10
1C
32
52
4C
41
3E
ENDCHAR
STARTCHAR 3093
ENCODING 12435
SWIDTH 960 0
DWIDTH 10 0
BBX 8 9 1 -1
BITMAP
20
20
20
42
41
41
71
89
86
ENDCHAR
STARTCHAR 309B
ENCODING 12443
SWIDTH 960 0
DWIDTH 10 0
BBX 3 4 1 4
BITMAP
40
20
80
40
ENDCHAR
STARTCHAR 309C
ENCODING 12444
SWIDTH 960 0
DWIDTH 10 0
BBX 3 4 1 4
BITMAP
40
A0
A0
40
ENDCHAR
STARTCHAR 309D
ENCODING 12445
SWIDTH 960 0
DWIDTH 10 0
BBX 4 6 3 0
BITMAP
80
80
40
20
10
60
ENDCHAR
STARTCHAR 309E
ENCODING 12446
SWIDTH 960 0
DWIDTH 10 0
BBX 7 8 3 0
BITMAP
04
12
88
80
40
20
10
60
ENDCHAR
STARTCHAR 30A1
ENCODING 12449
SWIDTH 960 0
DWIDTH 10 0
BBX 6 6 2 -1
BITMAP
F8
04
24
28
20
40
ENDCHAR
STARTCHAR 30A2
ENCODING 12450
SWIDTH 960 0
DWIDTH 10 0
BBX 8 8 1 -1
BITMAP
FE
01
11
11
12
10
10
60
ENDCHAR
STARTCHAR 30A3
ENCODING 12451
SWIDTH 960 0
DWIDTH 10 0
BBX 6 6 2 -1
BITMAP
04
18
F0
10
10
10
ENDCHAR
STARTCHAR 30A4
ENCODING 12452
SWIDTH 960 0
DWIDTH 10 0
BBX 8 8 1 -1
BITMAP
03
0C
38
C8
08
08
08
08
ENDCHAR
STARTCHAR 30A5
ENCODING 12453
SWIDTH 960 0
DWIDTH 10 0
BBX 6 7 2 -1
BITMAP
10
10
78
84
04
48
30
ENDCHAR
STARTCHAR 30A6
ENCODING 12454
SWIDTH 960 0
DWIDTH 10 0
BBX 8 9 1 -1
BITMAP
08
08
7E
81
81
01
02
44
38
ENDCHAR
STARTCHAR 30A7
ENCODING 12455
SWIDTH 960 0
DWIDTH 10 0
BBX 7 5 2 -1
BITMAP
7C
10
10
10
FE
ENDCHAR
STARTCHAR 30A8
ENCODING 12456
SWIDTH 960 0
DWIDTH 10 0
BBX 9 6 1 0
BITMAP
7F00
0800
0800
0800
0800
FF80
ENDCHAR
STARTCHAR 30A9
ENCODING 12457
SWIDTH 960 0
DWIDTH 10 0
BBX 6 7 2 -1
BITMAP
08
08
FC
18
28
C8
10
ENDCHAR
STARTCHAR 30AA
ENCODING 12458
SWIDTH 960 0
DWIDTH 10 0
BBX 8 9 1 -1
BITMAP
02
02
FF
0A
12
22
42
82
0C
ENDCHAR
STARTCHAR 30AB
ENCODING 12459
SWIDTH 960 0
DWIDTH 10 0
BBX 8 9 1 -1
BITMAP
10
10
FE
21
21
41
41
82
82
ENDCHAR
STARTCHAR 30AC
ENCODING 12460
SWIDTH 960 0
DWIDTH 10 0
BBX 9 9 1 -1
BITMAP
1280
1280
FE00
2100
2100
4100
4100
8200
8200
ENDCHAR
STARTCHAR 30AD
ENCODING 12461
SWIDTH 960 0
DWIDTH 10 0
BBX 9 9 1 -1
BITMAP
0800
0800
7F00
0800
0800
FF80
0800
0800
0800
ENDCHAR
STARTCHAR 30AE
ENCODING 12462
SWIDTH 960 0
DWIDTH 10 0
BBX 9 9 1 -1
BITMAP
0A80
0A80
7F00
0800
0800
FF80
0800
0800
0800
ENDCHAR
STARTCHAR 30AF
ENCODING 12463
SWIDTH 960 0
DWIDTH 10 0
BBX 7 9 2 -1
BITMAP
20
3C
42
42
82
84
04
08
08
ENDCHAR
STARTCHAR 30B0
ENCODING 12464
SWIDTH 960 0
DWIDTH 10 0
BBX 8 9 2 -1
BITMAP
25
3D
42
42
82
84
04
08
08
ENDCHAR
STARTCHAR 30B1
ENCODING 12465
SWIDTH 960 0
DWIDTH 10 0
BBX 9 9 1 -1
BITMAP
2000
2000
7F80
4400
8400
8400
0400
0800
3000
ENDCHAR
STARTCHAR 30B2
ENCODING 12466
SWIDTH 960 0
DWIDTH 10 0
BBX 9 9 1 -1
BITMAP
2280
2280
7F80
4400
8400
8400
0400
0800
3000
ENDCHAR
STARTCHAR 30B3
ENCODING 12467
SWIDTH 960 0
DWIDTH 10 0
BBX 7 7 2 0
BITMAP
FC
02
02
02
02
02
FC
ENDCHAR
STARTCHAR 30B4
ENCODING 12468
SWIDTH 960 0
DWIDTH 10 0
BBX 8 9 2 -1
BITMAP
05
05
FC
02
02
02
02
02
FC
ENDCHAR
STARTCHAR 30B5
ENCODING 12469
SWIDTH 960 0
DWIDTH 10 0
BBX 9 9 1 -1
BITMAP
2200
2200
FF80
2200
2200
0200
0200
2400
1800
ENDCHAR
STARTCHAR 30B6
ENCODING 12470
SWIDTH 960 0
DWIDTH 10 0
BBX 9 9 1 -1
BITMAP
2280
2280
FD80
2200
2200
0200
0200
2400
1800
ENDCHAR
STARTCHAR 30B7
ENCODING 12471
SWIDTH 960 0
DWIDTH 10 0
BBX 8 8 1 -1
BITMAP
78
00
78
01
01
02
84
78
ENDCHAR
STARTCHAR 30B8
ENCODING 12472
SWIDTH 960 0
DWIDTH 10 0
BBX 9 9 1 -1
BITMAP
0280
7A80
0000
7800
0100
0100
0200
8400
7800
ENDCHAR
STARTCHAR 30B9
ENCODING 12473
SWIDTH 960 0
DWIDTH 10 0
BBX 8 8 1 -1
BITMAP
7C
02
02
04
08
14
22
C1
ENDCHAR
STARTCHAR 30BA
ENCODING 12474
SWIDTH 960 0
DWIDTH 10 0
BBX 9 9 1 -1
BITMAP
0280
7C80
0200
0200
0400
0800
1400
2200
C100
ENDCHAR
STARTCHAR 30BB
ENCODING 12475
SWIDTH 960 0
DWIDTH 10 0
BBX 9 9 1 -1
BITMAP
2000
2000
FE00
2100
2100
2600
2000
2080
1F00
ENDCHAR
STARTCHAR 30BC
ENCODING 12476
SWIDTH 960 0
DWIDTH 10 0
BBX 9 9 1 -1
BITMAP
2280
2080
FE00
2100
2100
2600
2000
2080
1F00
ENDCHAR
STARTCHAR 30BD
ENCODING 12477
SWIDTH 960 0
DWIDTH 10 0
BBX 7 8 2 -1
BITMAP
84
42
22
02
04
08
10
60
ENDCHAR
STARTCHAR 30BE
ENCODING 12478
SWIDTH 960 0
DWIDTH 10 0
BBX 8 9 2 -1
BITMAP
05
85
42
22
02
04
08
10
60
ENDCHAR
STARTCHAR 30BF
ENCODING 12479
SWIDTH 960 0
DWIDTH 10 0
BBX 7 9 2 -1
BITMAP
20
3C
42
42
B2
8C
04
08
08
ENDCHAR
STARTCHAR 30C0
ENCODING 12480
SWIDTH 960 0
DWIDTH 10 0
BBX 8 9 2 -1
BITMAP
25
3D
42
42
B2
8C
04
08
08
ENDCHAR
STARTCHAR 30C1
ENCODING 12481
SWIDTH 960 0
DWIDTH 10 0
BBX 8 9 1 -1
BITMAP
06
78
04
04
FF
04
04
48
30
ENDCHAR
STARTCHAR 30C2
ENCODING 12482
SWIDTH 960 0
DWIDTH 10 0
BBX 9 9 1 -1
BITMAP
0680
7A80
0400
0400
FF00
0400
0400
4800
3000
ENDCHAR
STARTCHAR 30C3
ENCODING 12483
SWIDTH 960 0
DWIDTH 10 0
BBX 6 5 2 -1
BITMAP
A8
A4
A4
08
10
ENDCHAR
STARTCHAR 30C4
ENCODING 12484
SWIDTH 960 0
DWIDTH 10 0
BBX 7 8 2 -1
BITMAP
A4
A2
A2
A2
04
08
10
20
ENDCHAR
STARTCHAR 30C5
ENCODING 12485
SWIDTH 960 0
DWIDTH 10 0
BBX 8 9 2 -1
BITMAP
05
A5
A2
A2
A2
04
08
10
20
ENDCHAR
STARTCHAR 30C6
ENCODING 12486
SWIDTH 960 0
DWIDTH 10 0
BBX 8 8 1 -1
BITMAP
3E
00
FF
04
04
04
48
30
ENDCHAR
STARTCHAR 30C7
ENCODING 12487
SWIDTH 960 0
DWIDTH 10 0
BBX 9 9 1 -1
BITMAP
0280
3A80
0000
FF00
0400
0400
0400
4800
3000
ENDCHAR
STARTCHAR 30C8
ENCODING 12488
SWIDTH 960 0
DWIDTH 10 0
BBX 6 9 2 -1
BITMAP
40
40
40
E0
58
44
40
40
40
ENDCHAR
STARTCHAR 30C9
ENCODING 12489
SWIDTH 960 0
DWIDTH 10 0
BBX 7 9 2 -1
BITMAP
4A
4A
40
E0
58
44
40
40
40
ENDCHAR
STARTCHAR 30CA
ENCODING 12490
SWIDTH 960 0
DWIDTH 10 0
BBX 8 9 1 -1
BITMAP
04
04
FF
04
04
04
04
48
30
ENDCHAR
STARTCHAR 30CB
ENCODING 12491
SWIDTH 960 0
DWIDTH 10 0
BBX 8 6 1 0
BITMAP
7E
00
00
00
00
FF
ENDCHAR
STARTCHAR 30CC
ENCODING 12492
SWIDTH 960 0
DWIDTH 10 0
BBX 8 8 1 -1
BITMAP
3E
01
01
1A
04
0A
91
60
ENDCHAR
STARTCHAR 30CD
ENCODING 12493
SWIDTH 960 0
DWIDTH 10 0
BBX 7 9 2 -1
BITMAP
10
10
FC
12
04
18
34
D2
10
ENDCHAR
STARTCHAR 30CE
ENCODING 12494
SWIDTH 960 0
DWIDTH 10 0
BBX 7 8 2 -1
BITMAP
02
02
02
04
04
08
30
C0
ENDCHAR
STARTCHAR 30CF
ENCODING 12495
SWIDTH 960 0
DWIDTH 10 0
BBX 8 8 1 -1
BITMAP
08
04
02
42
41
81
81
81
ENDCHAR
STARTCHAR 30D0
ENCODING 12496
SWIDTH 960 0
DWIDTH 10 0
BBX 9 9 1 -1
BITMAP
0280
0A80
0400
0200
4200
4100
8100
8100
8100
ENDCHAR
STARTCHAR 30D1
ENCODING 12497
SWIDTH 960 0
DWIDTH 10 0
BBX 9 9 1 -1
BITMAP
0100
0A80
0680
0300
4200
4100
8100
8100
8100
ENDCHAR
STARTCHAR 30D2
ENCODING 12498
SWIDTH 960 0
DWIDTH 10 0
BBX 7 8 2 -1
BITMAP
80
80
FC
80
80
82
82
7C
ENDCHAR
STARTCHAR 30D3
ENCODING 12499
SWIDTH 960 0
DWIDTH 10 0
BBX 8 9 2 -1
BITMAP
05
85
80
FC
80
80
82
82
7C
ENDCHAR
STARTCHAR 30D4
ENCODING 12500
SWIDTH 960 0
DWIDTH 10 0
BBX 8 9 2 -1
BITMAP
02
85
85
FA
80
80
82
82
7C
ENDCHAR
STARTCHAR 30D5
ENCODING 12501
SWIDTH 960 0
DWIDTH 10 0
BBX 7 8 2 -1
BITMAP
FC
02
02
02
02
04
88
70
ENDCHAR
STARTCHAR 30D6
ENCODING 12502
SWIDTH 960 0
DWIDTH 10 0
BBX 8 9 2 -1
BITMAP
05
FD
02
02
02
02
04
88
70
ENDCHAR
STARTCHAR 30D7
ENCODING 12503
SWIDTH 960 0
DWIDTH 10 0
BBX 8 9 2 -1
BITMAP
02
FD
05
02
02
02
04
88
70
ENDCHAR
STARTCHAR 30D8
ENCODING 12504
SWIDTH 960 0
DWIDTH 10 0
BBX 9 6 1 0
BITMAP
3000
4800
8400
8200
0100
0080
ENDCHAR
STARTCHAR 30D9
ENCODING 12505
SWIDTH 960 0
DWIDTH 10 0
BBX 9 7 1 0
BITMAP
0280
3280
4800
8400
8200
0100
0080
ENDCHAR
STARTCHAR 30DA
ENCODING 12506
SWIDTH 960 0
DWIDTH 10 0
BBX 9 8 1 0
BITMAP
0100
0280
3280
4900
8400
8200
0100
0080
ENDCHAR
STARTCHAR 30DB
ENCODING 12507
SWIDTH 960 0
DWIDTH 10 0
BBX 9 9 1 -1
BITMAP
0800
0800
FF80
0800
4A00
4900
8880
8880
1800
ENDCHAR
STARTCHAR 30DC
ENCODING 12508
SWIDTH 960 0
DWIDTH 10 0
BBX 9 9 1 -1
BITMAP
0A80
0A80
FF80
0800
4A00
4900
8880
8880
1800
ENDCHAR
STARTCHAR 30DD
ENCODING 12509
SWIDTH 960 0
DWIDTH 10 0
BBX 9 9 1 -1
BITMAP
0900
0A80
FE80
0900
4A00
4900
8880
8880
1800
ENDCHAR
STARTCHAR 30DE
ENCODING 12510
SWIDTH 960 0
DWIDTH 10 0
BBX 8 8 1 -1
BITMAP
FE
01
01
02
24
18
08
04
ENDCHAR
STARTCHAR 30DF
ENCODING 12511
SWIDTH 960 0
DWIDTH 10 0
BBX 7 8 2 -1
BITMAP
7C
00
00
7C
00
00
F8
06
ENDCHAR
STARTCHAR 30E0
ENCODING 12512
SWIDTH 960 0
DWIDTH 10 0
BBX 8 8 1 -1
BITMAP
10
20
20
40
42
82
8D
71
ENDCHAR
STARTCHAR 30E1
ENCODING 12513
SWIDTH 960 0
DWIDTH 10 0
BBX 8 8 1 -1
BITMAP
01
22
14
08
14
22
40
80
ENDCHAR
STARTCHAR 30E2
ENCODING 12514
SWIDTH 960 0
DWIDTH 10 0
BBX 8 8 1 -1
BITMAP
FC
20
20
FE
20
21
21
1E
ENDCHAR
STARTCHAR 30E3
ENCODING 12515
SWIDTH 960 0
DWIDTH 10 0
BBX 6 7 2 -1
BITMAP
20
20
F8
24
28
20
20
ENDCHAR
STARTCHAR 30E4
ENCODING 12516
SWIDTH 960 0
DWIDTH 10 0
BBX 8 9 1 -1
BITMAP
20
20
FE
21
21
22
24
20
20
ENDCHAR
STARTCHAR 30E5
ENCODING 12517
SWIDTH 960 0
DWIDTH 10 0
BBX 7 4 2 0
BITMAP
70
08
08
FE
ENDCHAR
STARTCHAR 30E6
ENCODING 12518
SWIDTH 960 0
DWIDTH 10 0
BBX 9 6 1 0
BITMAP
7C00
0200
0200
0200
0200
FF80
ENDCHAR
STARTCHAR 30E7
ENCODING 12519
SWIDTH 960 0
DWIDTH 10 0
BBX 5 5 2 -1
BITMAP
F0
08
F8
08
F0
ENDCHAR
STARTCHAR 30E8
ENCODING 12520
SWIDTH 960 0
DWIDTH 10 0
BBX 7 7 2 0
BITMAP
FC
02
02
7E
02
02
FC
ENDCHAR
STARTCHAR 30E9
ENCODING 12521
SWIDTH 960 0
DWIDTH 10 0
BBX 8 9 1 -1
BITMAP
7E
00
FE
01
01
01
02
44
38
ENDCHAR
STARTCHAR 30EA
ENCODING 12522
SWIDTH 960 0
DWIDTH 10 0
BBX 7 9 2 -1
BITMAP
42
42
42
42
42
02
02
84
78
ENDCHAR
STARTCHAR 30EB
ENCODING 12523
SWIDTH 960 0
DWIDTH 10 0
BBX 8 8 1 -1
BITMAP
10
90
90
90
91
91
92
0C
ENDCHAR
STARTCHAR 30EC
ENCODING 12524
SWIDTH 960 0
DWIDTH 10 0
BBX 7 8 2 -1
BITMAP
80
80
80
82
82
84
88
70
ENDCHAR
STARTCHAR 30ED
ENCODING 12525
SWIDTH 960 0
DWIDTH 10 0
BBX 8 7 1 0
BITMAP
7E
81
81
81
81
42
3C
ENDCHAR
STARTCHAR 30EE
ENCODING 12526
SWIDTH 960 0
DWIDTH 10 0
BBX 6 6 2 -1
BITMAP
78
84
84
04
08
30
ENDCHAR
STARTCHAR 30EF
ENCODING 12527
SWIDTH 960 0
DWIDTH 10 0
BBX 8 8 1 -1
BITMAP
7E
81
81
01
01
02
44
38
ENDCHAR
STARTCHAR 30F0
ENCODING 12528
SWIDTH 960 0
DWIDTH 10 0
BBX 8 9 1 -1
BITMAP
04
04
FF
04
24
24
FF
04
04
ENDCHAR
STARTCHAR 30F1
ENCODING 12529
SWIDTH 960 0
DWIDTH 10 0
BBX 9 6 1 0
BITMAP
7E00
0100
0A00
0800
0800
FF80
ENDCHAR
STARTCHAR 30F2
ENCODING 12530
SWIDTH 960 0
DWIDTH 10 0
BBX 7 8 2 -1
BITMAP
FC
02
02
7E
02
04
88
70
ENDCHAR
STARTCHAR 30F3
ENCODING 12531
SWIDTH 960 0
DWIDTH 10 0
BBX 8 7 1 -1
BITMAP
78
00
01
01
02
84
78
ENDCHAR
STARTCHAR 30F4
ENCODING 12532
SWIDTH 960 0
DWIDTH 10 0
BBX 9 9 1 -1
BITMAP
0A80
0A80
7E00
8100
8100
0100
0200
4400
3800
ENDCHAR
STARTCHAR 30F5
ENCODING 12533
SWIDTH 960 0
DWIDTH 10 0
BBX 6 7 2 -1
BITMAP
20
20
F8
24
44
44
98
ENDCHAR
STARTCHAR 30F6
ENCODING 12534
SWIDTH 960 0
DWIDTH 10 0
BBX 7 7 2 -1
BITMAP
40
40
7E
88
88
08
30
ENDCHAR
STARTCHAR 30FB
ENCODING 12539
SWIDTH 960 0
DWIDTH 10 0
BBX 2 2 4 2
BITMAP
C0
C0
ENDCHAR
STARTCHAR 30FC
ENCODING 12540
SWIDTH 960 0
DWIDTH 10 0
BBX 8 2 1 2
BITMAP
99
66
ENDCHAR
STARTCHAR 30FD
ENCODING 12541
SWIDTH 960 0
DWIDTH 10 0
BBX 4 5 3 1
BITMAP
80
40
20
10
10
ENDCHAR
STARTCHAR 30FE
ENCODING 12542
SWIDTH 960 0
DWIDTH 10 0
BBX 7 7 3 1
BITMAP
04
12
88
40
20
10
10
ENDCHAR
STARTCHAR 4E00
ENCODING 19968
SWIDTH 960 0
DWIDTH 10 0
BBX 9 2 1 3
BITMAP
0100
FF80
ENDCHAR
STARTCHAR 4E01
ENCODING 19969
SWIDTH 960 0
DWIDTH 10 0
BBX 9 8 1 -1
BITMAP
FF80
0800
0800
0800
0800
0800
0800
1800
ENDCHAR
STARTCHAR 4E03
ENCODING 19971
SWIDTH 960 0
DWIDTH 10 0
BBX 9 9 1 -1
BITMAP
1000
1000
1380
1C00
F000
1000
1000
1080
1F80
ENDCHAR
STARTCHAR 4E07
ENCODING 19975
SWIDTH 960 0
DWIDTH 10 0
BBX 9 8 1 -1
BITMAP
FF80
1000
1000
1F00
1100
2100
4100
8600
ENDCHAR
STARTCHAR 4E08
ENCODING 19976
SWIDTH 960 0
DWIDTH 10 0
BBX 9 9 1 -1
BITMAP
0400
0400
FF80
0400
2400
2800
1000
2C00
C380
ENDCHAR
STARTCHAR 4E09
ENCODING 19977
SWIDTH 960 0
DWIDTH 10 0
BBX 9 8 1 -1
BITMAP
7F00
0000
0000
3E00
0000
0000
0000
FF80
ENDCHAR
STARTCHAR 4E0A
ENCODING 19978
SWIDTH 960 0
DWIDTH 10 0
BBX 9 9 1 -1
BITMAP
0800
0800
0800
0F00
0800
0800
0800
0800
FF80
ENDCHAR
STARTCHAR 4E0B
ENCODING 19979
SWIDTH 960 0
DWIDTH 10 0
BBX 9 9 1 -1
BITMAP
FF80
0800
0800
0E00
0900
0800
0800
0800
0800
ENDCHAR
STARTCHAR 4E0D
ENCODING 19981
SWIDTH 960 0
DWIDTH 10 0
BBX 9 9 1 -1
BITMAP
FF80
0400
0800
1A00
2900
C880
0800
0800
0800
ENDCHAR
STARTCHAR 4E0E
ENCODING 19982
SWIDTH 960 0
DWIDTH 10 0
BBX 9 9 1 -1
BITMAP
2000
3E00
2000
7E00
4200
0200
FF80
0200
0C00
ENDCHAR
STARTCHAR 4E10
ENCODING 19984
SWIDTH 960 0
DWIDTH 10 0
BBX 9 9 1 -1
BITMAP
FF80
0800
4F00
4800
4800
FF80
8080
0180
0600
ENDCHAR
STARTCHAR 4E11
ENCODING 19985
SWIDTH 960 0
DWIDTH 10 0
BBX 9 9 1 -1
BITMAP
7E00
1200
1200
1200
FF80
2200
2200
2200
FF80
ENDCHAR
STARTCHAR 4E14
ENCODING 19988
SWIDTH 960 0
DWIDTH 10 0
BBX 9 8 1 -1
BITMAP
3E00
2200
3E00
2200
3E00
2200
2200
FF80
ENDCHAR
STARTCHAR 4E15
ENCODING 19989
SWIDTH 960 0
DWIDTH 10 0
BBX 9 9 1 -1
BITMAP
FF80
0800
1A00
2900
C880
0800
0800
0000
FF80
ENDCHAR
STARTCHAR 4E16
ENCODING 19990
SWIDTH 960 0
DWIDTH 10 0
BBX 9 9 1 -1
BITMAP
4A00
4A00
FF80
4A00
4A00
4E00
4000
4000
7F00
ENDCHAR
STARTCHAR 4E17
ENCODING 19991
SWIDTH 960 0
DWIDTH 10 0
BBX 9 9 1 -1
BITMAP
2A00
2A00
2A00
FF80
2A00
2A00
2A00
2A00
3E00
ENDCHAR
STARTCHAR 4E18
ENCODING 19992
SWIDTH 960 0
DWIDTH 10 0
BBX 9 8 1 -1
BITMAP
0600
3800
2000
3F00
2400
2400
2400
FF80
ENDCHAR
STARTCHAR 4E19
ENCODING 19993
SWIDTH 960 0
DWIDTH 10 0
BBX 9 9 1 -1
BITMAP
FF80
0800
FF80
8880
9480
A280
C180
8080
8180
ENDCHAR
STARTCHAR 4E1E
ENCODING 19998
SWIDTH 960 0
DWIDTH 10 0
BBX 9 9 1 -1
BITMAP
7E00
0400
E980
2E00
2A00
4900
9880
0000
FF80
ENDCHAR
STARTCHAR 4E21
ENCODING 20001
SWIDTH 960 0
DWIDTH 10 0
BBX 9 9 1 -1
BITMAP
FF80
0800
FF80
8880
AA80
AA80
AA80
BE80
8180
ENDCHAR
STARTCHAR 4E26
ENCODING 20006
SWIDTH 960 0
DWIDTH 10 0
BBX 9 9 1 -1
BITMAP
4100
2200
FF80
1400
9480
5480
5500
1400
FF80
ENDCHAR
STARTCHAR 4E2A
ENCODING 20010
SWIDTH 960 0
DWIDTH 10 0
BBX 9 9 1 -1
BITMAP
0800
1400
2200
4900
8880
0800
0800
0800
0800
ENDCHAR
STARTCHAR 4E2D
ENCODING 20013
SWIDTH 960 0
DWIDTH 10 0
BBX 9 9 1 -1
BITMAP
0800
0800
FF80
8880
8880
FF80
0800
0800
0800
ENDCHAR
STARTCHAR 4E31
ENCODING 20017
SWIDTH 960 0
DWIDTH 10 0
BBX 8 9 1 -1
BITMAP
24
24
A5
A5
A5
A5
E7
44
84
ENDCHAR
STARTCHAR 4E32
ENCODING 20018
SWIDTH 960 0
DWIDTH 10 0
BBX 9 9 1 -1
BITMAP
0800
7F00
4900
7F00
0800
FF80
8880
FF80
0800
ENDCHAR
STARTCHAR 4E36
ENCODING 20022
SWIDTH 960 0
DWIDTH 10 0
BBX 2 3 4 2
BITMAP
80
40
40
ENDCHAR
STARTCHAR 4E38
ENCODING 20024
SWIDTH 960 0
DWIDTH 10 0
BBX 9 9 1 -1
BITMAP
1000
1000
7E00
1200
7200
1A00
1200
2280
C380
ENDCHAR
STARTCHAR 4E39
ENCODING 20025
SWIDTH 960 0
DWIDTH 10 0
BBX 9 9 1 -1
BITMAP
7F00
4100
4900
4500
FF80
4100
4100
4100
8300
ENDCHAR
STARTCHAR 4E3B
ENCODING 20027
SWIDTH 960 0
DWIDTH 10 0
BBX 9 9 1 -1
BITMAP
1000
0800
FF80
0800
0800
7F00
0800
0800
FF80
ENDCHAR
STARTCHAR 4E3C
ENCODING 20028
SWIDTH 960 0
DWIDTH 10 0
BBX 9 9 1 -1
BITMAP
2200
2200
FF80
2A00
2600
FF80
2200
4200
8200
ENDCHAR
STARTCHAR 4E3F
ENCODING 20031
SWIDTH 960 0
DWIDTH 10 0
BBX 4 9 3 -1
BITMAP
10
10
10
10
10
20
20
40
80
ENDCHAR
STARTCHAR 4E42
ENCODING 20034
SWIDTH 960 0
DWIDTH 10 0
BBX 9 9 1 -1
BITMAP
0200
4200
2200
2400
1400
0800
1400
2200
C180
ENDCHAR
STARTCHAR 4E43
ENCODING 20035
SWIDTH 960 0
DWIDTH 10 0
BBX 9 8 1 -1
BITMAP
FE00
1200
1200
1780
2080
2080
4080
8300
ENDCHAR
STARTCHAR 4E45
ENCODING 20037
SWIDTH 960 0
DWIDTH 10 0
BBX 9 9 1 -1
BITMAP
2000
3C00
2400
4400
8400
0800
1400
2200
C180
ENDCHAR
STARTCHAR 4E4B
ENCODING 20043
SWIDTH 960 0
DWIDTH 10 0
BBX 9 9 1 -1
BITMAP
0800
0800
7F00
0100
0200
0400
4800
7000
8F80
ENDCHAR
STARTCHAR 4E4D
ENCODING 20045
SWIDTH 960 0
DWIDTH 10 0
BBX 9 9 1 -1
BITMAP
2000
2000
7F80
4800
8F00
0800
0F00
0800
0800
ENDCHAR
STARTCHAR 4E4E
ENCODING 20046
SWIDTH 960 0
DWIDTH 10 0
BBX 9 9 1 -1
BITMAP
0600
7800
4900
2A00
0800
FF80
0800
0800
1800
ENDCHAR
STARTCHAR 4E4F
ENCODING 20047
SWIDTH 960 0
DWIDTH 10 0
BBX 9 9 1 -1
BITMAP
0600
7800
0800
FF00
0200
0400
4800
7000
8F80
ENDCHAR
STARTCHAR 4E55
ENCODING 20053
SWIDTH 960 0
DWIDTH 10 0
BBX 9 9 1 -1
BITMAP
0700
7C00
5F00
4400
7F80
4400
5F00
9500
9500
ENDCHAR
STARTCHAR 4E56
ENCODING 20054
SWIDTH 960 0
DWIDTH 10 0
BBX 9 9 1 -1
BITMAP
0600
7800
0800
FF80
2A80
EB00
2A00
EB80
0800
ENDCHAR
STARTCHAR 4E57
ENCODING 20055
SWIDTH 960 0
DWIDTH 10 0
BBX 9 9 1 -1
BITMAP
3E00
0800
7F00
2A00
FF80
2A00
7F00
2A00
C980
ENDCHAR
STARTCHAR 4E58
ENCODING 20056
SWIDTH 960 0
DWIDTH 10 0
BBX 9 9 1 -1
BITMAP
3E00
0800
FF80
2A80
EB00
2A00
EB80
1C00
EB80
ENDCHAR
STARTCHAR 4E59
ENCODING 20057
SWIDTH 960 0
DWIDTH 10 0
BBX 9 8 1 -1
BITMAP
7E00
0400
0800
1000
2000
4000
8080
7F80
ENDCHAR
STARTCHAR 4E5D
ENCODING 20061
SWIDTH 960 0
DWIDTH 10 0
BBX 9 9 1 -1
BITMAP
1000
1000
FC00
1400
1400
2400
2400
4480
8780
ENDCHAR
STARTCHAR 4E5E
ENCODING 20062
SWIDTH 960 0
DWIDTH 10 0
BBX 9 9 1 -1
BITMAP
4000
7F00
8000
7C00
0800
3000
4000
8080
7F80
ENDCHAR
STARTCHAR 4E5F
ENCODING 20063
SWIDTH 960 0
DWIDTH 10 0
BBX 9 9 1 -1
BITMAP
0800
4800
4F00
7900
C900
4B00
4800
4080
7F80
ENDCHAR
STARTCHAR 4E62
ENCODING 20066
SWIDTH 960 0
DWIDTH 10 0
BBX 9 9 1 -1
BITMAP
2200
2200
AA00
AA00
AA00
AA00
AA00
FA80
0380
ENDCHAR
STARTCHAR 4E71
ENCODING 20081
SWIDTH 960 0
DWIDTH 10 0
BBX 9 9 1 -1
BITMAP
1A00
E200
2200
FA00
2200
2200
FA00
8A80
FB80
ENDCHAR
STARTCHAR 4E73
ENCODING 20083
SWIDTH 960 0
DWIDTH 10 0
BBX 9 9 1 -1
BITMAP
3400
D400
A400
F400
2400
2400
F400
2480
6780
ENDCHAR
STARTCHAR 4E7E
ENCODING 20094
SWIDTH 960 0
DWIDTH 10 0
BBX 9 9 1 -1
BITMAP
4400
E780
4800
E700
A100
E200
4400
E880
4780
ENDCHAR
STARTCHAR 4E80
ENCODING 20096
SWIDTH 960 0
DWIDTH 10 0
BBX 8 9 2 -1
BITMAP
78
88
7C
54
FE
92
FE
11
1F
ENDCHAR
STARTCHAR 4E82
ENCODING 20098
SWIDTH 960 0
DWIDTH 10 0
BBX 9 9 1 -1
BITMAP
7A00
AA00
7A00
1200
FA00
DA00
AA00
DA80
8B80
ENDCHAR
STARTCHAR 4E85
ENCODING 20101
SWIDTH 960 0
DWIDTH 10 0
BBX 3 9 3 -1
BITMAP
20
20
20
20
20
20
20
20
E0
ENDCHAR
STARTCHAR 4E86
ENCODING 20102
SWIDTH 960 0
DWIDTH 10 0
BBX 7 9 2 -1
BITMAP
FE
04
18
10
10
10
10
10
30
ENDCHAR
STARTCHAR 4E88
ENCODING 20104
SWIDTH 960 0
DWIDTH 10 0
BBX 9 9 1 -1
BITMAP
7F00
0200
1400
FF80
0900
0A00
0800
0800
3800
ENDCHAR
STARTCHAR 4E89
ENCODING 20105
SWIDTH 960 0
DWIDTH 10 0
BBX 9 9 1 -1
BITMAP
1C00
2400
7F00
0900
FF80
0900
7F00
0800
1800
ENDCHAR
STARTCHAR 4E8A
ENCODING 20106
SWIDTH 960 0
DWIDTH 10 0
BBX 9 9 1 -1
BITMAP
0800
FF80
2A00
7F00
0900
FF80
0900
7F00
1800
ENDCHAR
STARTCHAR 4E8B
ENCODING 20107
SWIDTH 960 0
DWIDTH 10 0
BBX 9 9 1 -1
BITMAP
0800
FF80
2A00
7F00
0900
FF80
0900
7F00
1800
ENDCHAR
STARTCHAR 4E8C
ENCODING 20108
SWIDTH 960 0
DWIDTH 10 0
BBX 9 7 1 0
BITMAP
0200
7F00
0000
0000
0000
0100
FF80
ENDCHAR
STARTCHAR 4E8E
ENCODING 20110
SWIDTH 960 0
DWIDTH 10 0
BBX 9 9 1 -1
BITMAP
7F00
0800
0800
FF80
0800
0800
0800
0800
1800
ENDCHAR
STARTCHAR 4E91
ENCODING 20113
SWIDTH 960 0
DWIDTH 10 0
BBX 9 8 1 -1
BITMAP
7F00
0000
0000
FF80
1000
1200
2700
7900
ENDCHAR
STARTCHAR 4E92
ENCODING 20114
SWIDTH 960 0
DWIDTH 10 0
BBX 9 9 1 -1
BITMAP
FF80
1000
1000
3E00
2200
7E00
4400
0400
FF80
ENDCHAR
STARTCHAR 4E94
ENCODING 20116
SWIDTH 960 0
DWIDTH 10 0
BBX 9 8 1 -1
BITMAP
FF00
1000
1000
7E00
2200
2200
2200
FF80
ENDCHAR
STARTCHAR 4E95
ENCODING 20117
SWIDTH 960 0
DWIDTH 10 0
BBX 8 9 1 -1
BITMAP
24
24
FF
24
24
FF
24
44
84
ENDCHAR
STARTCHAR 4E98
ENCODING 20120
SWIDTH 960 0
DWIDTH 10 0
BBX 9 9 1 -1
BITMAP
FF80
0000
3E00
2200
3E00
2200
3E00
0000
FF80
ENDCHAR
STARTCHAR 4E99
ENCODING 20121
SWIDTH 960 0
DWIDTH 10 0
BBX 9 9 1 -1
BITMAP
FF80
1000
1E00
2200
2A00
2600
5400
4C00
FF80
ENDCHAR
STARTCHAR 4E9B
ENCODING 20123
SWIDTH 960 0
DWIDTH 10 0
BBX 9 9 1 -1
BITMAP
2400
2580
B600
A480
F780
0000
7F00
0000
FF80
ENDCHAR
STARTCHAR 4E9C
ENCODING 20124
SWIDTH 960 0
DWIDTH 10 0
BBX 9 9 1 -1
BITMAP
FF80
1400
1400
7F00
5500
7F00
1400
1400
FF80
ENDCHAR
STARTCHAR 4E9E
ENCODING 20126
SWIDTH 960 0
DWIDTH 10 0
BBX 9 9 1 -1
BITMAP
FF80
1400
1400
F780
8080
F780
1400
1400
FF80
ENDCHAR
STARTCHAR 4E9F
ENCODING 20127
SWIDTH 960 0
DWIDTH 10 0
BBX 9 9 1 -1
BITMAP
7F00
1000
1800
EB80
AA80
A900
EA80
1000
FF80
ENDCHAR
STARTCHAR 4EA0
ENCODING 20128
SWIDTH 960 0
DWIDTH 10 0
BBX 9 3 1 3
BITMAP
0800
0800
FF80
ENDCHAR
STARTCHAR 4EA1
ENCODING 20129
SWIDTH 960 0
DWIDTH 10 0
BBX 9 9 1 -1
BITMAP
0800
0800
FF80
4000
4000
4000
4000
4000
3F00
ENDCHAR
STARTCHAR 4EA2
ENCODING 20130
SWIDTH 960 0
DWIDTH 10 0
BBX 9 9 1 -1
BITMAP
0800
FF80
0000
3C00
2400
2400
2400
4480
8780
ENDCHAR
STARTCHAR 4EA4
ENCODING 20132
SWIDTH 960 0
DWIDTH 10 0
BBX 9 9 1 -1
BITMAP
0800
FF80
2200
4100
A280
1400
0800
3600
C180
ENDCHAR
STARTCHAR 4EA5
ENCODING 20133
SWIDTH 960 0
DWIDTH 10 0
BBX 9 9 1 -1
BITMAP
0800
FF80
0800
3200
1500
1A00
6400
1B00
E080
ENDCHAR
STARTCHAR 4EA6
ENCODING 20134
SWIDTH 960 0
DWIDTH 10 0
BBX 9 9 1 -1
BITMAP
0800
0800
FF80
1400
5500
5480
9480
2400
4C00
ENDCHAR
STARTCHAR 4EA8
ENCODING 20136
SWIDTH 960 0
DWIDTH 10 0
BBX 9 9 1 -1
BITMAP
0800
FF80
2200
3E00
0000
7F00
0400
0800
1800
ENDCHAR
STARTCHAR 4EAB
ENCODING 20139
SWIDTH 960 0
DWIDTH 10 0
BBX 9 9 1 -1
BITMAP
0800
FF80
2200
3E00
0000
7F00
0400
FF80
1800
ENDCHAR
STARTCHAR 4EAC
ENCODING 20140
SWIDTH 960 0
DWIDTH 10 0
BBX 9 9 1 -1
BITMAP
0800
FF80
0000
3E00
2200
3E00
0800
4900
9880
ENDCHAR
STARTCHAR 4EAD
ENCODING 20141
SWIDTH 960 0
DWIDTH 10 0
BBX 9 9 1 -1
BITMAP
0800
FF80
3E00
2200
FF80
8080
7F00
0800
1800
ENDCHAR
STARTCHAR 4EAE
ENCODING 20142
SWIDTH 960 0
DWIDTH 10 0
BBX 9 9 1 -1
BITMAP
0800
FF80
2200
3E00
0000
FF80
9480
2400
C780
ENDCHAR
STARTCHAR 4EB0
ENCODING 20144
SWIDTH 960 0
DWIDTH 10 0
BBX 9 9 1 -1
BITMAP
0800
FF80
2200
3E00
2200
3E00
0800
4900
9880
ENDCHAR
STARTCHAR 4EB3
ENCODING 20147
SWIDTH 960 0
DWIDTH 10 0
BBX 9 9 1 -1
BITMAP
0800
FF80
2200
FF80
8680
3800
0E00
F880
0F80
ENDCHAR
STARTCHAR 4EB6
ENCODING 20150
SWIDTH 960 0
DWIDTH 10 0
BBX 9 9 1 -1
BITMAP
0800
FF80
5D00
4100
7F00
2200
3E00
2200
FF80
ENDCHAR
STARTCHAR 4EBA
ENCODING 20154
SWIDTH 960 0
DWIDTH 10 0
BBX 9 9 1 -1
BITMAP
0800
0800
0800
1400
1400
2200
2200
4100
8080
ENDCHAR
STARTCHAR 4EC0
ENCODING 20160
SWIDTH 960 0
DWIDTH 10 0
BBX 9 9 1 -1
BITMAP
2400
2400
4400
5F80
C400
4400
4400
4400
4400
ENDCHAR
STARTCHAR 4EC1
ENCODING 20161
SWIDTH 960 0
DWIDTH 10 0
BBX 9 9 1 -1
BITMAP
2000
2000
4F00
4000
C000
4000
4000
5F80
4000
ENDCHAR
STARTCHAR 4EC2
ENCODING 20162
SWIDTH 960 0
DWIDTH 10 0
BBX 9 9 1 -1
BITMAP
2400
2400
5F80
4480
C480
4480
4480
4880
5300
ENDCHAR
STARTCHAR 4EC4
ENCODING 20164
SWIDTH 960 0
DWIDTH 10 0
BBX 9 9 1 -1
BITMAP
7F80
4000
4400
4400
4400
4A00
4A00
9100
A080
ENDCHAR
STARTCHAR 4EC6
ENCODING 20166
SWIDTH 960 0
DWIDTH 10 0
BBX 9 9 1 -1
BITMAP
2400
2400
4400
4600
C500
4480
4400
4400
4400
ENDCHAR
STARTCHAR 4EC7
ENCODING 20167
SWIDTH 960 0
DWIDTH 10 0
BBX 9 9 1 -1
BITMAP
2800
2800
5E00
4A00
CA00
4A00
4A00
5280
6380
ENDCHAR
STARTCHAR 4ECA
ENCODING 20170
SWIDTH 960 0
DWIDTH 10 0
BBX 9 9 1 -1
BITMAP
0800
1400
2200
DD80
0000
7E00
0200
0400
0800
ENDCHAR
STARTCHAR 4ECB
ENCODING 20171
SWIDTH 960 0
DWIDTH 10 0
BBX 9 9 1 -1
BITMAP
0800
1400
2200
6300
A280
2200
2200
4200
8200
ENDCHAR
STARTCHAR 4ECD
ENCODING 20173
SWIDTH 960 0
DWIDTH 10 0
BBX 9 9 1 -1
BITMAP
2000
2F00
4500
4500
C580
4480
4880
4880
5380
ENDCHAR
STARTCHAR 4ECE
ENCODING 20174
SWIDTH 960 0
DWIDTH 10 0
BBX 9 9 1 -1
BITMAP
2200
2200
2200
2200
5200
5500
4500
8880
8880
ENDCHAR
STARTCHAR 4ECF
ENCODING 20175
SWIDTH 960 0
DWIDTH 10 0
BBX 9 9 1 -1
BITMAP
2400
2400
4400
4400
C400
4800
4900
4980
5E80
ENDCHAR
STARTCHAR 4ED4
ENCODING 20180
SWIDTH 960 0
DWIDTH 10 0
BBX 9 9 1 -1
BITMAP
2000
2F00
4200
4400
DF80
4400
4400
4400
4C00
ENDCHAR
STARTCHAR 4ED5
ENCODING 20181
SWIDTH 960 0
DWIDTH 10 0
BBX 9 9 1 -1
BITMAP
2400
2400
4400
5F80
C400
4400
4400
4400
4F00
ENDCHAR
STARTCHAR 4ED6
ENCODING 20182
SWIDTH 960 0
DWIDTH 10 0
BBX 9 9 1 -1
BITMAP
2200
2A00
4B80
4E80
DA80
4A80
4800
4880
4F80
ENDCHAR
STARTCHAR 4ED7
ENCODING 20183
SWIDTH 960 0
DWIDTH 10 0
BBX 9 9 1 -1
BITMAP
2200
2200
5F80
4200
CA00
4A00
4400
4A00
5180
ENDCHAR
STARTCHAR 4ED8
ENCODING 20184
SWIDTH 960 0
DWIDTH 10 0
BBX 9 9 1 -1
BITMAP
2100
2100
5F80
4100
C900
4500
4100
4100
4300
ENDCHAR
STARTCHAR 4ED9
ENCODING 20185
SWIDTH 960 0
DWIDTH 10 0
BBX 9 9 1 -1
BITMAP
2200
2200
4A80
4A80
CA80
4A80
4A80
4A80
4F80
ENDCHAR
STARTCHAR 4EDD
ENCODING 20189
SWIDTH 960 0
DWIDTH 10 0
BBX 9 9 1 -1
BITMAP
0800
1400
2200
4100
BE80
0800
0800
0800
7F00
ENDCHAR
STARTCHAR 4EDE
ENCODING 20190
SWIDTH 960 0
DWIDTH 10 0
BBX 9 9 1 -1
BITMAP
2000
2F80
4480
4480
D480
4C80
4480
4880
5180
ENDCHAR
STARTCHAR 4EDF
ENCODING 20191
SWIDTH 960 0
DWIDTH 10 0
BBX 9 9 1 -1
BITMAP
2180
2E00
4200
4200
CF80
4200
4200
4200
4200
ENDCHAR
STARTCHAR 4EE3
ENCODING 20195
SWIDTH 960 0
DWIDTH 10 0
BBX 9 9 1 -1
BITMAP
2500
2480
4400
5F80
C400
4400
4200
4280
4180
ENDCHAR
STARTCHAR 4EE4
ENCODING 20196
SWIDTH 960 0
DWIDTH 10 0
BBX 9 9 1 -1
BITMAP
0800
1400
2200
DD80
0000
7F00
0900
0B00
0800
ENDCHAR
STARTCHAR 4EE5
ENCODING 20197
SWIDTH 960 0
DWIDTH 10 0
BBX 9 9 1 -1
BITMAP
4100
5100
4900
4100
4100
5200
6200
C500
1880
ENDCHAR
STARTCHAR 4EED
ENCODING 20205
SWIDTH 960 0
DWIDTH 10 0
BBX 9 9 1 -1
BITMAP
2000
2F00
4500
4500
D500
4D00
4700
4980
5300
ENDCHAR
STARTCHAR 4EEE
ENCODING 20206
SWIDTH 960 0
DWIDTH 10 0
BBX 9 9 1 -1
BITMAP
2F80
2800
4F00
4900
CD00
4D00
4A00
5300
5480
ENDCHAR
STARTCHAR 4EF0
ENCODING 20208
SWIDTH 960 0
DWIDTH 10 0
BBX 9 9 1 -1
BITMAP
2400
3B80
5280
5280
D280
5280
5E80
5380
4200
ENDCHAR
STARTCHAR 4EF2
ENCODING 20210
SWIDTH 960 0
DWIDTH 10 0
BBX 8 9 1 -1
BITMAP
24
24
5F
55
D5
5F
44
44
44
ENDCHAR
STARTCHAR 4EF6
ENCODING 20214
SWIDTH 960 0
DWIDTH 10 0
BBX 9 9 1 -1
BITMAP
2200
2A00
4F80
5200
C200
5F80
4200
4200
4200
ENDCHAR
STARTCHAR 4EF7
ENCODING 20215
SWIDTH 960 0
DWIDTH 10 0
BBX 9 9 1 -1
BITMAP
2000
2600
4900
D080
4500
4500
4500
4500
4900
ENDCHAR
STARTCHAR 4EFB
ENCODING 20219
SWIDTH 960 0
DWIDTH 10 0
BBX 9 9 1 -1
BITMAP
2300
2C00
4400
4400
DF80
4400
4400
4400
5F80
ENDCHAR
STARTCHAR 4F01
ENCODING 20225
SWIDTH 960 0
DWIDTH 10 0
BBX 9 9 1 -1
BITMAP
0800
1400
2200
C980
0800
2E00
2800
2800
FF80
ENDCHAR
STARTCHAR 4F09
ENCODING 20233
SWIDTH 960 0
DWIDTH 10 0
BBX 9 9 1 -1
BITMAP
2200
2F80
4000
C700
4500
4500
4500
4500
4980
ENDCHAR
STARTCHAR 4F0A
ENCODING 20234
SWIDTH 960 0
DWIDTH 10 0
BBX 9 9 1 -1
BITMAP
2F00
2500
5F80
4500
C500
4F00
4400
4400
4800
ENDCHAR
STARTCHAR 4F0D
ENCODING 20237
SWIDTH 960 0
DWIDTH 10 0
BBX 9 9 1 -1
BITMAP
2000
3F80
4400
4400
DF00
4900
4900
4900
5F80
ENDCHAR
STARTCHAR 4F0E
ENCODING 20238
SWIDTH 960 0
DWIDTH 10 0
BBX 9 9 1 -1
BITMAP
2200
2200
4F80
4200
C700
4500
4200
4500
4880
ENDCHAR
STARTCHAR 4F0F
ENCODING 20239
SWIDTH 960 0
DWIDTH 10 0
BBX 9 9 1 -1
BITMAP
2500
2400
5F80
4400
C400
4400
4A00
4900
5080
ENDCHAR
STARTCHAR 4F10
ENCODING 20240
SWIDTH 960 0
DWIDTH 10 0
BBX 9 9 1 -1
BITMAP
2500
2400
5F80
4400
C480
4500
4200
4680
4980
ENDCHAR
STARTCHAR 4F11
ENCODING 20241
SWIDTH 960 0
DWIDTH 10 0
BBX 9 9 1 -1
BITMAP
2400
2400
5F80
4400
CE00
4E00
5500
6480
4400
ENDCHAR
STARTCHAR 4F1A
ENCODING 20250
SWIDTH 960 0
DWIDTH 10 0
BBX 9 9 1 -1
BITMAP
0800
1400
2200
DD80
0000
7F00
1000
2200
7D00
ENDCHAR
STARTCHAR 4F1C
ENCODING 20252
SWIDTH 960 0
DWIDTH 10 0
BBX 9 9 1 -1
BITMAP
2400
2F00
4500
4980
C200
4200
4F80
4200
4200
ENDCHAR
STARTCHAR 4F1D
ENCODING 20253
SWIDTH 960 0
DWIDTH 10 0
BBX 9 9 1 -1
BITMAP
2000
2F00
4000
5F80
C400
4400
4900
4980
5E80
ENDCHAR
STARTCHAR 4F2F
ENCODING 20271
SWIDTH 960 0
DWIDTH 10 0
BBX 9 9 1 -1
BITMAP
2200
2400
4F80
4880
C880
4F80
4880
4880
4F80
ENDCHAR
STARTCHAR 4F30
ENCODING 20272
SWIDTH 960 0
DWIDTH 10 0
BBX 9 9 1 -1
BITMAP
2200
2200
5F80
4200
C200
4F80
4880
4880
4F80
ENDCHAR
STARTCHAR 4F34
ENCODING 20276
SWIDTH 960 0
DWIDTH 10 0
BBX 9 9 1 -1
BITMAP
2A80
2A80
4200
4F80
C200
4F80
4200
4200
4200
ENDCHAR
STARTCHAR 4F36
ENCODING 20278
SWIDTH 960 0
DWIDTH 10 0
BBX 9 9 1 -1
BITMAP
2600
2900
5680
4000
CF00
4500
4500
4700
4400
ENDCHAR
STARTCHAR 4F38
ENCODING 20280
SWIDTH 960 0
DWIDTH 10 0
BBX 9 9 1 -1
BITMAP
2200
2F80
4A80
4F80
CA80
4F80
4200
4200
4200
ENDCHAR
STARTCHAR 4F3A
ENCODING 20282
SWIDTH 960 0
DWIDTH 10 0
BBX 9 9 1 -1
BITMAP
2000
2F80
4080
4E80
C080
4E80
4A80
4E80
4180
ENDCHAR
STARTCHAR 4F3C
ENCODING 20284
SWIDTH 960 0
DWIDTH 10 0
BBX 9 9 1 -1
BITMAP
2080
2880
4A80
4A80
C880
4C80
5900
4280
4C80
ENDCHAR
STARTCHAR 4F3D
ENCODING 20285
SWIDTH 960 0
DWIDTH 10 0
BBX 9 9 1 -1
BITMAP
2800
2800
5F80
4A80
CA80
4A80
4A80
5280
5780
ENDCHAR
STARTCHAR 4F43
ENCODING 20291
SWIDTH 960 0
DWIDTH 10 0
BBX 9 9 1 -1
BITMAP
2000
2F80
4A80
4A80
CF80
4A80
4A80
4A80
4F80
ENDCHAR
STARTCHAR 4F46
ENCODING 20294
SWIDTH 960 0
DWIDTH 10 0
BBX 9 9 1 -1
BITMAP
2F00
2900
4900
4F00
C900
4900
4F00
4000
5F80
ENDCHAR
STARTCHAR 4F47
ENCODING 20295
SWIDTH 960 0
DWIDTH 10 0
BBX 9 9 1 -1
BITMAP
2200
2F80
4880
4000
CF80
4200
4200
4200
4600
ENDCHAR
STARTCHAR 4F4D
ENCODING 20301
SWIDTH 960 0
DWIDTH 10 0
BBX 9 9 1 -1
BITMAP
2400
2400
5F80
4900
C900
4900
4900
4900
5F80
ENDCHAR
STARTCHAR 4F4E
ENCODING 20302
SWIDTH 960 0
DWIDTH 10 0
BBX 9 9 1 -1
BITMAP
2180
2E00
4A00
4F80
CA00
4900
5C80
4000
4F80
ENDCHAR
STARTCHAR 4F4F
ENCODING 20303
SWIDTH 960 0
DWIDTH 10 0
BBX 9 9 1 -1
BITMAP
2400
2200
4F80
4200
C200
4F80
4200
4200
4F80
ENDCHAR
STARTCHAR 4F50
ENCODING 20304
SWIDTH 960 0
DWIDTH 10 0
BBX 9 9 1 -1
BITMAP
2400
2400
5F80
4800
C800
4F00
5200
4200
5F80
ENDCHAR
STARTCHAR 4F51
ENCODING 20305
SWIDTH 960 0
DWIDTH 10 0
BBX 9 9 1 -1
BITMAP
2400
2400
5F80
4400
C800
4F80
5480
5480
4780
ENDCHAR
STARTCHAR 4F53
ENCODING 20307
SWIDTH 960 0
DWIDTH 10 0
BBX 9 9 1 -1
BITMAP
2400
2400
5F80
4400
CE00
5500
6480
4E00
4400
ENDCHAR
STARTCHAR 4F55
ENCODING 20309
SWIDTH 960 0
DWIDTH 10 0
BBX 9 9 1 -1
BITMAP
2000
3F80
4100
5D00
D500
5500
5D00
4100
4300
ENDCHAR
STARTCHAR 4F57
ENCODING 20311
SWIDTH 960 0
DWIDTH 10 0
BBX 9 9 1 -1
BITMAP
2400
3F80
5080
4800
CB00
4C00
4800
4880
4F80
ENDCHAR
STARTCHAR 4F59
ENCODING 20313
SWIDTH 960 0
DWIDTH 10 0
BBX 9 9 1 -1
BITMAP
0800
1400
2200
DD80
0800
7F80
0800
4900
9880
ENDCHAR
STARTCHAR 4F5A
ENCODING 20314
SWIDTH 960 0
DWIDTH 10 0
BBX 9 9 1 -1
BITMAP
2200
2A00
4F80
4200
CF80
4200
4200
4500
4880
ENDCHAR
STARTCHAR 4F5B
ENCODING 20315
SWIDTH 960 0
DWIDTH 10 0
BBX 9 9 1 -1
BITMAP
2600
3F80
4680
5F80
D600
5F80
4680
4B80
5200
ENDCHAR
STARTCHAR 4F5C
ENCODING 20316
SWIDTH 960 0
DWIDTH 10 0
BBX 9 9 1 -1
BITMAP
2400
2400
4F80
5400
C780
4400
4780
4400
4400
ENDCHAR
STARTCHAR 4F5D
ENCODING 20317
SWIDTH 960 0
DWIDTH 10 0
BBX 9 9 1 -1
BITMAP
2400
2F80
5080
4E80
CA80
4A80
4E80
4080
4300
ENDCHAR
STARTCHAR 4F5E
ENCODING 20318
SWIDTH 960 0
DWIDTH 10 0
BBX 9 9 1 -1
BITMAP
2600
2000
5F80
4400
DF80
4900
4E00
4500
5880
ENDCHAR
STARTCHAR 4F69
ENCODING 20329
SWIDTH 960 0
DWIDTH 10 0
BBX 10 9 0 -1
BITMAP
3FC0
3040
5740
5240
DFC0
5AC0
5AC0
5AC0
5240
ENDCHAR
STARTCHAR 4F6F
ENCODING 20335
SWIDTH 960 0
DWIDTH 10 0
BBX 9 9 1 -1
BITMAP
2880
2500
4F80
4200
CF80
4200
4F80
4200
4200
ENDCHAR
STARTCHAR 4F70
ENCODING 20336
SWIDTH 960 0
DWIDTH 10 0
BBX 9 9 1 -1
BITMAP
2F80
2200
4400
4F80
C880
4F80
4880
4880
4F80
ENDCHAR
STARTCHAR 4F73
ENCODING 20339
SWIDTH 960 0
DWIDTH 10 0
BBX 9 9 1 -1
BITMAP
2400
2F00
4400
5F80
C400
4400
4F00
4400
5F80
ENDCHAR
STARTCHAR 4F75
ENCODING 20341
SWIDTH 960 0
DWIDTH 10 0
BBX 9 9 1 -1
BITMAP
2900
2600
5F80
4900
C900
5F80
4900
4900
5100
ENDCHAR
STARTCHAR 4F76
ENCODING 20342
SWIDTH 960 0
DWIDTH 10 0
BBX 9 9 1 -1
BITMAP
2200
2F80
4200
4F80
C000
4000
4F80
4880
4F80
ENDCHAR
STARTCHAR 4F7B
ENCODING 20347
SWIDTH 960 0
DWIDTH 10 0
BBX 9 9 1 -1
BITMAP
2500
2500
4D80
4500
C500
4D80
4500
4500
4980
ENDCHAR
STARTCHAR 4F7C
ENCODING 20348
SWIDTH 960 0
DWIDTH 10 0
BBX 9 9 1 -1
BITMAP
2200
2F80
4500
4880
C500
4500
4200
4500
4880
ENDCHAR
STARTCHAR 4F7F
ENCODING 20351
SWIDTH 960 0
DWIDTH 10 0
BBX 9 9 1 -1
BITMAP
2400
3F80
4400
5F80
D480
5F80
5400
4C00
5B80
ENDCHAR
STARTCHAR 4F83
ENCODING 20355
SWIDTH 960 0
DWIDTH 10 0
BBX 9 9 1 -1
BITMAP
3F00
3100
5100
5F00
C000
5500
5500
5500
6580
ENDCHAR
STARTCHAR 4F86
ENCODING 20358
SWIDTH 960 0
DWIDTH 10 0
BBX 9 9 1 -1
BITMAP
0800
FF80
2A00
2A00
5D00
8880
1C00
2A00
C980
ENDCHAR
STARTCHAR 4F88
ENCODING 20360
SWIDTH 960 0
DWIDTH 10 0
BBX 9 9 1 -1
BITMAP
2380
2C80
4300
5E00
C000
4380
4C80
4300
5E00
ENDCHAR
STARTCHAR 4F8B
ENCODING 20363
SWIDTH 960 0
DWIDTH 10 0
BBX 10 9 0 -1
BITMAP
3E40
2940
4D40
5540
DD40
6540
4540
4840
50C0
ENDCHAR
STARTCHAR 4F8D
ENCODING 20365
SWIDTH 960 0
DWIDTH 10 0
BBX 9 9 1 -1
BITMAP
2200
2F00
4200
DF80
4100
5F80
4100
4900
4300
ENDCHAR
STARTCHAR 4F8F
ENCODING 20367
SWIDTH 960 0
DWIDTH 10 0
BBX 9 9 1 -1
BITMAP
2200
2A00
4F80
4200
CF80
4200
4700
4A80
4200
ENDCHAR
STARTCHAR 4F91
ENCODING 20369
SWIDTH 960 0
DWIDTH 10 0
BBX 9 9 1 -1
BITMAP
2200
2F80
4400
4F80
D480
4780
4480
4780
4480
ENDCHAR
STARTCHAR 4F96
ENCODING 20374
SWIDTH 960 0
DWIDTH 10 0
BBX 9 9 1 -1
BITMAP
0800
1400
3E00
C180
7F00
5500
7F00
5500
5500
ENDCHAR
STARTCHAR 4F98
ENCODING 20376
SWIDTH 960 0
DWIDTH 10 0
BBX 9 9 1 -1
BITMAP
2400
3F80
5080
4F00
C400
4780
5C00
4480
4780
ENDCHAR
STARTCHAR 4F9B
ENCODING 20379
SWIDTH 960 0
DWIDTH 10 0
BBX 9 9 1 -1
BITMAP
2A00
2A00
5F00
4A00
CA00
5F80
4000
4A00
5100
ENDCHAR
STARTCHAR 4F9D
ENCODING 20381
SWIDTH 960 0
DWIDTH 10 0
BBX 9 9 1 -1
BITMAP
2400
2400
5F80
4800
CC80
5B00
6A00
4D00
5880
ENDCHAR
STARTCHAR 4FA0
ENCODING 20384
SWIDTH 960 0
DWIDTH 10 0
BBX 9 9 1 -1
BITMAP
2400
3F80
4400
5500
CE00
5F80
4400
4A00
5180
ENDCHAR
STARTCHAR 4FA1
ENCODING 20385
SWIDTH 960 0
DWIDTH 10 0
BBX 10 9 0 -1
BITMAP
2000
3FC0
4500
5FC0
D540
5540
5540
5540
5FC0
ENDCHAR
STARTCHAR 4FAB
ENCODING 20395
SWIDTH 960 0
DWIDTH 10 0
BBX 9 9 1 -1
BITMAP
2400
2F80
4800
4700
C400
5F80
4900
4E00
5980
ENDCHAR
STARTCHAR 4FAD
ENCODING 20397
SWIDTH 960 0
DWIDTH 10 0
BBX 9 9 1 -1
BITMAP
2F80
2880
4F80
4900
C900
5680
4000
4600
4100
ENDCHAR
STARTCHAR 4FAE
ENCODING 20398
SWIDTH 960 0
DWIDTH 10 0
BBX 9 9 1 -1
BITMAP
2800
3F80
4000
5F00
D500
7F80
5500
5F80
4300
ENDCHAR
STARTCHAR 4FAF
ENCODING 20399
SWIDTH 960 0
DWIDTH 10 0
BBX 9 9 1 -1
BITMAP
2F00
2100
5F80
4400
CF80
5200
4F80
4500
4880
ENDCHAR
STARTCHAR 4FB5
ENCODING 20405
SWIDTH 960 0
DWIDTH 10 0
BBX 9 9 1 -1
BITMAP
2F00
2100
4100
DF80
5080
4F00
4900
4600
5980
ENDCHAR
STARTCHAR 4FB6
ENCODING 20406
SWIDTH 960 0
DWIDTH 10 0
BBX 9 9 1 -1
BITMAP
2F00
2900
4900
4F00
C400
5F80
5080
5080
5F80
ENDCHAR
STARTCHAR 4FBF
ENCODING 20415
SWIDTH 960 0
DWIDTH 10 0
BBX 9 9 1 -1
BITMAP
2F80
2200
4F80
4A80
CF80
4A80
4F80
4600
5D80
ENDCHAR
STARTCHAR 4FC2
ENCODING 20418
SWIDTH 960 0
DWIDTH 10 0
BBX 9 9 1 -1
BITMAP
2300
2C00
4500
4A00
C480
5F80
4200
4A80
4A80
ENDCHAR
STARTCHAR 4FC3
ENCODING 20419
SWIDTH 960 0
DWIDTH 10 0
BBX 9 9 1 -1
BITMAP
2F80
2880
4F80
4200
C200
4B80
4A00
4E00
5380
ENDCHAR
STARTCHAR 4FC4
ENCODING 20420
SWIDTH 960 0
DWIDTH 10 0
BBX 9 9 1 -1
BITMAP
2600
3A80
4A00
5F80
CA00
4E80
5A80
4900
5A80
ENDCHAR
STARTCHAR 4FCA
ENCODING 20426
SWIDTH 960 0
DWIDTH 10 0
BBX 9 9 1 -1
BITMAP
2400
2900
5F80
4A00
D380
4700
5900
4600
5980
ENDCHAR
STARTCHAR 4FCE
ENCODING 20430
SWIDTH 960 0
DWIDTH 10 0
BBX 9 9 1 -1
BITMAP
4700
4500
A700
8500
0500
4700
4500
A500
8F80
ENDCHAR
STARTCHAR 4FD0
ENCODING 20432
SWIDTH 960 0
DWIDTH 10 0
BBX 9 9 1 -1
BITMAP
2480
3A80
4A80
5E80
CA80
4E80
5A80
4880
4980
ENDCHAR
STARTCHAR 4FD1
ENCODING 20433
SWIDTH 960 0
DWIDTH 10 0
BBX 9 9 1 -1
BITMAP
2F80
2300
4F80
4A80
CF80
4A80
4F80
4A80
4A80
ENDCHAR
STARTCHAR 4FD4
ENCODING 20436
SWIDTH 960 0
DWIDTH 10 0
BBX 9 9 1 -1
BITMAP
2F00
2900
4F00
4900
CF00
4900
4F00
4A00
5380
ENDCHAR
STARTCHAR 4FD7
ENCODING 20439
SWIDTH 960 0
DWIDTH 10 0
BBX 9 9 1 -1
BITMAP
2900
3080
4600
4900
D080
4F00
4900
4900
4F00
ENDCHAR
STARTCHAR 4FD8
ENCODING 20440
SWIDTH 960 0
DWIDTH 10 0
BBX 9 9 1 -1
BITMAP
2300
2D00
5480
4000
CF00
4200
5F80
4200
4600
ENDCHAR
STARTCHAR 4FDA
ENCODING 20442
SWIDTH 960 0
DWIDTH 10 0
BBX 9 9 1 -1
BITMAP
2F80
2A80
4F80
4A80
CF80
4200
4F80
4200
5F80
ENDCHAR
STARTCHAR 4FDB
ENCODING 20443
SWIDTH 960 0
DWIDTH 10 0
BBX 9 9 1 -1
BITMAP
2700
2900
5F80
4A80
CA80
4F80
4600
4A80
5380
ENDCHAR
STARTCHAR 4FDD
ENCODING 20445
SWIDTH 960 0
DWIDTH 10 0
BBX 9 9 1 -1
BITMAP
2F80
2880
4880
4F80
C200
4F80
4200
4700
4A80
ENDCHAR
STARTCHAR 4FDF
ENCODING 20447
SWIDTH 960 0
DWIDTH 10 0
BBX 9 9 1 -1
BITMAP
2200
2480
4F80
4400
CF80
4200
4F80
4500
4880
ENDCHAR
STARTCHAR 4FE1
ENCODING 20449
SWIDTH 960 0
DWIDTH 10 0
BBX 9 9 1 -1
BITMAP
2600
2000
5F80
4000
CF00
4000
4F00
4900
4F00
ENDCHAR
STARTCHAR 4FE3
ENCODING 20451
SWIDTH 960 0
DWIDTH 10 0
BBX 9 9 1 -1
BITMAP
2F00
2900
4F00
4000
CF00
4400
5F80
4A00
5180
ENDCHAR
STARTCHAR 4FE4
ENCODING 20452
SWIDTH 960 0
DWIDTH 10 0
BBX 9 9 1 -1
BITMAP
2500
2F80
4280
4F80
CA00
4F80
4680
4A80
5280
ENDCHAR
STARTCHAR 4FE5
ENCODING 20453
SWIDTH 960 0
DWIDTH 10 0
BBX 9 9 1 -1
BITMAP
2200
2F80
4200
4F80
CA80
4F80
4200
4F80
4200
ENDCHAR
STARTCHAR 4FEE
ENCODING 20462
SWIDTH 960 0
DWIDTH 10 0
BBX 9 9 1 -1
BITMAP
2400
2780
4D00
5200
D580
5100
5600
5180
4600
ENDCHAR
STARTCHAR 4FEF
ENCODING 20463
SWIDTH 960 0
DWIDTH 10 0
BBX 9 9 1 -1
BITMAP
2200
3F80
5000
5280
D780
5C80
5580
5480
5580
ENDCHAR
STARTCHAR 4FF3
ENCODING 20467
SWIDTH 960 0
DWIDTH 10 0
BBX 9 9 1 -1
BITMAP
2A00
2A00
5B80
4A00
DB80
4A00
5B80
4A00
5200
ENDCHAR
STARTCHAR 4FF5
ENCODING 20469
SWIDTH 960 0
DWIDTH 10 0
BBX 9 9 1 -1
BITMAP
2200
2F80
4200
4F80
C200
5F80
4A80
5900
4C80
ENDCHAR
STARTCHAR 4FF6
ENCODING 20470
SWIDTH 960 0
DWIDTH 10 0
BBX 9 9 1 -1
BITMAP
2800
2C00
4B80
5E80
CA80
4A80
5D00
4A80
5A80
ENDCHAR
STARTCHAR 4FF8
ENCODING 20472
SWIDTH 960 0
DWIDTH 10 0
BBX 10 9 0 -1
BITMAP
2200
2F80
4500
5FC0
CA80
5740
4200
4F80
4200
ENDCHAR
STARTCHAR 4FFA
ENCODING 20474
SWIDTH 960 0
DWIDTH 10 0
BBX 9 9 1 -1
BITMAP
2400
3F80
4A00
5500
FF80
5500
5F00
4480
4780
ENDCHAR
STARTCHAR 4FFE
ENCODING 20478
SWIDTH 960 0
DWIDTH 10 0
BBX 9 9 1 -1
BITMAP
2200
2F80
4A80
4F80
CA80
4F80
4500
5F80
4100
ENDCHAR
STARTCHAR 5005
ENCODING 20485
SWIDTH 960 0
DWIDTH 10 0
BBX 9 9 1 -1
BITMAP
2200
2F80
4500
4500
CA80
4200
4F80
4200
4200
ENDCHAR
STARTCHAR 5006
ENCODING 20486
SWIDTH 960 0
DWIDTH 10 0
BBX 9 9 1 -1
BITMAP
3F80
2400
5F80
5480
DE80
5E80
5580
5480
5580
ENDCHAR
STARTCHAR 5009
ENCODING 20489
SWIDTH 960 0
DWIDTH 10 0
BBX 9 9 1 -1
BITMAP
0800
3600
FF80
2200
3E00
2200
7F00
A100
3F00
ENDCHAR
STARTCHAR 500B
ENCODING 20491
SWIDTH 960 0
DWIDTH 10 0
BBX 9 9 1 -1
BITMAP
3F80
3480
5E80
5480
DE80
5A80
5E80
5080
5F80
ENDCHAR
STARTCHAR 500D
ENCODING 20493
SWIDTH 960 0
DWIDTH 10 0
BBX 9 9 1 -1
BITMAP
2200
2F80
4500
5F80
C000
4F80
4880
4880
4F80
ENDCHAR
STARTCHAR 500F
ENCODING 20495
SWIDTH 960 0
DWIDTH 10 0
BBX 10 9 0 -1
BITMAP
2380
2680
5100
D6C0
5000
5140
57C0
5280
4440
ENDCHAR
STARTCHAR 5011
ENCODING 20497
SWIDTH 960 0
DWIDTH 10 0
BBX 9 9 1 -1
BITMAP
2D80
2D80
4D80
4880
C880
4880
4880
4880
4980
ENDCHAR
STARTCHAR 5012
ENCODING 20498
SWIDTH 960 0
DWIDTH 10 0
BBX 9 9 1 -1
BITMAP
2080
3E80
4A80
5E80
C280
4A80
5E80
4880
5E80
ENDCHAR
STARTCHAR 5014
ENCODING 20500
SWIDTH 960 0
DWIDTH 10 0
BBX 9 9 1 -1
BITMAP
2F80
2880
4F80
4A00
CA80
4F80
4A00
5A80
5780
ENDCHAR
STARTCHAR 5016
ENCODING 20502
SWIDTH 960 0
DWIDTH 10 0
BBX 9 9 1 -1
BITMAP
2400
2F00
4400
5F80
C900
5F80
4400
4F00
4400
ENDCHAR
STARTCHAR 5019
ENCODING 20505
SWIDTH 960 0
DWIDTH 10 0
BBX 9 9 1 -1
BITMAP
2700
2100
4F80
4200
D780
5200
5780
5300
4480
ENDCHAR
STARTCHAR 501A
ENCODING 20506
SWIDTH 960 0
DWIDTH 10 0
BBX 9 9 1 -1
BITMAP
2200
2F80
4200
4500
DF80
4100
4D00
4D00
4300
ENDCHAR
STARTCHAR 501F
ENCODING 20511
SWIDTH 960 0
DWIDTH 10 0
BBX 9 9 1 -1
BITMAP
2900
3F80
4900
5F80
C000
4F00
4900
4900
4F00
ENDCHAR
STARTCHAR 5021
ENCODING 20513
SWIDTH 960 0
DWIDTH 10 0
BBX 9 9 1 -1
BITMAP
2F00
2900
4F00
4900
DF80
5080
5F80
5080
5F80
ENDCHAR
STARTCHAR 5023
ENCODING 20515
SWIDTH 960 0
DWIDTH 10 0
BBX 10 9 0 -1
BITMAP
2500
2500
5FC0
4940
CF40
4B40
4A80
52C0
5740
ENDCHAR
STARTCHAR 5024
ENCODING 20516
SWIDTH 960 0
DWIDTH 10 0
BBX 9 9 1 -1
BITMAP
2200
2F80
4200
5700
D500
5500
5700
5000
5F80
ENDCHAR
STARTCHAR 5025
ENCODING 20517
SWIDTH 960 0
DWIDTH 10 0
BBX 9 9 1 -1
BITMAP
2200
2F80
4880
4500
C980
4000
4700
4200
4F80
ENDCHAR
STARTCHAR 5026
ENCODING 20518
SWIDTH 960 0
DWIDTH 10 0
BBX 10 9 0 -1
BITMAP
2A80
2F80
4500
5FC0
C880
5740
4700
4440
47C0
ENDCHAR
STARTCHAR 5028
ENCODING 20520
SWIDTH 960 0
DWIDTH 10 0
BBX 9 9 1 -1
BITMAP
2F80
2880
4F80
4900
CF80
4900
5780
5480
4780
ENDCHAR
STARTCHAR 5029
ENCODING 20521
SWIDTH 960 0
DWIDTH 10 0
BBX 10 9 0 -1
BITMAP
2200
2F80
4200
5FC0
CA80
4F80
4880
4880
4980
ENDCHAR
STARTCHAR 502A
ENCODING 20522
SWIDTH 960 0
DWIDTH 10 0
BBX 9 9 1 -1
BITMAP
2580
2880
4D80
4880
CF80
4500
4500
4500
4980
ENDCHAR
STARTCHAR 502B
ENCODING 20523
SWIDTH 960 0
DWIDTH 10 0
BBX 9 9 1 -1
BITMAP
2200
2500
4880
5700
C000
4F80
4A80
4F80
4A80
ENDCHAR
STARTCHAR 502C
ENCODING 20524
SWIDTH 960 0
DWIDTH 10 0
BBX 9 9 1 -1
BITMAP
2400
2700
4400
5F00
D100
5F00
4400
7F80
4400
ENDCHAR
STARTCHAR 502D
ENCODING 20525
SWIDTH 960 0
DWIDTH 10 0
BBX 9 9 1 -1
BITMAP
2F00
2400
5F80
4D00
D480
5F80
4900
4E00
5980
ENDCHAR
STARTCHAR 5036
ENCODING 20534
SWIDTH 960 0
DWIDTH 10 0
BBX 9 9 1 -1
BITMAP
2F00
2900
4F00
4900
CF00
4900
5F80
4900
5080
ENDCHAR
STARTCHAR 5039
ENCODING 20537
SWIDTH 960 0
DWIDTH 10 0
BBX 9 9 1 -1
BITMAP
2400
2A00
5F00
6480
DF00
5500
5F00
4A00
5100
ENDCHAR
STARTCHAR 5043
ENCODING 20547
SWIDTH 960 0
DWIDTH 10 0
BBX 9 9 1 -1
BITMAP
5F80
5500
5700
D200
5F80
5500
5300
5480
5F80
ENDCHAR
STARTCHAR 5047
ENCODING 20551
SWIDTH 960 0
DWIDTH 10 0
BBX 10 9 0 -1
BITMAP
2EC0
2A40
4EC0
4800
CDC0
4940
4D40
4880
4940
ENDCHAR
STARTCHAR 5048
ENCODING 20552
SWIDTH 960 0
DWIDTH 10 0
BBX 9 9 1 -1
BITMAP
2F00
2900
4F00
4400
CF80
4A80
5480
4680
4100
ENDCHAR
STARTCHAR 5049
ENCODING 20553
SWIDTH 960 0
DWIDTH 10 0
BBX 9 9 1 -1
BITMAP
2800
3F00
4900
7F80
CA00
5F00
5400
7F80
4400
ENDCHAR
STARTCHAR 504F
ENCODING 20559
SWIDTH 960 0
DWIDTH 10 0
BBX 9 9 1 -1
BITMAP
2F80
2000
4F80
4F80
C800
4F80
5A80
4F80
4A80
ENDCHAR
STARTCHAR 5050
ENCODING 20560
SWIDTH 960 0
DWIDTH 10 0
BBX 10 9 0 -1
BITMAP
2100
2FC0
4280
4FC0
C900
4A40
4980
4840
5380
ENDCHAR
STARTCHAR 5055
ENCODING 20565
SWIDTH 960 0
DWIDTH 10 0
BBX 9 9 1 -1
BITMAP
2900
2D80
4900
5D80
C200
4F80
4880
4880
4F80
ENDCHAR
STARTCHAR 5056
ENCODING 20566
SWIDTH 960 0
DWIDTH 10 0
BBX 9 9 1 -1
BITMAP
2400
2F00
4600
5F80
C480
4F00
5900
4900
4F00
ENDCHAR
STARTCHAR 505A
ENCODING 20570
SWIDTH 960 0
DWIDTH 10 0
BBX 9 9 1 -1
BITMAP
2A00
2A00
5F80
4A80
CA80
5E80
5500
5D00
4280
ENDCHAR
STARTCHAR 505C
ENCODING 20572
SWIDTH 960 0
DWIDTH 10 0
BBX 9 9 1 -1
BITMAP
2200
3F80
4F00
4900
DF80
5080
4F00
4200
4600
ENDCHAR
STARTCHAR 5065
ENCODING 20581
SWIDTH 960 0
DWIDTH 10 0
BBX 10 9 0 -1
BITMAP
2080
3DC0
44C0
49C0
DC80
45C0
5480
4880
57C0
ENDCHAR
STARTCHAR 506C
ENCODING 20588
SWIDTH 960 0
DWIDTH 10 0
BBX 9 9 1 -1
BITMAP
2800
2F80
5A80
4F80
D280
4580
4000
5480
5680
ENDCHAR
STARTCHAR 5072
ENCODING 20594
SWIDTH 960 0
DWIDTH 10 0
BBX 9 9 1 -1
BITMAP
2F80
2A80
4F80
4A80
CF80
4000
4200
5480
5680
ENDCHAR
STARTCHAR 5074
ENCODING 20596
SWIDTH 960 0
DWIDTH 10 0
BBX 10 9 0 -1
BITMAP
3C40
3540
5D40
5540
DD40
5540
5D40
4040
54C0
ENDCHAR
STARTCHAR 5075
ENCODING 20597
SWIDTH 960 0
DWIDTH 10 0
BBX 9 9 1 -1
BITMAP
2400
2780
4400
4F00
C900
4F00
4900
4F00
5080
ENDCHAR
STARTCHAR 5076
ENCODING 20598
SWIDTH 960 0
DWIDTH 10 0
BBX 9 9 1 -1
BITMAP
2F00
2B00
4D00
4F00
C400
5F80
5480
5680
5180
ENDCHAR
STARTCHAR 5078
ENCODING 20600
SWIDTH 960 0
DWIDTH 10 0
BBX 9 9 1 -1
BITMAP
2E00
2500
4B80
4000
CE80
4A80
4F00
4A80
4A80
ENDCHAR
STARTCHAR 507D
ENCODING 20605
SWIDTH 960 0
DWIDTH 10 0
BBX 9 9 1 -1
BITMAP
2A00
2F00
4500
4700
C900
4F80
5080
6A80
4100
ENDCHAR
STARTCHAR 5080
ENCODING 20608
SWIDTH 960 0
DWIDTH 10 0
BBX 9 9 1 -1
BITMAP
2800
5F00
5500
DF00
5500
5F80
4500
4C80
5780
ENDCHAR
STARTCHAR 5085
ENCODING 20613
SWIDTH 960 0
DWIDTH 10 0
BBX 9 9 1 -1
BITMAP
2280
2F80
4200
4F80
CA80
4100
4F80
4500
4100
ENDCHAR
STARTCHAR 508D
ENCODING 20621
SWIDTH 960 0
DWIDTH 10 0
BBX 9 9 1 -1
BITMAP
2400
3F80
4A00
5F80
D480
4F00
4600
4900
5300
ENDCHAR
STARTCHAR 5091
ENCODING 20625
SWIDTH 960 0
DWIDTH 10 0
BBX 9 9 1 -1
BITMAP
2D00
2B80
5500
C780
4900
4200
5F80
4B00
5280
ENDCHAR
STARTCHAR 5098
ENCODING 20632
SWIDTH 960 0
DWIDTH 10 0
BBX 9 9 1 -1
BITMAP
0800
3600
C980
4900
AA80
4900
AA80
FF80
0800
ENDCHAR
STARTCHAR 5099
ENCODING 20633
SWIDTH 960 0
DWIDTH 10 0
BBX 10 9 0 -1
BITMAP
2480
2FC0
4480
5FC0
D000
57C0
5540
57C0
5540
ENDCHAR
STARTCHAR 509A
ENCODING 20634
SWIDTH 960 0
DWIDTH 10 0
BBX 9 9 1 -1
BITMAP
2900
3D00
4380
D680
4280
5680
4900
5500
4280
ENDCHAR
STARTCHAR 50AC
ENCODING 20652
SWIDTH 960 0
DWIDTH 10 0
BBX 9 9 1 -1
BITMAP
2A80
2A80
4F80
4500
CF80
5A00
4F00
4A00
4F80
ENDCHAR
STARTCHAR 50AD
ENCODING 20653
SWIDTH 960 0
DWIDTH 10 0
BBX 9 9 1 -1
BITMAP
2400
3F80
5200
5700
D980
5700
5A80
5F80
4A80
ENDCHAR
STARTCHAR 50B2
ENCODING 20658
SWIDTH 960 0
DWIDTH 10 0
BBX 10 9 0 -1
BITMAP
2880
3E80
49C0
5F40
C940
4F40
4A80
4A80
5740
ENDCHAR
STARTCHAR 50B3
ENCODING 20659
SWIDTH 960 0
DWIDTH 10 0
BBX 9 9 1 -1
BITMAP
2400
3F80
4B00
4D00
DE80
4100
5F80
4900
4300
ENDCHAR
STARTCHAR 50B4
ENCODING 20660
SWIDTH 960 0
DWIDTH 10 0
BBX 9 9 1 -1
BITMAP
3F80
5000
5700
D500
5F80
5A80
5F80
5000
5F80
ENDCHAR
STARTCHAR 50B5
ENCODING 20661
SWIDTH 960 0
DWIDTH 10 0
BBX 9 9 1 -1
BITMAP
2400
2F00
4400
5F80
C900
4F00
4900
4F00
5080
ENDCHAR
STARTCHAR 50B7
ENCODING 20663
SWIDTH 960 0
DWIDTH 10 0
BBX 9 9 1 -1
BITMAP
2800
2F80
5500
4500
DF80
4800
4F80
5280
4580
ENDCHAR
STARTCHAR 50BE
ENCODING 20670
SWIDTH 960 0
DWIDTH 10 0
BBX 9 9 1 -1
BITMAP
2780
2100
5380
5A80
D380
5280
5B80
4000
4280
ENDCHAR
STARTCHAR 50C2
ENCODING 20674
SWIDTH 960 0
DWIDTH 10 0
BBX 10 9 0 -1
BITMAP
2200
2F80
4A80
5FC0
CA80
5FC0
4500
4300
5CC0
ENDCHAR
STARTCHAR 50C5
ENCODING 20677
SWIDTH 960 0
DWIDTH 10 0
BBX 9 9 1 -1
BITMAP
2A00
3F80
5F00
5500
DF00
4400
5F00
4400
5F80
ENDCHAR
STARTCHAR 50C9
ENCODING 20681
SWIDTH 960 0
DWIDTH 10 0
BBX 9 9 1 -1
BITMAP
0800
3600
DD80
0000
F780
9480
F780
4200
9480
ENDCHAR
STARTCHAR 50CA
ENCODING 20682
SWIDTH 960 0
DWIDTH 10 0
BBX 10 9 0 -1
BITMAP
2F80
2500
4F80
4A80
CF80
4700
4980
5640
4780
ENDCHAR
STARTCHAR 50CD
ENCODING 20685
SWIDTH 960 0
DWIDTH 10 0
BBX 10 9 0 -1
BITMAP
2F00
2500
5FC0
5540
DF40
5540
5F40
4540
5EC0
ENDCHAR
STARTCHAR 50CF
ENCODING 20687
SWIDTH 960 0
DWIDTH 10 0
BBX 9 9 1 -1
BITMAP
2600
2A00
5F80
4A80
CF80
4600
5B80
4500
5A80
ENDCHAR
STARTCHAR 50D1
ENCODING 20689
SWIDTH 960 0
DWIDTH 10 0
BBX 9 9 1 -1
BITMAP
2F00
2400
5F80
4900
D680
4000
5F80
5680
5180
ENDCHAR
STARTCHAR 50D5
ENCODING 20693
SWIDTH 960 0
DWIDTH 10 0
BBX 9 9 1 -1
BITMAP
2A80
2200
4F80
4500
CF80
4200
4F80
4500
4880
ENDCHAR
STARTCHAR 50D6
ENCODING 20694
SWIDTH 960 0
DWIDTH 10 0
BBX 9 9 1 -1
BITMAP
2400
3F80
4F00
4900
CF00
4600
5F80
4900
4F00
ENDCHAR
STARTCHAR 50DA
ENCODING 20698
SWIDTH 960 0
DWIDTH 10 0
BBX 9 9 1 -1
BITMAP
2400
3F80
5680
4F00
D980
4F00
4400
5500
4C80
ENDCHAR
STARTCHAR 50DE
ENCODING 20702
SWIDTH 960 0
DWIDTH 10 0
BBX 9 9 1 -1
BITMAP
2F00
2500
4E00
4A00
CF00
4900
5F80
5080
4A80
ENDCHAR
STARTCHAR 50E3
ENCODING 20707
SWIDTH 960 0
DWIDTH 10 0
BBX 9 9 1 -1
BITMAP
2900
3B80
4900
5B80
C900
5E80
4900
4900
4F00
ENDCHAR
STARTCHAR 50E5
ENCODING 20709
SWIDTH 960 0
DWIDTH 10 0
BBX 9 9 1 -1
BITMAP
2400
2F00
5F80
4900
DF80
4900
5F80
4A00
5380
ENDCHAR
STARTCHAR 50E7
ENCODING 20711
SWIDTH 960 0
DWIDTH 10 0
BBX 9 9 1 -1
BITMAP
2500
2F80
4A80
4F80
CA80
4F80
4500
4500
4700
ENDCHAR
STARTCHAR 50ED
ENCODING 20717
SWIDTH 960 0
DWIDTH 10 0
BBX 9 9 1 -1
BITMAP
2900
3B00
5F80
4900
D280
4F00
4900
4900
4F00
ENDCHAR
STARTCHAR 50EE
ENCODING 20718
SWIDTH 960 0
DWIDTH 10 0
BBX 9 9 1 -1
BITMAP
2400
3F80
4900
5F80
CD00
4F00
4F00
4400
5F80
ENDCHAR
STARTCHAR 50F5
ENCODING 20725
SWIDTH 960 0
DWIDTH 10 0
BBX 9 9 1 -1
BITMAP
2F80
2D00
4F00
4000
DF80
4D00
4F00
4000
5F80
ENDCHAR
STARTCHAR 50F9
ENCODING 20729
SWIDTH 960 0
DWIDTH 10 0
BBX 9 9 1 -1
BITMAP
2F80
2500
4F80
4F80
C500
4700
4500
4700
4880
ENDCHAR
STARTCHAR 50FB
ENCODING 20731
SWIDTH 960 0
DWIDTH 10 0
BBX 9 9 1 -1
BITMAP
2100
3D00
5780
5E80
D380
7D00
5500
5F80
4100
ENDCHAR
STARTCHAR 5100
ENCODING 20736
SWIDTH 960 0
DWIDTH 10 0
BBX 9 9 1 -1
BITMAP
2500
2F80
4200
4F80
C200
5F80
4A80
5D00
4A80
ENDCHAR
STARTCHAR 5101
ENCODING 20737
SWIDTH 960 0
DWIDTH 10 0
BBX 9 9 1 -1
BITMAP
2500
2F80
5A00
4F80
C000
4D80
4F80
4880
4980
ENDCHAR
STARTCHAR 5102
ENCODING 20738
SWIDTH 960 0
DWIDTH 10 0
BBX 9 9 1 -1
BITMAP
2500
2F80
4A80
4F80
C800
4F80
4A80
4B00
5280
ENDCHAR
STARTCHAR 5104
ENCODING 20740
SWIDTH 960 0
DWIDTH 10 0
BBX 9 9 1 -1
BITMAP
2200
2F80
4500
5F80
C900
4F00
4200
5480
5680
ENDCHAR
STARTCHAR 5109
ENCODING 20745
SWIDTH 960 0
DWIDTH 10 0
BBX 9 9 1 -1
BITMAP
2600
2900
5680
4000
CF80
4A80
4F80
4500
4A80
ENDCHAR
STARTCHAR 5112
ENCODING 20754
SWIDTH 960 0
DWIDTH 10 0
BBX 10 9 0 -1
BITMAP
3FC0
2200
5FC0
5240
C000
5FC0
4400
5FC0
5540
ENDCHAR
STARTCHAR 5114
ENCODING 20756
SWIDTH 960 0
DWIDTH 10 0
BBX 9 9 1 -1
BITMAP
2400
2F00
5F80
4080
CF00
4400
5F80
4D00
4300
ENDCHAR
STARTCHAR 5115
ENCODING 20757
SWIDTH 960 0
DWIDTH 10 0
BBX 9 9 1 -1
BITMAP
2400
3F80
4D00
5280
C900
4F00
4900
4F00
5100
ENDCHAR
STARTCHAR 5116
ENCODING 20758
SWIDTH 960 0
DWIDTH 10 0
BBX 9 9 1 -1
BITMAP
2D00
2980
4C00
4980
CC00
4000
4F80
4A80
5F80
ENDCHAR
STARTCHAR 5118
ENCODING 20760
SWIDTH 960 0
DWIDTH 10 0
BBX 10 9 0 -1
BITMAP
2200
2780
5AC0
4780
CA80
5540
4F80
4A80
5FC0
ENDCHAR
STARTCHAR 511A
ENCODING 20762
SWIDTH 960 0
DWIDTH 10 0
BBX 10 9 0 -1
BITMAP
2500
2FC0
4A80
5FC0
D440
4780
4C80
4380
4E00
ENDCHAR
STARTCHAR 511F
ENCODING 20767
SWIDTH 960 0
DWIDTH 10 0
BBX 9 9 1 -1
BITMAP
2900
3F80
5680
4000
CF00
4900
4900
4F00
5080
ENDCHAR
STARTCHAR 5121
ENCODING 20769
SWIDTH 960 0
DWIDTH 10 0
BBX 9 9 1 -1
BITMAP
2F00
2D00
4B00
4F00
C000
5F80
5680
5D80
5F80
ENDCHAR
STARTCHAR 512A
ENCODING 20778
SWIDTH 960 0
DWIDTH 10 0
BBX 9 9 1 -1
BITMAP
2F00
2400
4F00
4900
DF80
5680
4900
4600
5980
ENDCHAR
STARTCHAR 5132
ENCODING 20786
SWIDTH 960 0
DWIDTH 10 0
BBX 10 9 0 -1
BITMAP
2C80
21C0
5C80
43C0
DD00
41C0
5F40
5540
5DC0
ENDCHAR
STARTCHAR 5137
ENCODING 20791
SWIDTH 960 0
DWIDTH 10 0
BBX 10 9 0 -1
BITMAP
2EC0
2000
4EC0
4100
CFC0
4A80
4FC0
4C80
56C0
ENDCHAR
STARTCHAR 513A
ENCODING 20794
SWIDTH 960 0
DWIDTH 10 0
BBX 9 9 1 -1
BITMAP
2A80
5D00
DF80
5500
5F80
4500
5F80
4D00
5780
ENDCHAR
STARTCHAR 513B
ENCODING 20795
SWIDTH 960 0
DWIDTH 10 0
BBX 10 9 0 -1
BITMAP
2A80
3FC0
5540
4F80
CA80
4F80
4200
5FC0
5540
ENDCHAR
STARTCHAR 513C
ENCODING 20796
SWIDTH 960 0
DWIDTH 10 0
BBX 10 9 0 -1
BITMAP
2EC0
2AC0
4EC0
4100
CFC0
48C0
4F40
4A80
5540
ENDCHAR
STARTCHAR 513F
ENCODING 20799
SWIDTH 960 0
DWIDTH 10 0
BBX 9 9 1 -1
BITMAP
2400
2400
2400
2400
2400
2400
4400
4480
8780
ENDCHAR
STARTCHAR 5140
ENCODING 20800
SWIDTH 960 0
DWIDTH 10 0
BBX 9 8 1 -1
BITMAP
FF80
2400
2400
2400
2400
4400
4480
8780
ENDCHAR
STARTCHAR 5141
ENCODING 20801
SWIDTH 960 0
DWIDTH 10 0
BBX 9 9 1 -1
BITMAP
1000
1000
2200
FF00
2500
2400
2400
4480
8780
ENDCHAR
STARTCHAR 5143
ENCODING 20803
SWIDTH 960 0
DWIDTH 10 0
BBX 9 9 1 -1
BITMAP
7F00
0000
0000
FF80
1400
1400
2400
4480
8780
ENDCHAR
STARTCHAR 5144
ENCODING 20804
SWIDTH 960 0
DWIDTH 10 0
BBX 9 9 1 -1
BITMAP
7F00
4100
4100
4100
7F00
1400
1400
2480
C780
ENDCHAR
STARTCHAR 5145
ENCODING 20805
SWIDTH 960 0
DWIDTH 10 0
BBX 9 9 1 -1
BITMAP
0800
FF80
1000
2200
FF00
1480
1400
2480
C780
ENDCHAR
STARTCHAR 5146
ENCODING 20806
SWIDTH 960 0
DWIDTH 10 0
BBX 9 9 1 -1
BITMAP
1400
5500
3600
1400
3600
5500
1400
2480
C780
ENDCHAR
STARTCHAR 5147
ENCODING 20807
SWIDTH 960 0
DWIDTH 10 0
BBX 9 9 1 -1
BITMAP
4100
5500
4900
5500
4100
7F00
1400
2480
C780
ENDCHAR
STARTCHAR 5148
ENCODING 20808
SWIDTH 960 0
DWIDTH 10 0
BBX 9 9 1 -1
BITMAP
0800
2800
7F00
0800
FF80
1400
1400
2480
C780
ENDCHAR
STARTCHAR 5149
ENCODING 20809
SWIDTH 960 0
DWIDTH 10 0
BBX 9 9 1 -1
BITMAP
0800
4900
2A00
FF80
1400
1400
2400
4480
8780
ENDCHAR
STARTCHAR 514B
ENCODING 20811
SWIDTH 960 0
DWIDTH 10 0
BBX 9 9 1 -1
BITMAP
0800
FF80
0800
3E00
2200
3E00
1400
2480
C780
ENDCHAR
STARTCHAR 514C
ENCODING 20812
SWIDTH 960 0
DWIDTH 10 0
BBX 9 9 1 -1
BITMAP
2200
4100
BE80
2200
2200
3E00
1400
2480
C780
ENDCHAR
STARTCHAR 514D
ENCODING 20813
SWIDTH 960 0
DWIDTH 10 0
BBX 9 9 1 -1
BITMAP
3C00
4400
8800
7F00
4900
7F00
1400
2480
C780
ENDCHAR
STARTCHAR 514E
ENCODING 20814
SWIDTH 960 0
DWIDTH 10 0
BBX 9 9 1 -1
BITMAP
0600
7800
0800
7F00
4900
7F00
1400
2500
C780
ENDCHAR
STARTCHAR 5150
ENCODING 20816
SWIDTH 960 0
DWIDTH 10 0
BBX 9 9 1 -1
BITMAP
5E00
5200
5E00
5200
5E00
2400
2400
4480
8780
ENDCHAR
STARTCHAR 5152
ENCODING 20818
SWIDTH 960 0
DWIDTH 10 0
BBX 9 9 1 -1
BITMAP
1000
6700
4100
7700
4100
7F00
1400
2480
C780
ENDCHAR
STARTCHAR 5154
ENCODING 20820
SWIDTH 960 0
DWIDTH 10 0
BBX 9 9 1 -1
BITMAP
3C00
4400
FF00
4900
7F00
1600
1500
2480
C780
ENDCHAR
STARTCHAR 515A
ENCODING 20826
SWIDTH 960 0
DWIDTH 10 0
BBX 9 9 1 -1
BITMAP
4900
2A00
FF80
8080
3E00
2200
3E00
1480
E780
ENDCHAR
STARTCHAR 515C
ENCODING 20828
SWIDTH 960 0
DWIDTH 10 0
BBX 9 9 1 -1
BITMAP
0800
5D80
9480
9C80
9480
DD80
0000
2480
C780
ENDCHAR
STARTCHAR 5162
ENCODING 20834
SWIDTH 960 0
DWIDTH 10 0
BBX 9 9 1 -1
BITMAP
4200
E780
4200
E780
A480
E780
4300
A500
8980
ENDCHAR
STARTCHAR 5165
ENCODING 20837
SWIDTH 960 0
DWIDTH 10 0
BBX 9 9 1 -1
BITMAP
7800
0800
0800
1400
1400
2200
2200
4100
8080
ENDCHAR
STARTCHAR 5168
ENCODING 20840
SWIDTH 960 0
DWIDTH 10 0
BBX 9 9 1 -1
BITMAP
0800
1400
2200
C180
3E00
0800
3E00
0800
7F00
ENDCHAR
STARTCHAR 5169
ENCODING 20841
SWIDTH 960 0
DWIDTH 10 0
BBX 9 9 1 -1
BITMAP
FF80
0800
FF80
8880
EE80
AA80
DD80
8880
8980
ENDCHAR
STARTCHAR 516A
ENCODING 20842
SWIDTH 960 0
DWIDTH 10 0
BBX 9 9 1 -1
BITMAP
7C00
2200
DD80
0000
F280
B280
D500
B280
9280
ENDCHAR
STARTCHAR 516B
ENCODING 20843
SWIDTH 960 0
DWIDTH 10 0
BBX 9 9 1 -1
BITMAP
0400
2400
2400
2200
2200
4200
4100
4100
8080
ENDCHAR
STARTCHAR 516C
ENCODING 20844
SWIDTH 960 0
DWIDTH 10 0
BBX 9 9 1 -1
BITMAP
0C00
2200
2200
4900
8880
1000
1200
2700
7900
ENDCHAR
STARTCHAR 516D
ENCODING 20845
SWIDTH 960 0
DWIDTH 10 0
BBX 9 9 1 -1
BITMAP
0800
0800
FF80
0000
2200
2200
4100
4100
8080
ENDCHAR
STARTCHAR 516E
ENCODING 20846
SWIDTH 960 0
DWIDTH 10 0
BBX 9 9 1 -1
BITMAP
2600
2200
4100
BE80
1000
1E00
2200
0200
0C00
ENDCHAR
STARTCHAR 5171
ENCODING 20849
SWIDTH 960 0
DWIDTH 10 0
BBX 9 9 1 -1
BITMAP
2200
2200
7F00
2200
2200
FF80
0000
2200
C180
ENDCHAR
STARTCHAR 5175
ENCODING 20853
SWIDTH 960 0
DWIDTH 10 0
BBX 9 9 1 -1
BITMAP
0600
3800
2000
3F00
2400
2400
FF80
2200
4100
ENDCHAR
STARTCHAR 5176
ENCODING 20854
SWIDTH 960 0
DWIDTH 10 0
BBX 9 9 1 -1
BITMAP
2200
7F00
2200
3E00
2200
2200
FF80
4100
8080
ENDCHAR
STARTCHAR 5177
ENCODING 20855
SWIDTH 960 0
DWIDTH 10 0
BBX 8 9 1 -1
BITMAP
7E
42
7E
42
7E
42
FF
42
81
ENDCHAR
STARTCHAR 5178
ENCODING 20856
SWIDTH 960 0
DWIDTH 10 0
BBX 9 9 1 -1
BITMAP
1400
1400
7F00
5500
7F00
5500
FF80
2200
C180
ENDCHAR
STARTCHAR 517C
ENCODING 20860
SWIDTH 960 0
DWIDTH 10 0
BBX 9 9 1 -1
BITMAP
2200
FF80
1400
7F00
9580
7F00
1400
3600
D580
ENDCHAR
STARTCHAR 5180
ENCODING 20864
SWIDTH 960 0
DWIDTH 10 0
BBX 9 9 1 -1
BITMAP
1480
F700
1400
FF80
2A00
7F00
1400
FF80
4100
ENDCHAR
STARTCHAR 5182
ENCODING 20866
SWIDTH 960 0
DWIDTH 10 0
BBX 9 9 1 -1
BITMAP
FF80
8080
8080
8080
8080
8080
8080
8080
8180
ENDCHAR
STARTCHAR 5185
ENCODING 20869
SWIDTH 960 0
DWIDTH 10 0
BBX 9 9 1 -1
BITMAP
0800
0800
FF80
8880
9480
A280
C180
8080
8180
ENDCHAR
STARTCHAR 5186
ENCODING 20870
SWIDTH 960 0
DWIDTH 10 0
BBX 9 9 1 -1
BITMAP
FF80
8880
8880
8880
FF80
8080
8080
8080
8180
ENDCHAR
STARTCHAR 5189
ENCODING 20873
SWIDTH 960 0
DWIDTH 10 0
BBX 9 9 1 -1
BITMAP
0800
7F00
4900
7F00
4900
FF80
4100
4100
4300
ENDCHAR
STARTCHAR 518A
ENCODING 20874
SWIDTH 960 0
DWIDTH 10 0
BBX 9 9 1 -1
BITMAP
7F00
5500
5500
5500
FF80
5500
5500
5500
4300
ENDCHAR
STARTCHAR 518C
ENCODING 20876
SWIDTH 960 0
DWIDTH 10 0
BBX 9 9 1 -1
BITMAP
7700
5500
5500
5500
FF80
5500
5500
5500
AB00
ENDCHAR
STARTCHAR 518D
ENCODING 20877
SWIDTH 960 0
DWIDTH 10 0
BBX 9 9 1 -1
BITMAP
FF80
0800
7F00
4900
7F00
4900
FF80
4100
4300
ENDCHAR
STARTCHAR 518F
ENCODING 20879
SWIDTH 960 0
DWIDTH 10 0
BBX 9 9 1 -1
BITMAP
FF80
9480
A480
C680
8080
BE80
A280
BE80
8180
ENDCHAR
STARTCHAR 5190
ENCODING 20880
SWIDTH 960 0
DWIDTH 10 0
BBX 8 9 1 -1
BITMAP
FF
81
BD
00
7E
42
7E
42
46
ENDCHAR
STARTCHAR 5191
ENCODING 20881
SWIDTH 960 0
DWIDTH 10 0
BBX 9 9 1 -1
BITMAP
0800
FF80
8880
FF80
0000
7F00
4100
5D00
4300
ENDCHAR
STARTCHAR 5192
ENCODING 20882
SWIDTH 960 0
DWIDTH 10 0
BBX 9 9 1 -1
BITMAP
FF80
8080
FF80
0000
7F00
4100
7F00
4100
7F00
ENDCHAR
STARTCHAR 5193
ENCODING 20883
SWIDTH 960 0
DWIDTH 10 0
BBX 9 9 1 -1
BITMAP
2200
7F00
2200
FF80
0800
3E00
2A00
FF80
2200
ENDCHAR
STARTCHAR 5195
ENCODING 20885
SWIDTH 960 0
DWIDTH 10 0
BBX 9 9 1 -1
BITMAP
FF80
8080
3E00
4800
FF00
4900
7F00
1480
E780
ENDCHAR
STARTCHAR 5196
ENCODING 20886
SWIDTH 960 0
DWIDTH 10 0
BBX 9 3 1 2
BITMAP
FF80
8080
8080
ENDCHAR
STARTCHAR 5197
ENCODING 20887
SWIDTH 960 0
DWIDTH 10 0
BBX 9 9 1 -1
BITMAP
FF80
8080
3C00
2400
2400
2400
2400
4480
8780
ENDCHAR
STARTCHAR 5199
ENCODING 20889
SWIDTH 960 0
DWIDTH 10 0
BBX 9 9 1 -1
BITMAP
FF80
9080
1E00
2000
3E00
0200
FF80
0200
0C00
ENDCHAR
STARTCHAR 51A0
ENCODING 20896
SWIDTH 960 0
DWIDTH 10 0
BBX 9 9 1 -1
BITMAP
FF80
8080
7100
0780
F900
5500
5300
5080
9F80
ENDCHAR
STARTCHAR 51A2
ENCODING 20898
SWIDTH 960 0
DWIDTH 10 0
BBX 9 9 1 -1
BITMAP
FF80
8080
7E00
1800
EC80
5500
3600
CD80
1800
ENDCHAR
STARTCHAR 51A4
ENCODING 20900
SWIDTH 960 0
DWIDTH 10 0
BBX 9 9 1 -1
BITMAP
FF80
BC80
4400
FF00
4900
7F00
0A00
3900
CF80
ENDCHAR
STARTCHAR 51A5
ENCODING 20901
SWIDTH 960 0
DWIDTH 10 0
BBX 9 9 1 -1
BITMAP
FF80
A280
3E00
2200
3E00
0800
FF80
2200
4100
ENDCHAR
STARTCHAR 51A6
ENCODING 20902
SWIDTH 960 0
DWIDTH 10 0
BBX 9 9 1 -1
BITMAP
FF80
8080
7300
0200
FF00
5500
5200
5500
8F80
ENDCHAR
STARTCHAR 51A8
ENCODING 20904
SWIDTH 960 0
DWIDTH 10 0
BBX 9 9 1 -1
BITMAP
FF80
8080
7F00
2200
7F00
4900
7F00
4900
7F00
ENDCHAR
STARTCHAR 51A9
ENCODING 20905
SWIDTH 960 0
DWIDTH 10 0
BBX 9 9 1 -1
BITMAP
FF80
9080
6700
4100
7700
4100
7F80
4080
AA80
ENDCHAR
STARTCHAR 51AA
ENCODING 20906
SWIDTH 960 0
DWIDTH 10 0
BBX 9 9 1 -1
BITMAP
FF80
9480
7F00
2200
FF80
4900
BE80
2A00
2A00
ENDCHAR
STARTCHAR 51AB
ENCODING 20907
SWIDTH 960 0
DWIDTH 10 0
BBX 4 8 3 -1
BITMAP
80
40
00
10
20
20
40
80
ENDCHAR
STARTCHAR 51AC
ENCODING 20908
SWIDTH 960 0
DWIDTH 10 0
BBX 9 9 1 -1
BITMAP
1E00
2200
D400
0800
3600
C980
0400
1800
0400
ENDCHAR
STARTCHAR 51B0
ENCODING 20912
SWIDTH 960 0
DWIDTH 10 0
BBX 9 9 1 -1
BITMAP
0200
8200
4280
1F00
0600
4B00
4B00
9280
8600
ENDCHAR
STARTCHAR 51B1
ENCODING 20913
SWIDTH 960 0
DWIDTH 10 0
BBX 9 8 1 -1
BITMAP
9F80
4400
0F00
0900
4900
5E00
8200
9F80
ENDCHAR
STARTCHAR 51B2
ENCODING 20914
SWIDTH 960 0
DWIDTH 10 0
BBX 8 9 1 -1
BITMAP
04
84
5F
15
15
5F
44
84
84
ENDCHAR
STARTCHAR 51B3
ENCODING 20915
SWIDTH 960 0
DWIDTH 10 0
BBX 9 9 1 -1
BITMAP
0400
8400
5F00
0500
1F80
4400
4400
8A00
B180
ENDCHAR
STARTCHAR 51B4
ENCODING 20916
SWIDTH 960 0
DWIDTH 10 0
BBX 9 9 1 -1
BITMAP
9F00
4A00
0A00
3F80
0600
0A00
4A00
9200
A600
ENDCHAR
STARTCHAR 51B5
ENCODING 20917
SWIDTH 960 0
DWIDTH 10 0
BBX 9 8 1 -1
BITMAP
9F00
5100
1100
1F00
4A00
4A00
9280
A380
ENDCHAR
STARTCHAR 51B6
ENCODING 20918
SWIDTH 960 0
DWIDTH 10 0
BBX 9 9 1 -1
BITMAP
0400
8800
5100
1E80
0000
5F00
5100
9100
9F00
ENDCHAR
STARTCHAR 51B7
ENCODING 20919
SWIDTH 960 0
DWIDTH 10 0
BBX 9 9 1 -1
BITMAP
0600
8900
5680
0000
1F00
4500
4500
8700
8400
ENDCHAR
STARTCHAR 51BD
ENCODING 20925
SWIDTH 960 0
DWIDTH 10 0
BBX 10 9 0 -1
BITMAP
9E40
4940
0F40
0B40
0B40
5740
4540
4840
90C0
ENDCHAR
STARTCHAR 51C4
ENCODING 20932
SWIDTH 960 0
DWIDTH 10 0
BBX 9 9 1 -1
BITMAP
0400
9F00
A580
1F00
0400
5F80
4900
8700
9880
ENDCHAR
STARTCHAR 51C5
ENCODING 20933
SWIDTH 960 0
DWIDTH 10 0
BBX 10 9 0 -1
BITMAP
9FC0
5240
1FC0
1240
1740
5540
5740
5040
9FC0
ENDCHAR
STARTCHAR 51C6
ENCODING 20934
SWIDTH 960 0
DWIDTH 10 0
BBX 9 9 1 -1
BITMAP
0500
8A00
5F80
0A00
0F00
4A00
4F00
8A00
8F80
ENDCHAR
STARTCHAR 51C9
ENCODING 20937
SWIDTH 960 0
DWIDTH 10 0
BBX 9 9 1 -1
BITMAP
8400
BF80
0000
1F00
1100
5F00
4400
9500
A480
ENDCHAR
STARTCHAR 51CB
ENCODING 20939
SWIDTH 960 0
DWIDTH 10 0
BBX 9 9 1 -1
BITMAP
9F80
5480
1E80
1480
1E80
5080
5E80
9A80
AE80
ENDCHAR
STARTCHAR 51CC
ENCODING 20940
SWIDTH 960 0
DWIDTH 10 0
BBX 9 9 1 -1
BITMAP
0400
8F00
4400
1F80
0A00
5780
4900
8600
9980
ENDCHAR
STARTCHAR 51CD
ENCODING 20941
SWIDTH 960 0
DWIDTH 10 0
BBX 9 9 1 -1
BITMAP
0400
BF80
5500
1F00
1500
5F00
4E00
9500
A480
ENDCHAR
STARTCHAR 51D6
ENCODING 20950
SWIDTH 960 0
DWIDTH 10 0
BBX 9 9 1 -1
BITMAP
8500
4F80
1A00
4A00
8F80
0000
0800
FF80
0800
ENDCHAR
STARTCHAR 51DB
ENCODING 20955
SWIDTH 960 0
DWIDTH 10 0
BBX 10 9 0 -1
BITMAP
0200
9FC0
4A80
0880
0F80
0000
5FC0
4A80
9640
ENDCHAR
STARTCHAR 51DD
ENCODING 20957
SWIDTH 960 0
DWIDTH 10 0
BBX 9 9 1 -1
BITMAP
9380
5C80
1100
0B80
0C80
5900
4D80
8900
9280
ENDCHAR
STARTCHAR 51E0
ENCODING 20960
SWIDTH 960 0
DWIDTH 10 0
BBX 9 8 1 -1
BITMAP
3C00
2400
2400
2400
2400
2400
4480
8780
ENDCHAR
STARTCHAR 51E1
ENCODING 20961
SWIDTH 960 0
DWIDTH 10 0
BBX 9 9 1 -1
BITMAP
7E00
4200
4200
5200
4A00
4200
4200
8280
8380
ENDCHAR
STARTCHAR 51E6
ENCODING 20966
SWIDTH 960 0
DWIDTH 10 0
BBX 9 9 1 -1
BITMAP
4000
7700
5500
5500
D500
2500
2980
5000
8F80
ENDCHAR
STARTCHAR 51E7
ENCODING 20967
SWIDTH 960 0
DWIDTH 10 0
BBX 9 9 1 -1
BITMAP
FF80
8080
8880
BE80
AA80
AA80
AA80
AA80
8880
ENDCHAR
STARTCHAR 51E9
ENCODING 20969
SWIDTH 960 0
DWIDTH 10 0
BBX 9 9 1 -1
BITMAP
7F00
4100
4900
7F00
4900
5D00
6B00
8900
8080
ENDCHAR
STARTCHAR 51EA
ENCODING 20970
SWIDTH 960 0
DWIDTH 10 0
BBX 9 9 1 -1
BITMAP
7F00
4100
4500
4500
5700
5500
5500
9E80
8080
ENDCHAR
STARTCHAR 51ED
ENCODING 20973
SWIDTH 960 0
DWIDTH 10 0
BBX 9 9 1 -1
BITMAP
2F00
4400
DF80
4400
4F00
0000
3C00
2480
C780
ENDCHAR
STARTCHAR 51F0
ENCODING 20976
SWIDTH 960 0
DWIDTH 10 0
BBX 9 9 1 -1
BITMAP
FF00
9100
BD00
A500
BD00
8100
BD00
9100
BC80
ENDCHAR
STARTCHAR 51F1
ENCODING 20977
SWIDTH 960 0
DWIDTH 10 0
BBX 9 9 1 -1
BITMAP
B700
B500
F500
0500
F500
9500
F500
6500
F580
ENDCHAR
STARTCHAR 51F5
ENCODING 20981
SWIDTH 960 0
DWIDTH 10 0
BBX 8 8 1 -1
BITMAP
81
81
81
81
81
81
81
FF
ENDCHAR
STARTCHAR 51F6
ENCODING 20982
SWIDTH 960 0
DWIDTH 10 0
BBX 9 8 1 -1
BITMAP
8280
A280
9480
8880
9480
A280
8080
FF80
ENDCHAR
STARTCHAR 51F8
ENCODING 20984
SWIDTH 960 0
DWIDTH 10 0
BBX 9 9 1 -1
BITMAP
3E00
2200
2200
E380
8080
8080
8080
8080
FF80
ENDCHAR
STARTCHAR 51F9
ENCODING 20985
SWIDTH 960 0
DWIDTH 10 0
BBX 9 9 1 -1
BITMAP
F780
9480
9480
9480
9C80
8080
8080
8080
FF80
ENDCHAR
STARTCHAR 51FA
ENCODING 20986
SWIDTH 960 0
DWIDTH 10 0
BBX 9 9 1 -1
BITMAP
0800
4900
4900
7F00
0800
0800
8880
8880
FF80
ENDCHAR
STARTCHAR 51FD
ENCODING 20989
SWIDTH 960 0
DWIDTH 10 0
BBX 9 9 1 -1
BITMAP
FF80
1000
9880
AA80
8880
9C80
AA80
9880
FF80
ENDCHAR
STARTCHAR 51FE
ENCODING 20990
SWIDTH 960 0
DWIDTH 10 0
BBX 9 9 1 -1
BITMAP
3E00
0400
8880
EF80
A980
AA80
ED80
9880
FF80
ENDCHAR
STARTCHAR 5200
ENCODING 20992
SWIDTH 960 0
DWIDTH 10 0
BBX 8 8 1 -1
BITMAP
FF
11
11
11
21
21
41
86
ENDCHAR
STARTCHAR 5203
ENCODING 20995
SWIDTH 960 0
DWIDTH 10 0
BBX 8 8 1 -1
BITMAP
FF
11
91
51
21
31
41
86
ENDCHAR
STARTCHAR 5204
ENCODING 20996
SWIDTH 960 0
DWIDTH 10 0
BBX 9 8 1 -1
BITMAP
FE00
1200
9200
5200
3200
2F80
4200
8E00
ENDCHAR
STARTCHAR 5206
ENCODING 20998
SWIDTH 960 0
DWIDTH 10 0
BBX 9 9 1 -1
BITMAP
1400
2200
4100
8080
7E00
1200
1200
2200
4600
ENDCHAR
STARTCHAR 5207
ENCODING 20999
SWIDTH 960 0
DWIDTH 10 0
BBX 9 8 1 -1
BITMAP
4F80
4480
F480
4480
4480
5480
6480
0980
ENDCHAR
STARTCHAR 5208
ENCODING 21000
SWIDTH 960 0
DWIDTH 10 0
BBX 9 9 1 -1
BITMAP
1080
1480
9480
6480
2480
2480
5080
5080
8180
ENDCHAR
STARTCHAR 520A
ENCODING 21002
SWIDTH 960 0
DWIDTH 10 0
BBX 9 9 1 -1
BITMAP
0080
FA80
2280
2280
FA80
2280
2280
2080
2180
ENDCHAR
STARTCHAR 520B
ENCODING 21003
SWIDTH 960 0
DWIDTH 10 0
BBX 9 9 1 -1
BITMAP
1080
E480
2480
F480
2480
2480
2480
4080
8180
ENDCHAR
STARTCHAR 520E
ENCODING 21006
SWIDTH 960 0
DWIDTH 10 0
BBX 10 9 0 -1
BITMAP
4040
4140
7D40
D540
5540
5540
9540
2440
0CC0
ENDCHAR
STARTCHAR 5211
ENCODING 21009
SWIDTH 960 0
DWIDTH 10 0
BBX 9 9 1 -1
BITMAP
F880
5280
5280
FA80
5280
5280
5080
5080
5180
ENDCHAR
STARTCHAR 5214
ENCODING 21012
SWIDTH 960 0
DWIDTH 10 0
BBX 9 9 1 -1
BITMAP
2080
2280
FA80
2A80
FE80
2280
3080
4880
8180
ENDCHAR
STARTCHAR 5217
ENCODING 21015
SWIDTH 960 0
DWIDTH 10 0
BBX 9 9 1 -1
BITMAP
F880
4480
7480
5480
7480
9480
1080
2080
4180
ENDCHAR
STARTCHAR 521D
ENCODING 21021
SWIDTH 960 0
DWIDTH 10 0
BBX 9 9 1 -1
BITMAP
4000
4F80
F280
2280
5280
6280
D480
4480
4980
ENDCHAR
STARTCHAR 5224
ENCODING 21028
SWIDTH 960 0
DWIDTH 10 0
BBX 9 9 1 -1
BITMAP
A880
AA80
2280
FA80
2280
FA80
2080
2080
2180
ENDCHAR
STARTCHAR 5225
ENCODING 21029
SWIDTH 960 0
DWIDTH 10 0
BBX 9 9 1 -1
BITMAP
F080
9480
F480
4480
4480
7480
5480
9080
B180
ENDCHAR
STARTCHAR 5227
ENCODING 21031
SWIDTH 960 0
DWIDTH 10 0
BBX 9 9 1 -1
BITMAP
2000
2780
FA80
2280
FA80
2280
5280
F480
0980
ENDCHAR
STARTCHAR 5229
ENCODING 21033
SWIDTH 960 0
DWIDTH 10 0
BBX 9 9 1 -1
BITMAP
3880
E280
2280
FA80
2280
7280
6880
A080
2180
ENDCHAR
STARTCHAR 522A
ENCODING 21034
SWIDTH 960 0
DWIDTH 10 0
BBX 10 9 0 -1
BITMAP
7C40
5540
5540
FF40
5540
5540
5540
5440
44C0
ENDCHAR
STARTCHAR 522E
ENCODING 21038
SWIDTH 960 0
DWIDTH 10 0
BBX 9 9 1 -1
BITMAP
1880
E280
2280
FE80
2280
2280
FA80
8880
F980
ENDCHAR
STARTCHAR 5230
ENCODING 21040
SWIDTH 960 0
DWIDTH 10 0
BBX 9 9 1 -1
BITMAP
F880
2280
4A80
FA80
0280
2280
FA80
2080
F980
ENDCHAR
STARTCHAR 5233
ENCODING 21043
SWIDTH 960 0
DWIDTH 10 0
BBX 9 9 1 -1
BITMAP
2080
FA80
5280
EA80
0280
FE80
4280
7880
1180
ENDCHAR
STARTCHAR 5236
ENCODING 21046
SWIDTH 960 0
DWIDTH 10 0
BBX 9 9 1 -1
BITMAP
A080
FA80
2280
FA80
2280
FA80
AA80
A880
2180
ENDCHAR
STARTCHAR 5237
ENCODING 21047
SWIDTH 960 0
DWIDTH 10 0
BBX 9 9 1 -1
BITMAP
F880
8A80
FA80
A280
FA80
AA80
AA80
A880
2180
ENDCHAR
STARTCHAR 5238
ENCODING 21048
SWIDTH 960 0
DWIDTH 10 0
BBX 9 9 1 -1
BITMAP
4900
2A00
7F00
1400
FF80
4100
BE80
1200
6600
ENDCHAR
STARTCHAR 5239
ENCODING 21049
SWIDTH 960 0
DWIDTH 10 0
BBX 9 9 1 -1
BITMAP
4880
3280
2A80
C280
2280
FA80
7080
A880
2180
ENDCHAR
STARTCHAR 523A
ENCODING 21050
SWIDTH 960 0
DWIDTH 10 0
BBX 9 9 1 -1
BITMAP
2080
FA80
2280
FA80
AA80
AA80
7280
A880
2180
ENDCHAR
STARTCHAR 523B
ENCODING 21051
SWIDTH 960 0
DWIDTH 10 0
BBX 9 9 1 -1
BITMAP
2080
FA80
2280
4A80
3280
2280
CA80
1080
E980
ENDCHAR
STARTCHAR 5243
ENCODING 21059
SWIDTH 960 0
DWIDTH 10 0
BBX 9 9 1 -1
BITMAP
8880
5280
FA80
2A80
FA80
A280
FA80
6880
A980
ENDCHAR
STARTCHAR 5244
ENCODING 21060
SWIDTH 960 0
DWIDTH 10 0
BBX 9 9 1 -1
BITMAP
F880
0280
4A80
9280
4A80
0280
FA80
2080
F980
ENDCHAR
STARTCHAR 5247
ENCODING 21063
SWIDTH 960 0
DWIDTH 10 0
BBX 9 9 1 -1
BITMAP
F080
9480
F480
9480
F480
9480
F480
2080
9180
ENDCHAR
STARTCHAR 524A
ENCODING 21066
SWIDTH 960 0
DWIDTH 10 0
BBX 9 9 1 -1
BITMAP
A880
2280
FA80
8A80
FA80
8A80
FA80
8880
9980
ENDCHAR
STARTCHAR 524B
ENCODING 21067
SWIDTH 960 0
DWIDTH 10 0
BBX 9 9 1 -1
BITMAP
2080
FA80
2280
FA80
8A80
F880
5180
5000
8F80
ENDCHAR
STARTCHAR 524C
ENCODING 21068
SWIDTH 960 0
DWIDTH 10 0
BBX 9 9 1 -1
BITMAP
2080
FA80
2280
FA80
AA80
FA80
2280
7080
A980
ENDCHAR
STARTCHAR 524D
ENCODING 21069
SWIDTH 960 0
DWIDTH 10 0
BBX 9 9 1 -1
BITMAP
2200
FF80
0000
7100
5500
7500
5500
7100
5300
ENDCHAR
STARTCHAR 524F
ENCODING 21071
SWIDTH 960 0
DWIDTH 10 0
BBX 10 9 0 -1
BITMAP
8800
5780
FA80
5680
FA80
5380
52C0
5480
5580
ENDCHAR
STARTCHAR 5254
ENCODING 21076
SWIDTH 960 0
DWIDTH 10 0
BBX 10 9 0 -1
BITMAP
7C40
4540
7D40
4540
7D40
2140
7D40
AC40
54C0
ENDCHAR
STARTCHAR 5256
ENCODING 21078
SWIDTH 960 0
DWIDTH 10 0
BBX 9 9 1 -1
BITMAP
2080
FA80
5280
FE80
0280
7A80
4A80
4880
7980
ENDCHAR
STARTCHAR 525B
ENCODING 21083
SWIDTH 960 0
DWIDTH 10 0
BBX 9 9 1 -1
BITMAP
F880
8A80
DA80
FA80
AA80
AA80
A880
F880
8980
ENDCHAR
STARTCHAR 525E
ENCODING 21086
SWIDTH 960 0
DWIDTH 10 0
BBX 9 9 1 -1
BITMAP
2080
FA80
5280
8A80
FA80
1280
D280
D080
3180
ENDCHAR
STARTCHAR 5263
ENCODING 21091
SWIDTH 960 0
DWIDTH 10 0
BBX 9 9 1 -1
BITMAP
2080
5280
FA80
2280
FA80
AA80
FA80
5080
8980
ENDCHAR
STARTCHAR 5264
ENCODING 21092
SWIDTH 960 0
DWIDTH 10 0
BBX 9 9 1 -1
BITMAP
2080
FA80
5280
2280
DA80
7280
5280
7080
9180
ENDCHAR
STARTCHAR 5265
ENCODING 21093
SWIDTH 960 0
DWIDTH 10 0
BBX 9 9 1 -1
BITMAP
F080
1280
F280
1280
FA80
2280
AA80
7080
A980
ENDCHAR
STARTCHAR 5269
ENCODING 21097
SWIDTH 960 0
DWIDTH 10 0
BBX 9 9 1 -1
BITMAP
7880
2280
FE80
2A80
AA80
AE80
2280
7080
A980
ENDCHAR
STARTCHAR 526A
ENCODING 21098
SWIDTH 960 0
DWIDTH 10 0
BBX 9 9 1 -1
BITMAP
2200
FF80
5500
7500
5100
0000
FF80
3080
C300
ENDCHAR
STARTCHAR 526F
ENCODING 21103
SWIDTH 960 0
DWIDTH 10 0
BBX 9 9 1 -1
BITMAP
F880
0280
7280
5280
FA80
AA80
F880
A880
F980
ENDCHAR
STARTCHAR 5270
ENCODING 21104
SWIDTH 960 0
DWIDTH 10 0
BBX 9 9 1 -1
BITMAP
F880
2280
FA80
AA80
FA80
AA80
FA80
7080
A980
ENDCHAR
STARTCHAR 5271
ENCODING 21105
SWIDTH 960 0
DWIDTH 10 0
BBX 9 9 1 -1
BITMAP
2000
5780
FA80
2680
FA80
AB80
FA80
5480
8980
ENDCHAR
STARTCHAR 5272
ENCODING 21106
SWIDTH 960 0
DWIDTH 10 0
BBX 9 9 1 -1
BITMAP
2080
FA80
AA80
7280
2280
FA80
0280
7080
7180
ENDCHAR
STARTCHAR 5273
ENCODING 21107
SWIDTH 960 0
DWIDTH 10 0
BBX 9 9 1 -1
BITMAP
5080
FE80
5280
8A80
7280
0280
FA80
8880
F980
ENDCHAR
STARTCHAR 5274
ENCODING 21108
SWIDTH 960 0
DWIDTH 10 0
BBX 9 9 1 -1
BITMAP
A880
FA80
0280
FA80
5280
7280
5280
2080
F980
ENDCHAR
STARTCHAR 5275
ENCODING 21109
SWIDTH 960 0
DWIDTH 10 0
BBX 9 9 1 -1
BITMAP
2080
5280
FA80
5280
7280
5280
7880
C880
7980
ENDCHAR
STARTCHAR 527D
ENCODING 21117
SWIDTH 960 0
DWIDTH 10 0
BBX 9 9 1 -1
BITMAP
F880
5280
FA80
AA80
FA80
0280
FA80
2080
A980
ENDCHAR
STARTCHAR 527F
ENCODING 21119
SWIDTH 960 0
DWIDTH 10 0
BBX 9 9 1 -1
BITMAP
5080
AA80
FA80
AA80
FA80
2280
FA80
7080
A980
ENDCHAR
STARTCHAR 5283
ENCODING 21123
SWIDTH 960 0
DWIDTH 10 0
BBX 9 9 1 -1
BITMAP
2080
FA80
2A80
FA80
FA80
AA80
FA80
0080
F980
ENDCHAR
STARTCHAR 5287
ENCODING 21127
SWIDTH 960 0
DWIDTH 10 0
BBX 9 9 1 -1
BITMAP
3880
2280
FE80
A280
BA80
D080
B880
D480
B180
ENDCHAR
STARTCHAR 5288
ENCODING 21128
SWIDTH 960 0
DWIDTH 10 0
BBX 9 9 1 -1
BITMAP
7200
4780
7500
D780
7200
0000
FF80
1080
E300
ENDCHAR
STARTCHAR 5289
ENCODING 21129
SWIDTH 960 0
DWIDTH 10 0
BBX 9 9 1 -1
BITMAP
5880
AA80
EA80
2280
5280
BA80
6280
3A80
E180
ENDCHAR
STARTCHAR 528D
ENCODING 21133
SWIDTH 960 0
DWIDTH 10 0
BBX 9 9 1 -1
BITMAP
2080
5280
FA80
0280
FA80
AA80
FA80
5080
A980
ENDCHAR
STARTCHAR 5291
ENCODING 21137
SWIDTH 960 0
DWIDTH 10 0
BBX 9 9 1 -1
BITMAP
2080
FA80
5280
AA80
4A80
7A80
4A80
7880
8980
ENDCHAR
STARTCHAR 5292
ENCODING 21138
SWIDTH 960 0
DWIDTH 10 0
BBX 9 9 1 -1
BITMAP
2000
5780
EA80
0280
FE80
AA80
FA80
5480
A580
ENDCHAR
STARTCHAR 5294
ENCODING 21140
SWIDTH 960 0
DWIDTH 10 0
BBX 9 9 1 -1
BITMAP
2000
5780
FA80
0680
FA80
AB80
FA80
5480
A580
ENDCHAR
STARTCHAR 529B
ENCODING 21147
SWIDTH 960 0
DWIDTH 10 0
BBX 8 9 1 -1
BITMAP
10
10
FF
11
11
21
21
41
87
ENDCHAR
STARTCHAR 529F
ENCODING 21151
SWIDTH 960 0
DWIDTH 10 0
BBX 9 9 1 -1
BITMAP
0400
0400
EF80
4480
4480
4480
6880
C880
1380
ENDCHAR
STARTCHAR 52A0
ENCODING 21152
SWIDTH 960 0
DWIDTH 10 0
BBX 9 9 1 -1
BITMAP
2000
2000
FB80
2A80
2A80
2A80
4A80
4A80
9B80
ENDCHAR
STARTCHAR 52A3
ENCODING 21155
SWIDTH 960 0
DWIDTH 10 0
BBX 9 9 1 -1
BITMAP
0800
4A00
9980
0600
3800
C800
7F00
1100
6700
ENDCHAR
STARTCHAR 52A9
ENCODING 21161
SWIDTH 960 0
DWIDTH 10 0
BBX 9 9 1 -1
BITMAP
0200
7200
5780
7280
5280
7280
5A80
E480
0580
ENDCHAR
STARTCHAR 52AA
ENCODING 21162
SWIDTH 960 0
DWIDTH 10 0
BBX 9 9 1 -1
BITMAP
2000
FB80
5280
3100
CA80
0800
7F80
1080
6300
ENDCHAR
STARTCHAR 52AB
ENCODING 21163
SWIDTH 960 0
DWIDTH 10 0
BBX 9 9 1 -1
BITMAP
4200
4200
F780
4280
F280
4280
9280
F480
0580
ENDCHAR
STARTCHAR 52AC
ENCODING 21164
SWIDTH 960 0
DWIDTH 10 0
BBX 10 9 0 -1
BITMAP
4100
7D00
87C0
7540
5540
5540
7540
0A40
32C0
ENDCHAR
STARTCHAR 52AD
ENCODING 21165
SWIDTH 960 0
DWIDTH 10 0
BBX 9 9 1 -1
BITMAP
0200
F200
5780
5280
B280
0280
F280
9480
F580
ENDCHAR
STARTCHAR 52B1
ENCODING 21169
SWIDTH 960 0
DWIDTH 10 0
BBX 9 9 1 -1
BITMAP
0200
FA00
8780
FA80
A280
BA80
AA80
AA80
D500
ENDCHAR
STARTCHAR 52B4
ENCODING 21172
SWIDTH 960 0
DWIDTH 10 0
BBX 9 9 1 -1
BITMAP
5100
2A00
FF80
8080
1000
FF00
1100
2100
C600
ENDCHAR
STARTCHAR 52B5
ENCODING 21173
SWIDTH 960 0
DWIDTH 10 0
BBX 9 9 1 -1
BITMAP
4900
BE80
1400
FF80
5100
BE80
1200
2200
4600
ENDCHAR
STARTCHAR 52B9
ENCODING 21177
SWIDTH 960 0
DWIDTH 10 0
BBX 9 9 1 -1
BITMAP
2200
2200
FF80
5280
8A80
5280
2280
5480
9580
ENDCHAR
STARTCHAR 52BC
ENCODING 21180
SWIDTH 960 0
DWIDTH 10 0
BBX 9 9 1 -1
BITMAP
4200
F200
4780
4280
F280
0280
F280
9480
F580
ENDCHAR
STARTCHAR 52BE
ENCODING 21182
SWIDTH 960 0
DWIDTH 10 0
BBX 9 9 1 -1
BITMAP
4200
F200
4780
9280
6280
5280
A280
6480
9580
ENDCHAR
STARTCHAR 52C1
ENCODING 21185
SWIDTH 960 0
DWIDTH 10 0
BBX 9 9 1 -1
BITMAP
F200
0200
5780
A280
5280
0280
F280
4480
F580
ENDCHAR
STARTCHAR 52C3
ENCODING 21187
SWIDTH 960 0
DWIDTH 10 0
BBX 9 9 1 -1
BITMAP
2200
FA00
2780
FA80
8A80
3280
FA80
2480
6580
ENDCHAR
STARTCHAR 52C5
ENCODING 21189
SWIDTH 960 0
DWIDTH 10 0
BBX 9 9 1 -1
BITMAP
2200
FA00
2780
FA80
AA80
FA80
2280
7280
AD80
ENDCHAR
STARTCHAR 52C7
ENCODING 21191
SWIDTH 960 0
DWIDTH 10 0
BBX 9 9 1 -1
BITMAP
7E00
1400
7F00
4900
7F00
4900
FF80
1080
E300
ENDCHAR
STARTCHAR 52C9
ENCODING 21193
SWIDTH 960 0
DWIDTH 10 0
BBX 9 9 1 -1
BITMAP
7200
9200
2780
FA80
AA80
FA80
5580
5000
9F80
ENDCHAR
STARTCHAR 52CD
ENCODING 21197
SWIDTH 960 0
DWIDTH 10 0
BBX 9 9 1 -1
BITMAP
2200
F200
0F80
F280
9280
F280
2280
B480
A580
ENDCHAR
STARTCHAR 52D2
ENCODING 21202
SWIDTH 960 0
DWIDTH 10 0
BBX 9 9 1 -1
BITMAP
5200
FA00
7780
2280
FA80
FA80
2280
F480
2580
ENDCHAR
STARTCHAR 52D5
ENCODING 21205
SWIDTH 960 0
DWIDTH 10 0
BBX 9 9 1 -1
BITMAP
FA00
2200
FF80
AA80
FA80
AA80
FA80
2280
F580
ENDCHAR
STARTCHAR 52D7
ENCODING 21207
SWIDTH 960 0
DWIDTH 10 0
BBX 9 9 1 -1
BITMAP
7F00
4100
7F00
0000
7200
5780
7280
5A80
E580
ENDCHAR
STARTCHAR 52D8
ENCODING 21208
SWIDTH 960 0
DWIDTH 10 0
BBX 9 9 1 -1
BITMAP
5200
FA00
5780
7280
5280
FA80
5280
4480
7580
ENDCHAR
STARTCHAR 52D9
ENCODING 21209
SWIDTH 960 0
DWIDTH 10 0
BBX 9 9 1 -1
BITMAP
E400
2F80
5500
E200
2D80
4400
CF80
4480
D980
ENDCHAR
STARTCHAR 52DD
ENCODING 21213
SWIDTH 960 0
DWIDTH 10 0
BBX 9 9 1 -1
BITMAP
E500
AF80
E200
AF00
F480
AF00
A500
A500
AB00
ENDCHAR
STARTCHAR 52DE
ENCODING 21214
SWIDTH 960 0
DWIDTH 10 0
BBX 9 9 1 -1
BITMAP
AA80
2200
D580
0000
FF80
8880
7F00
1100
6300
ENDCHAR
STARTCHAR 52DF
ENCODING 21215
SWIDTH 960 0
DWIDTH 10 0
BBX 9 9 1 -1
BITMAP
1400
FF80
3E00
2200
FF80
2A00
7F00
9280
2600
ENDCHAR
STARTCHAR 52E0
ENCODING 21216
SWIDTH 960 0
DWIDTH 10 0
BBX 9 9 1 -1
BITMAP
DA00
4A00
DF80
2280
5280
8A80
6280
1480
6580
ENDCHAR
STARTCHAR 52E2
ENCODING 21218
SWIDTH 960 0
DWIDTH 10 0
BBX 9 9 1 -1
BITMAP
2400
F700
AD00
5700
E980
1000
FF00
2100
C700
ENDCHAR
STARTCHAR 52E3
ENCODING 21219
SWIDTH 960 0
DWIDTH 10 0
BBX 9 9 1 -1
BITMAP
2200
7200
2780
FA80
5280
7280
5280
7480
8D80
ENDCHAR
STARTCHAR 52E4
ENCODING 21220
SWIDTH 960 0
DWIDTH 10 0
BBX 9 9 1 -1
BITMAP
5200
FA00
7780
5280
7280
2280
7280
2480
F580
ENDCHAR
STARTCHAR 52E6
ENCODING 21222
SWIDTH 960 0
DWIDTH 10 0
BBX 9 9 1 -1
BITMAP
4A00
9200
FF80
AA80
FA80
2280
FA80
7480
A980
ENDCHAR
STARTCHAR 52E7
ENCODING 21223
SWIDTH 960 0
DWIDTH 10 0
BBX 9 9 1 -1
BITMAP
4200
7A00
A780
7280
7A80
D280
7A80
5480
7D80
ENDCHAR
STARTCHAR 52F2
ENCODING 21234
SWIDTH 960 0
DWIDTH 10 0
BBX 9 9 1 -1
BITMAP
3A00
E200
7F80
AA80
FA80
2480
F580
0000
9480
ENDCHAR
STARTCHAR 52F3
ENCODING 21235
SWIDTH 960 0
DWIDTH 10 0
BBX 9 9 1 -1
BITMAP
F200
4200
F780
D280
F280
4280
F280
0480
B580
ENDCHAR
STARTCHAR 52F5
ENCODING 21237
SWIDTH 960 0
DWIDTH 10 0
BBX 10 9 0 -1
BITMAP
7D00
5500
7FC0
5540
5D40
4940
7F40
AA40
A2C0
ENDCHAR
STARTCHAR 52F8
ENCODING 21240
SWIDTH 960 0
DWIDTH 10 0
BBX 10 9 0 -1
BITMAP
2900
7D00
2BC0
6D40
6D40
5140
F940
5240
7AC0
ENDCHAR
STARTCHAR 52F9
ENCODING 21241
SWIDTH 960 0
DWIDTH 10 0
BBX 9 9 1 -1
BITMAP
2000
2000
3F80
4080
8080
0080
0080
0080
0300
ENDCHAR
STARTCHAR 52FA
ENCODING 21242
SWIDTH 960 0
DWIDTH 10 0
BBX 9 9 1 -1
BITMAP
2000
2000
3F80
4080
9080
0880
0880
0080
0300
ENDCHAR
STARTCHAR 52FE
ENCODING 21246
SWIDTH 960 0
DWIDTH 10 0
BBX 9 9 1 -1
BITMAP
2000
2000
7F80
4080
9080
1080
2480
7C80
0300
ENDCHAR
STARTCHAR 52FF
ENCODING 21247
SWIDTH 960 0
DWIDTH 10 0
BBX 9 9 1 -1
BITMAP
2000
2000
7F80
5480
9480
2480
2880
4880
1300
ENDCHAR
STARTCHAR 5301
ENCODING 21249
SWIDTH 960 0
DWIDTH 10 0
BBX 9 9 1 -1
BITMAP
2000
2000
7F00
8900
2900
1900
1500
2380
C600
ENDCHAR
STARTCHAR 5302
ENCODING 21250
SWIDTH 960 0
DWIDTH 10 0
BBX 9 9 1 -1
BITMAP
2000
3F80
4080
A080
3C80
2080
2280
3C80
0300
ENDCHAR
STARTCHAR 5305
ENCODING 21253
SWIDTH 960 0
DWIDTH 10 0
BBX 9 9 1 -1
BITMAP
2000
7F80
8080
3C80
0480
7D00
4000
4080
7F80
ENDCHAR
STARTCHAR 5306
ENCODING 21254
SWIDTH 960 0
DWIDTH 10 0
BBX 9 9 1 -1
BITMAP
2000
2000
7F80
9480
6480
3480
4880
9480
2180
ENDCHAR
STARTCHAR 5308
ENCODING 21256
SWIDTH 960 0
DWIDTH 10 0
BBX 9 9 1 -1
BITMAP
4000
7F80
8080
2880
9280
AA80
8280
FE80
0100
ENDCHAR
STARTCHAR 530D
ENCODING 21261
SWIDTH 960 0
DWIDTH 10 0
BBX 9 9 1 -1
BITMAP
4000
7F80
9280
7C80
1080
7C80
5480
7C80
5500
ENDCHAR
STARTCHAR 530F
ENCODING 21263
SWIDTH 960 0
DWIDTH 10 0
BBX 9 9 1 -1
BITMAP
2400
FC00
5780
E880
0680
F680
4500
7480
2780
ENDCHAR
STARTCHAR 5310
ENCODING 21264
SWIDTH 960 0
DWIDTH 10 0
BBX 9 9 1 -1
BITMAP
4000
7F80
8080
7C80
2880
7C80
5480
6C80
7D00
ENDCHAR
STARTCHAR 5315
ENCODING 21269
SWIDTH 960 0
DWIDTH 10 0
BBX 9 9 1 -1
BITMAP
2000
2000
2100
2600
3800
E000
2000
2080
3F80
ENDCHAR
STARTCHAR 5316
ENCODING 21270
SWIDTH 960 0
DWIDTH 10 0
BBX 9 9 1 -1
BITMAP
2800
2800
4900
4E00
C800
4800
4800
4880
4780
ENDCHAR
STARTCHAR 5317
ENCODING 21271
SWIDTH 960 0
DWIDTH 10 0
BBX 9 9 1 -1
BITMAP
2400
2400
E700
2400
2400
2400
6400
A480
2780
ENDCHAR
STARTCHAR 5319
ENCODING 21273
SWIDTH 960 0
DWIDTH 10 0
BBX 9 9 1 -1
BITMAP
F400
9400
F780
0400
F400
2480
B780
E000
9F80
ENDCHAR
STARTCHAR 531A
ENCODING 21274
SWIDTH 960 0
DWIDTH 10 0
BBX 9 9 1 -1
BITMAP
FF80
8000
8000
8000
8000
8000
8000
8000
FF80
ENDCHAR
STARTCHAR 531D
ENCODING 21277
SWIDTH 960 0
DWIDTH 10 0
BBX 9 9 1 -1
BITMAP
FF80
8000
8400
BF80
A480
A480
A580
8400
FF80
ENDCHAR
STARTCHAR 5320
ENCODING 21280
SWIDTH 960 0
DWIDTH 10 0
BBX 9 9 1 -1
BITMAP
FF00
8000
9E00
9000
9F00
A400
A400
8000
FF80
ENDCHAR
STARTCHAR 5321
ENCODING 21281
SWIDTH 960 0
DWIDTH 10 0
BBX 9 9 1 -1
BITMAP
FF00
8000
BE00
8800
BE00
8800
BE00
8000
FF80
ENDCHAR
STARTCHAR 5323
ENCODING 21283
SWIDTH 960 0
DWIDTH 10 0
BBX 9 9 1 -1
BITMAP
FF80
8000
BE00
AA00
BE00
AA00
BE00
8800
FF80
ENDCHAR
STARTCHAR 532A
ENCODING 21290
SWIDTH 960 0
DWIDTH 10 0
BBX 9 9 1 -1
BITMAP
FF80
8000
8A00
BB80
8A00
BB80
8A00
9200
FF80
ENDCHAR
STARTCHAR 532F
ENCODING 21295
SWIDTH 960 0
DWIDTH 10 0
BBX 9 9 1 -1
BITMAP
FF80
A200
8780
AD00
8780
9500
A780
8000
FF80
ENDCHAR
STARTCHAR 5331
ENCODING 21297
SWIDTH 960 0
DWIDTH 10 0
BBX 9 9 1 -1
BITMAP
FF80
8400
9F00
BF80
9100
9100
9F00
A080
FF80
ENDCHAR
STARTCHAR 5333
ENCODING 21299
SWIDTH 960 0
DWIDTH 10 0
BBX 9 9 1 -1
BITMAP
FF80
8400
9B00
AE80
9500
9F00
8A00
9500
FF80
ENDCHAR
STARTCHAR 5338
ENCODING 21304
SWIDTH 960 0
DWIDTH 10 0
BBX 9 9 1 -1
BITMAP
FF80
4000
4000
4000
4000
4000
4000
4000
3F80
ENDCHAR
STARTCHAR 5339
ENCODING 21305
SWIDTH 960 0
DWIDTH 10 0
BBX 9 8 1 -1
BITMAP
FF80
9400
9400
A400
C700
8000
8000
FF80
ENDCHAR
STARTCHAR 533A
ENCODING 21306
SWIDTH 960 0
DWIDTH 10 0
BBX 9 9 1 -1
BITMAP
FF00
8200
A200
9400
8800
9400
A200
8000
FF80
ENDCHAR
STARTCHAR 533B
ENCODING 21307
SWIDTH 960 0
DWIDTH 10 0
BBX 9 9 1 -1
BITMAP
FF80
9000
9F00
A400
BF80
8400
8A00
B180
FF80
ENDCHAR
STARTCHAR 533F
ENCODING 21311
SWIDTH 960 0
DWIDTH 10 0
BBX 9 9 1 -1
BITMAP
FF80
8A00
BF80
8400
BF80
8800
9F00
A900
FF80
ENDCHAR
STARTCHAR 5340
ENCODING 21312
SWIDTH 960 0
DWIDTH 10 0
BBX 9 9 1 -1
BITMAP
FF80
8E00
8A00
8E00
8000
BB80
AA80
BB80
FF80
ENDCHAR
STARTCHAR 5341
ENCODING 21313
SWIDTH 960 0
DWIDTH 10 0
BBX 9 9 1 -1
BITMAP
0800
0800
0900
FF80
0800
0800
0800
0800
0800
ENDCHAR
STARTCHAR 5343
ENCODING 21315
SWIDTH 960 0
DWIDTH 10 0
BBX 9 9 1 -1
BITMAP
0600
7800
0800
0800
FF80
0800
0800
0800
0800
ENDCHAR
STARTCHAR 5345
ENCODING 21317
SWIDTH 960 0
DWIDTH 10 0
BBX 9 9 1 -1
BITMAP
2A00
2A00
2A00
FF80
2A00
2A00
4A00
4A00
8200
ENDCHAR
STARTCHAR 5346
ENCODING 21318
SWIDTH 960 0
DWIDTH 10 0
BBX 9 9 1 -1
BITMAP
1000
FC00
2480
C780
0800
0800
FF80
0800
0800
ENDCHAR
STARTCHAR 5347
ENCODING 21319
SWIDTH 960 0
DWIDTH 10 0
BBX 9 9 1 -1
BITMAP
1400
6400
2400
2400
FF80
2400
2400
4400
8400
ENDCHAR
STARTCHAR 5348
ENCODING 21320
SWIDTH 960 0
DWIDTH 10 0
BBX 9 9 1 -1
BITMAP
2000
2000
7F00
8800
0800
FF80
0800
0800
0800
ENDCHAR
STARTCHAR 5349
ENCODING 21321
SWIDTH 960 0
DWIDTH 10 0
BBX 9 9 1 -1
BITMAP
0800
0800
FF80
0800
2A00
2200
FF80
4200
8200
ENDCHAR
STARTCHAR 534A
ENCODING 21322
SWIDTH 960 0
DWIDTH 10 0
BBX 9 9 1 -1
BITMAP
0800
4900
2A00
7F00
0800
0800
FF80
0800
0800
ENDCHAR
STARTCHAR 534D
ENCODING 21325
SWIDTH 960 0
DWIDTH 10 0
BBX 9 9 1 -1
BITMAP
F880
0880
0880
0880
FF80
8800
8800
8800
8F80
ENDCHAR
STARTCHAR 5351
ENCODING 21329
SWIDTH 960 0
DWIDTH 10 0
BBX 9 9 1 -1
BITMAP
1000
7F00
4900
7F00
4900
7F00
2400
FF80
0400
ENDCHAR
STARTCHAR 5352
ENCODING 21330
SWIDTH 960 0
DWIDTH 10 0
BBX 9 9 1 -1
BITMAP
0800
FF80
2200
2200
5500
0800
FF80
0800
0800
ENDCHAR
STARTCHAR 5353
ENCODING 21331
SWIDTH 960 0
DWIDTH 10 0
BBX 9 9 1 -1
BITMAP
0800
0F00
0800
7F00
4100
7F00
0800
FF80
0800
ENDCHAR
STARTCHAR 5354
ENCODING 21332
SWIDTH 960 0
DWIDTH 10 0
BBX 9 9 1 -1
BITMAP
4400
4F00
E500
4500
4A00
5F80
4A80
4A80
5580
ENDCHAR
STARTCHAR 5357
ENCODING 21335
SWIDTH 960 0
DWIDTH 10 0
BBX 9 9 1 -1
BITMAP
0800
FF80
0800
FF80
9480
BE80
8880
BE80
8980
ENDCHAR
STARTCHAR 5358
ENCODING 21336
SWIDTH 960 0
DWIDTH 10 0
BBX 9 9 1 -1
BITMAP
2A00
7F00
4900
7F00
4900
7F00
0800
FF80
0800
ENDCHAR
STARTCHAR 535A
ENCODING 21338
SWIDTH 960 0
DWIDTH 10 0
BBX 10 9 0 -1
BITMAP
4280
5FC0
EA80
4F80
4A80
5FC0
4100
4900
4300
ENDCHAR
STARTCHAR 535C
ENCODING 21340
SWIDTH 960 0
DWIDTH 10 0
BBX 4 9 4 -1
BITMAP
80
80
80
C0
A0
90
80
80
80
ENDCHAR
STARTCHAR 535E
ENCODING 21342
SWIDTH 960 0
DWIDTH 10 0
BBX 9 9 1 -1
BITMAP
0800
0800
FF80
0800
0C00
0A00
0800
0800
0800
ENDCHAR
STARTCHAR 5360
ENCODING 21344
SWIDTH 960 0
DWIDTH 10 0
BBX 7 9 2 -1
BITMAP
10
10
1E
10
10
FE
82
82
FE
ENDCHAR
STARTCHAR 5366
ENCODING 21350
SWIDTH 960 0
DWIDTH 10 0
BBX 9 9 1 -1
BITMAP
2200
FA00
2200
FB00
0280
2200
FA00
2200
FA00
ENDCHAR
STARTCHAR 5369
ENCODING 21353
SWIDTH 960 0
DWIDTH 10 0
BBX 5 9 3 -1
BITMAP
F8
88
88
88
88
88
98
80
80
ENDCHAR
STARTCHAR 536E
ENCODING 21358
SWIDTH 960 0
DWIDTH 10 0
BBX 9 9 1 -1
BITMAP
7F00
4000
7F80
4000
5E00
5200
5600
9080
9F80
ENDCHAR
STARTCHAR 536F
ENCODING 21359
SWIDTH 960 0
DWIDTH 10 0
BBX 9 9 1 -1
BITMAP
3000
C780
9480
9480
9480
F480
9580
2400
4400
ENDCHAR
STARTCHAR 5370
ENCODING 21360
SWIDTH 960 0
DWIDTH 10 0
BBX 9 9 1 -1
BITMAP
3000
C780
8480
F480
8480
8480
F580
8400
0400
ENDCHAR
STARTCHAR 5371
ENCODING 21361
SWIDTH 960 0
DWIDTH 10 0
BBX 9 9 1 -1
BITMAP
3C00
4400
FF00
4000
5E00
5200
5600
9080
9F80
ENDCHAR
STARTCHAR 5373
ENCODING 21363
SWIDTH 960 0
DWIDTH 10 0
BBX 9 9 1 -1
BITMAP
F780
9480
F480
9480
F480
8480
A580
D400
0400
ENDCHAR
STARTCHAR 5374
ENCODING 21364
SWIDTH 960 0
DWIDTH 10 0
BBX 9 9 1 -1
BITMAP
2000
2780
F480
2480
F480
4480
5480
F580
0400
ENDCHAR
STARTCHAR 5375
ENCODING 21365
SWIDTH 960 0
DWIDTH 10 0
BBX 9 9 1 -1
BITMAP
1000
E780
9480
D480
B680
9480
F480
9580
2400
ENDCHAR
STARTCHAR 5377
ENCODING 21367
SWIDTH 960 0
DWIDTH 10 0
BBX 9 9 1 -1
BITMAP
4900
BE80
1400
FF80
2200
7D00
A480
2100
3F00
ENDCHAR
STARTCHAR 5378
ENCODING 21368
SWIDTH 960 0
DWIDTH 10 0
BBX 9 9 1 -1
BITMAP
8000
F780
2480
F480
2480
B480
A480
B580
E400
ENDCHAR
STARTCHAR 537B
ENCODING 21371
SWIDTH 960 0
DWIDTH 10 0
BBX 9 9 1 -1
BITMAP
A000
9780
0480
6480
9480
0480
F580
9400
F400
ENDCHAR
STARTCHAR 537F
ENCODING 21375
SWIDTH 960 0
DWIDTH 10 0
BBX 9 9 1 -1
BITMAP
4000
9D80
D580
DD80
D180
D580
5D80
4500
8100
ENDCHAR
STARTCHAR 5382
ENCODING 21378
SWIDTH 960 0
DWIDTH 10 0
BBX 9 9 1 -1
BITMAP
7F80
4000
4000
4000
4000
4000
4000
8000
8000
ENDCHAR
STARTCHAR 5384
ENCODING 21380
SWIDTH 960 0
DWIDTH 10 0
BBX 9 9 1 -1
BITMAP
7F80
4000
5F00
5100
5100
5300
5000
9080
9F80
ENDCHAR
STARTCHAR 5396
ENCODING 21398
SWIDTH 960 0
DWIDTH 10 0
BBX 9 9 1 -1
BITMAP
FF80
9480
9300
B880
9300
9080
9300
A800
AF80
ENDCHAR
STARTCHAR 5398
ENCODING 21400
SWIDTH 960 0
DWIDTH 10 0
BBX 9 9 1 -1
BITMAP
7F80
5500
5F00
5500
5F00
4400
5F00
8400
BF80
ENDCHAR
STARTCHAR 539A
ENCODING 21402
SWIDTH 960 0
DWIDTH 10 0
BBX 9 9 1 -1
BITMAP
7F80
5100
5F00
5100
5F00
4200
5F80
8400
8C00
ENDCHAR
STARTCHAR 539F
ENCODING 21407
SWIDTH 960 0
DWIDTH 10 0
BBX 9 9 1 -1
BITMAP
7F80
4400
5F00
5100
5100
5F00
4400
A480
AC80
ENDCHAR
STARTCHAR 53A0
ENCODING 21408
SWIDTH 960 0
DWIDTH 10 0
BBX 9 9 1 -1
BITMAP
FF80
8000
B880
AA80
BA80
AA80
BA80
8080
A980
ENDCHAR
STARTCHAR 53A5
ENCODING 21413
SWIDTH 960 0
DWIDTH 10 0
BBX 9 9 1 -1
BITMAP
FF80
8000
AA00
BF80
9280
B400
BD00
9100
A280
ENDCHAR
STARTCHAR 53A6
ENCODING 21414
SWIDTH 960 0
DWIDTH 10 0
BBX 9 9 1 -1
BITMAP
FF80
9F00
8400
9F00
9F00
8600
9A00
8400
BB80
ENDCHAR
STARTCHAR 53A8
ENCODING 21416
SWIDTH 960 0
DWIDTH 10 0
BBX 10 9 0 -1
BITMAP
7FC0
4000
5C80
43C0
5C80
5580
5C80
5480
B980
ENDCHAR
STARTCHAR 53A9
ENCODING 21417
SWIDTH 960 0
DWIDTH 10 0
BBX 9 9 1 -1
BITMAP
FF80
8000
BB80
AB00
BB80
A100
AB00
BB00
AD80
ENDCHAR
STARTCHAR 53AD
ENCODING 21421
SWIDTH 960 0
DWIDTH 10 0
BBX 9 9 1 -1
BITMAP
FF80
8000
B980
A900
BB80
A900
B900
AA80
AA80
ENDCHAR
STARTCHAR 53AE
ENCODING 21422
SWIDTH 960 0
DWIDTH 10 0
BBX 9 9 1 -1
BITMAP
FF80
8000
AB80
FE00
AB80
BA80
AA80
FE80
A880
ENDCHAR
STARTCHAR 53B0
ENCODING 21424
SWIDTH 960 0
DWIDTH 10 0
BBX 9 9 1 -1
BITMAP
FF80
9000
B500
9380
BE80
A680
B500
B500
A680
ENDCHAR
STARTCHAR 53B3
ENCODING 21427
SWIDTH 960 0
DWIDTH 10 0
BBX 9 9 1 -1
BITMAP
4900
FF80
8000
BA00
9380
FE80
A900
F980
8A80
ENDCHAR
STARTCHAR 53B6
ENCODING 21430
SWIDTH 960 0
DWIDTH 10 0
BBX 9 9 1 -1
BITMAP
0800
0800
0800
1000
1000
2200
2100
4E80
F080
ENDCHAR
STARTCHAR 53BB
ENCODING 21435
SWIDTH 960 0
DWIDTH 10 0
BBX 9 9 1 -1
BITMAP
0800
0800
7F00
0800
FF80
0800
1000
2200
7D00
ENDCHAR
STARTCHAR 53C2
ENCODING 21442
SWIDTH 960 0
DWIDTH 10 0
BBX 9 9 1 -1
BITMAP
1000
2200
7F00
0800
FF80
2200
D980
0600
3800
ENDCHAR
STARTCHAR 53C3
ENCODING 21443
SWIDTH 960 0
DWIDTH 10 0
BBX 9 9 1 -1
BITMAP
1400
3E00
4100
EB80
1400
2600
D980
0600
7800
ENDCHAR
STARTCHAR 53C8
ENCODING 21448
SWIDTH 960 0
DWIDTH 10 0
BBX 9 8 1 -1
BITMAP
7E00
2200
2200
1400
1400
0800
3600
C180
ENDCHAR
STARTCHAR 53C9
ENCODING 21449
SWIDTH 960 0
DWIDTH 10 0
BBX 9 9 1 -1
BITMAP
7F00
1100
4900
2A00
2200
1400
0800
3600
C180
ENDCHAR
STARTCHAR 53CA
ENCODING 21450
SWIDTH 960 0
DWIDTH 10 0
BBX 9 9 1 -1
BITMAP
FC00
2400
2400
2700
2100
5100
4A00
4C00
B380
ENDCHAR
STARTCHAR 53CB
ENCODING 21451
SWIDTH 960 0
DWIDTH 10 0
BBX 9 9 1 -1
BITMAP
1000
1000
FF80
1000
1F00
2900
2A00
4400
9B80
ENDCHAR
STARTCHAR 53CC
ENCODING 21452
SWIDTH 960 0
DWIDTH 10 0
BBX 9 9 1 -1
BITMAP
FF80
1080
1480
5500
2500
5200
5200
8500
0880
ENDCHAR
STARTCHAR 53CD
ENCODING 21453
SWIDTH 960 0
DWIDTH 10 0
BBX 9 9 1 -1
BITMAP
7F80
4000
7F00
5100
5100
4A00
4400
8A00
B180
ENDCHAR
STARTCHAR 53CE
ENCODING 21454
SWIDTH 960 0
DWIDTH 10 0
BBX 9 9 1 -1
BITMAP
2000
2F80
A080
A500
A500
B200
E200
A500
2880
ENDCHAR
STARTCHAR 53D4
ENCODING 21460
SWIDTH 960 0
DWIDTH 10 0
BBX 9 9 1 -1
BITMAP
2000
3780
2280
FA80
2280
A900
A900
2280
6480
ENDCHAR
STARTCHAR 53D6
ENCODING 21462
SWIDTH 960 0
DWIDTH 10 0
BBX 9 9 1 -1
BITMAP
F800
5780
7280
5280
7280
5100
F100
1280
1480
ENDCHAR
STARTCHAR 53D7
ENCODING 21463
SWIDTH 960 0
DWIDTH 10 0
BBX 9 9 1 -1
BITMAP
0700
7900
2A00
FF80
8080
3E00
2200
1C00
E380
ENDCHAR
STARTCHAR 53D9
ENCODING 21465
SWIDTH 960 0
DWIDTH 10 0
BBX 9 9 1 -1
BITMAP
2000
5780
FA80
2280
FA80
2280
A900
A900
6280
ENDCHAR
STARTCHAR 53DB
ENCODING 21467
SWIDTH 960 0
DWIDTH 10 0
BBX 9 9 1 -1
BITMAP
5780
E400
4780
F680
4680
F580
4500
4900
8A80
ENDCHAR
STARTCHAR 53DF
ENCODING 21471
SWIDTH 960 0
DWIDTH 10 0
BBX 9 9 1 -1
BITMAP
2800
4B00
6B00
7F00
0800
7F00
2200
1C00
E380
ENDCHAR
STARTCHAR 53E1
ENCODING 21473
SWIDTH 960 0
DWIDTH 10 0
BBX 9 9 1 -1
BITMAP
3800
2380
FA80
AA80
7280
D900
7100
5280
7480
ENDCHAR
STARTCHAR 53E2
ENCODING 21474
SWIDTH 960 0
DWIDTH 10 0
BBX 9 9 1 -1
BITMAP
5500
FF80
2200
FF80
5000
7700
5500
F200
1580
ENDCHAR
STARTCHAR 53E3
ENCODING 21475
SWIDTH 960 0
DWIDTH 10 0
BBX 8 8 1 -1
BITMAP
FF
81
81
81
81
81
81
FF
ENDCHAR
STARTCHAR 53E4
ENCODING 21476
SWIDTH 960 0
DWIDTH 10 0
BBX 9 9 1 -1
BITMAP
0800
0800
FF80
0800
0800
7F00
4100
4100
7F00
ENDCHAR
STARTCHAR 53E5
ENCODING 21477
SWIDTH 960 0
DWIDTH 10 0
BBX 9 9 1 -1
BITMAP
2000
2000
7F80
4080
BC80
2480
2480
3C80
0300
ENDCHAR
STARTCHAR 53E8
ENCODING 21480
SWIDTH 960 0
DWIDTH 10 0
BBX 9 8 1 -1
BITMAP
EF80
A280
A280
A280
A280
E480
0480
0980
ENDCHAR
STARTCHAR 53E9
ENCODING 21481
SWIDTH 960 0
DWIDTH 10 0
BBX 9 9 1 -1
BITMAP
F780
9480
9480
9480
9480
9480
F580
0400
0400
ENDCHAR
STARTCHAR 53EA
ENCODING 21482
SWIDTH 960 0
DWIDTH 10 0
BBX 9 9 1 -1
BITMAP
7F00
4100
4100
4100
4100
7F00
0000
4100
8080
ENDCHAR
STARTCHAR 53EB
ENCODING 21483
SWIDTH 960 0
DWIDTH 10 0
BBX 9 9 1 -1
BITMAP
0100
E500
A500
A500
A500
A580
EF00
0100
0100
ENDCHAR
STARTCHAR 53EC
ENCODING 21484
SWIDTH 960 0
DWIDTH 10 0
BBX 8 9 1 -1
BITMAP
FF
11
21
C7
00
FF
81
81
FF
ENDCHAR
STARTCHAR 53ED
ENCODING 21485
SWIDTH 960 0
DWIDTH 10 0
BBX 9 9 1 -1
BITMAP
0200
EA00
AA00
AA00
A900
A900
E900
1080
1080
ENDCHAR
STARTCHAR 53EE
ENCODING 21486
SWIDTH 960 0
DWIDTH 10 0
BBX 9 8 1 -1
BITMAP
EF80
A200
A200
A200
A200
E200
0200
0600
ENDCHAR
STARTCHAR 53EF
ENCODING 21487
SWIDTH 960 0
DWIDTH 10 0
BBX 9 8 1 -1
BITMAP
FF80
0100
7900
4900
4900
7900
0100
0300
ENDCHAR
STARTCHAR 53F0
ENCODING 21488
SWIDTH 960 0
DWIDTH 10 0
BBX 9 9 1 -1
BITMAP
1000
2000
4100
FE80
0000
7F00
4100
4100
7F00
ENDCHAR
STARTCHAR 53F1
ENCODING 21489
SWIDTH 960 0
DWIDTH 10 0
BBX 9 9 1 -1
BITMAP
0400
E400
A480
A700
AC00
A400
E400
0480
0780
ENDCHAR
STARTCHAR 53F2
ENCODING 21490
SWIDTH 960 0
DWIDTH 10 0
BBX 9 9 1 -1
BITMAP
0800
0800
7F00
4900
7F00
0800
2800
1800
E780
ENDCHAR
STARTCHAR 53F3
ENCODING 21491
SWIDTH 960 0
DWIDTH 10 0
BBX 9 9 1 -1
BITMAP
1000
1000
FF80
2000
2000
7F00
A100
2100
3F00
ENDCHAR
STARTCHAR 53F6
ENCODING 21494
SWIDTH 960 0
DWIDTH 10 0
BBX 9 9 1 -1
BITMAP
0200
E200
A200
AF80
A200
A200
E200
0200
0200
ENDCHAR
STARTCHAR 53F7
ENCODING 21495
SWIDTH 960 0
DWIDTH 10 0
BBX 9 9 1 -1
BITMAP
3E00
2200
3E00
0000
FF80
1000
3F00
0100
0600
ENDCHAR
STARTCHAR 53F8
ENCODING 21496
SWIDTH 960 0
DWIDTH 10 0
BBX 9 9 1 -1
BITMAP
FF80
0080
7C80
0080
7C80
4480
4480
7C80
0180
ENDCHAR
STARTCHAR 53FA
ENCODING 21498
SWIDTH 960 0
DWIDTH 10 0
BBX 9 9 1 -1
BITMAP
0600
E200
A200
A200
A200
A500
E500
0880
1080
ENDCHAR
STARTCHAR 5401
ENCODING 21505
SWIDTH 960 0
DWIDTH 10 0
BBX 9 8 1 -1
BITMAP
EF80
A200
A200
AF80
A200
E200
0200
0600
ENDCHAR
STARTCHAR 5403
ENCODING 21507
SWIDTH 960 0
DWIDTH 10 0
BBX 9 9 1 -1
BITMAP
0400
E780
A800
A700
A200
A400
E400
0880
0780
ENDCHAR
STARTCHAR 5404
ENCODING 21508
SWIDTH 960 0
DWIDTH 10 0
BBX 9 9 1 -1
BITMAP
1E00
2200
D400
0800
3600
C180
3E00
2200
3E00
ENDCHAR
STARTCHAR 5408
ENCODING 21512
SWIDTH 960 0
DWIDTH 10 0
BBX 9 9 1 -1
BITMAP
0800
1400
2200
5D00
8080
3E00
2200
2200
3E00
ENDCHAR
STARTCHAR 5409
ENCODING 21513
SWIDTH 960 0
DWIDTH 10 0
BBX 9 9 1 -1
BITMAP
0800
0800
FF80
0800
7F00
0000
7F00
4100
7F00
ENDCHAR
STARTCHAR 540A
ENCODING 21514
SWIDTH 960 0
DWIDTH 10 0
BBX 9 9 1 -1
BITMAP
7F00
4100
7F00
0800
FF80
8880
8880
8980
0800
ENDCHAR
STARTCHAR 540B
ENCODING 21515
SWIDTH 960 0
DWIDTH 10 0
BBX 9 9 1 -1
BITMAP
0100
E100
AF80
A100
A900
A500
A100
E100
0300
ENDCHAR
STARTCHAR 540C
ENCODING 21516
SWIDTH 960 0
DWIDTH 10 0
BBX 9 9 1 -1
BITMAP
FF80
8080
BE80
8080
BE80
A280
A280
BE80
8180
ENDCHAR
STARTCHAR 540D
ENCODING 21517
SWIDTH 960 0
DWIDTH 10 0
BBX 9 9 1 -1
BITMAP
1000
1E00
2200
D400
0800
1F80
3080
D080
1F80
ENDCHAR
STARTCHAR 540E
ENCODING 21518
SWIDTH 960 0
DWIDTH 10 0
BBX 9 9 1 -1
BITMAP
0700
7800
4000
7F80
4000
5F00
9100
9100
1F00
ENDCHAR
STARTCHAR 540F
ENCODING 21519
SWIDTH 960 0
DWIDTH 10 0
BBX 9 9 1 -1
BITMAP
0800
FF80
0800
7F00
4900
7F00
2800
1800
E780
ENDCHAR
STARTCHAR 5410
ENCODING 21520
SWIDTH 960 0
DWIDTH 10 0
BBX 9 9 1 -1
BITMAP
0200
E200
A200
AF80
A200
A200
E200
0200
0F80
ENDCHAR
STARTCHAR 5411
ENCODING 21521
SWIDTH 960 0
DWIDTH 10 0
BBX 9 9 1 -1
BITMAP
1000
2000
FF80
8080
BE80
A280
A280
BE80
8180
ENDCHAR
STARTCHAR 541B
ENCODING 21531
SWIDTH 960 0
DWIDTH 10 0
BBX 9 9 1 -1
BITMAP
7E00
1200
FF80
1200
7E00
2000
7F00
A100
3F00
ENDCHAR
STARTCHAR 541D
ENCODING 21533
SWIDTH 960 0
DWIDTH 10 0
BBX 9 9 1 -1
BITMAP
0800
FF80
2200
1C00
E380
0000
7F00
4100
7F00
ENDCHAR
STARTCHAR 541F
ENCODING 21535
SWIDTH 960 0
DWIDTH 10 0
BBX 9 9 1 -1
BITMAP
0600
E900
B080
A600
A000
AF00
E100
0200
0400
ENDCHAR
STARTCHAR 5420
ENCODING 21536
SWIDTH 960 0
DWIDTH 10 0
BBX 9 9 1 -1
BITMAP
0280
E200
AF80
A200
A200
A200
E500
0500
0880
ENDCHAR
STARTCHAR 5426
ENCODING 21542
SWIDTH 960 0
DWIDTH 10 0
BBX 9 9 1 -1
BITMAP
FF80
1800
2A00
4900
8880
0000
7F00
4100
7F00
ENDCHAR
STARTCHAR 5429
ENCODING 21545
SWIDTH 960 0
DWIDTH 10 0
BBX 9 9 1 -1
BITMAP
0200
E900
A900
B080
AF00
A500
E500
0900
1300
ENDCHAR
STARTCHAR 542B
ENCODING 21547
SWIDTH 960 0
DWIDTH 10 0
BBX 9 9 1 -1
BITMAP
1C00
2200
5D00
8080
3E00
0400
7F00
4100
7F00
ENDCHAR
STARTCHAR 542C
ENCODING 21548
SWIDTH 960 0
DWIDTH 10 0
BBX 9 9 1 -1
BITMAP
0300
EC00
A800
AF80
AA00
AA00
EA00
1200
2200
ENDCHAR
STARTCHAR 542D
ENCODING 21549
SWIDTH 960 0
DWIDTH 10 0
BBX 9 9 1 -1
BITMAP
0200
EF80
A000
A700
A500
A500
E500
0900
1180
ENDCHAR
STARTCHAR 542E
ENCODING 21550
SWIDTH 960 0
DWIDTH 10 0
BBX 9 9 1 -1
BITMAP
0200
EF80
A000
A700
A500
A500
E500
0900
1180
ENDCHAR
STARTCHAR 5436
ENCODING 21558
SWIDTH 960 0
DWIDTH 10 0
BBX 9 9 1 -1
BITMAP
0600
E200
AF80
AA80
AA80
AD80
E880
0880
0980
ENDCHAR
STARTCHAR 5438
ENCODING 21560
SWIDTH 960 0
DWIDTH 10 0
BBX 9 9 1 -1
BITMAP
1E00
EA00
AA00
AF00
A900
AD00
EA00
1200
2580
ENDCHAR
STARTCHAR 5439
ENCODING 21561
SWIDTH 960 0
DWIDTH 10 0
BBX 9 9 1 -1
BITMAP
0400
E400
A780
A880
A200
A200
E200
0500
0880
ENDCHAR
STARTCHAR 543B
ENCODING 21563
SWIDTH 960 0
DWIDTH 10 0
BBX 9 9 1 -1
BITMAP
0400
E400
AF80
B580
A580
AA80
F280
0480
0180
ENDCHAR
STARTCHAR 543C
ENCODING 21564
SWIDTH 960 0
DWIDTH 10 0
BBX 9 9 1 -1
BITMAP
1E00
E600
AA00
AA00
BE00
AA00
EA00
0A80
1B80
ENDCHAR
STARTCHAR 543D
ENCODING 21565
SWIDTH 960 0
DWIDTH 10 0
BBX 9 9 1 -1
BITMAP
0200
EA00
AF80
AA00
A200
AF80
E200
0200
0200
ENDCHAR
STARTCHAR 543E
ENCODING 21566
SWIDTH 960 0
DWIDTH 10 0
BBX 9 9 1 -1
BITMAP
7F00
1000
7E00
2200
FF80
0000
7F00
4100
7F00
ENDCHAR
STARTCHAR 5440
ENCODING 21568
SWIDTH 960 0
DWIDTH 10 0
BBX 9 9 1 -1
BITMAP
0F80
E500
A500
A500
AF80
A300
E500
0900
1300
ENDCHAR
STARTCHAR 5442
ENCODING 21570
SWIDTH 960 0
DWIDTH 10 0
BBX 8 9 1 -1
BITMAP
7E
42
42
7E
20
FF
81
81
FF
ENDCHAR
STARTCHAR 5446
ENCODING 21574
SWIDTH 960 0
DWIDTH 10 0
BBX 9 9 1 -1
BITMAP
7F00
4100
4100
7F00
0800
FF80
2A00
4900
8880
ENDCHAR
STARTCHAR 5448
ENCODING 21576
SWIDTH 960 0
DWIDTH 10 0
BBX 9 9 1 -1
BITMAP
3E00
2200
3E00
0000
7F00
0800
3E00
0800
FF80
ENDCHAR
STARTCHAR 5449
ENCODING 21577
SWIDTH 960 0
DWIDTH 10 0
BBX 9 9 1 -1
BITMAP
1E00
5200
5E00
4000
7E00
0200
FF80
4100
8080
ENDCHAR
STARTCHAR 544A
ENCODING 21578
SWIDTH 960 0
DWIDTH 10 0
BBX 9 9 1 -1
BITMAP
0800
2800
7F00
0800
FF80
0000
3E00
2200
3E00
ENDCHAR
STARTCHAR 544E
ENCODING 21582
SWIDTH 960 0
DWIDTH 10 0
BBX 9 9 1 -1
BITMAP
0F00
E900
A900
AF00
AA00
AA00
E900
0900
1080
ENDCHAR
STARTCHAR 5451
ENCODING 21585
SWIDTH 960 0
DWIDTH 10 0
BBX 9 9 1 -1
BITMAP
3E00
0800
FF80
1400
2200
FF80
2200
2200
3E00
ENDCHAR
STARTCHAR 545F
ENCODING 21599
SWIDTH 960 0
DWIDTH 10 0
BBX 9 9 1 -1
BITMAP
0200
E200
AF80
A200
A480
A300
E200
0480
0F80
ENDCHAR
STARTCHAR 5468
ENCODING 21608
SWIDTH 960 0
DWIDTH 10 0
BBX 9 9 1 -1
BITMAP
7F80
4880
5C80
4880
7E80
4880
5C80
9480
9D80
ENDCHAR
STARTCHAR 546A
ENCODING 21610
SWIDTH 960 0
DWIDTH 10 0
BBX 9 9 1 -1
BITMAP
1F00
F100
B100
BF00
AA00
AA00
EA00
1280
2380
ENDCHAR
STARTCHAR 5470
ENCODING 21616
SWIDTH 960 0
DWIDTH 10 0
BBX 9 9 1 -1
BITMAP
2400
3500
A600
B480
C780
0000
7F00
4100
7F00
ENDCHAR
STARTCHAR 5471
ENCODING 21617
SWIDTH 960 0
DWIDTH 10 0
BBX 10 9 0 -1
BITMAP
01C0
EE80
AA80
AA80
AA80
AA80
EA80
0B40
1740
ENDCHAR
STARTCHAR 5473
ENCODING 21619
SWIDTH 960 0
DWIDTH 10 0
BBX 9 9 1 -1
BITMAP
0400
E400
AF00
A400
BF80
A400
EE00
1500
2480
ENDCHAR
STARTCHAR 5475
ENCODING 21621
SWIDTH 960 0
DWIDTH 10 0
BBX 9 9 1 -1
BITMAP
1F80
E100
AF00
AB00
AB00
AF00
E100
0100
0300
ENDCHAR
STARTCHAR 5476
ENCODING 21622
SWIDTH 960 0
DWIDTH 10 0
BBX 9 9 1 -1
BITMAP
0400
E780
BE80
AA80
AA80
AA80
ED00
0680
0A80
ENDCHAR
STARTCHAR 5477
ENCODING 21623
SWIDTH 960 0
DWIDTH 10 0
BBX 9 9 1 -1
BITMAP
0F80
EA80
AF80
AA80
AA80
AF80
E200
0200
0200
ENDCHAR
STARTCHAR 547B
ENCODING 21627
SWIDTH 960 0
DWIDTH 10 0
BBX 9 9 1 -1
BITMAP
0200
EF80
AA80
AF80
AA80
AA80
EF80
0200
0200
ENDCHAR
STARTCHAR 547C
ENCODING 21628
SWIDTH 960 0
DWIDTH 10 0
BBX 9 9 1 -1
BITMAP
0300
EE00
A200
AA80
A700
BF80
A200
E200
0600
ENDCHAR
STARTCHAR 547D
ENCODING 21629
SWIDTH 960 0
DWIDTH 10 0
BBX 9 9 1 -1
BITMAP
0800
3600
C180
3E00
0000
7700
5500
7700
0400
ENDCHAR
STARTCHAR 5480
ENCODING 21632
SWIDTH 960 0
DWIDTH 10 0
BBX 9 9 1 -1
BITMAP
0F00
E900
AF00
A900
A900
AF00
E900
0900
1F80
ENDCHAR
STARTCHAR 5484
ENCODING 21636
SWIDTH 960 0
DWIDTH 10 0
BBX 9 9 1 -1
BITMAP
0200
EA80
AA80
AF80
A200
A200
EA80
0A80
0F80
ENDCHAR
STARTCHAR 5486
ENCODING 21638
SWIDTH 960 0
DWIDTH 10 0
BBX 9 9 1 -1
BITMAP
0800
EF80
B080
AE80
AA80
AE80
E900
0880
0F80
ENDCHAR
STARTCHAR 548B
ENCODING 21643
SWIDTH 960 0
DWIDTH 10 0
BBX 9 9 1 -1
BITMAP
0400
E400
AF80
B400
A780
A400
A780
E400
0400
ENDCHAR
STARTCHAR 548C
ENCODING 21644
SWIDTH 960 0
DWIDTH 10 0
BBX 9 9 1 -1
BITMAP
3000
E780
2480
F480
2480
7480
6480
A480
2780
ENDCHAR
STARTCHAR 548E
ENCODING 21646
SWIDTH 960 0
DWIDTH 10 0
BBX 9 9 1 -1
BITMAP
4200
7200
D580
2000
DF80
0000
7F00
4100
7F00
ENDCHAR
STARTCHAR 548F
ENCODING 21647
SWIDTH 960 0
DWIDTH 10 0
BBX 9 9 1 -1
BITMAP
0600
E000
AE00
A280
AF00
A600
EB00
1280
0600
ENDCHAR
STARTCHAR 5490
ENCODING 21648
SWIDTH 960 0
DWIDTH 10 0
BBX 9 9 1 -1
BITMAP
0500
E500
AF80
B900
AD00
AB00
E900
0900
0B00
ENDCHAR
STARTCHAR 5492
ENCODING 21650
SWIDTH 960 0
DWIDTH 10 0
BBX 9 9 1 -1
BITMAP
F780
9480
F780
0000
3C00
2400
2480
4480
8780
ENDCHAR
STARTCHAR 54A2
ENCODING 21666
SWIDTH 960 0
DWIDTH 10 0
BBX 9 9 1 -1
BITMAP
7700
5500
7700
1C00
FF80
2000
7F00
0100
0600
ENDCHAR
STARTCHAR 54A4
ENCODING 21668
SWIDTH 960 0
DWIDTH 10 0
BBX 9 9 1 -1
BITMAP
0200
EF80
A880
A700
A200
AF80
E200
0280
0380
ENDCHAR
STARTCHAR 54A5
ENCODING 21669
SWIDTH 960 0
DWIDTH 10 0
BBX 9 9 1 -1
BITMAP
0F80
E200
A500
AE80
A000
A200
EF80
0200
0F80
ENDCHAR
STARTCHAR 54A8
ENCODING 21672
SWIDTH 960 0
DWIDTH 10 0
BBX 9 9 1 -1
BITMAP
0400
CF80
1280
4500
9880
0000
7F00
4100
7F00
ENDCHAR
STARTCHAR 54AB
ENCODING 21675
SWIDTH 960 0
DWIDTH 10 0
BBX 9 9 1 -1
BITMAP
7B80
4A80
7A80
5380
5000
4A80
4800
8600
8180
ENDCHAR
STARTCHAR 54AC
ENCODING 21676
SWIDTH 960 0
DWIDTH 10 0
BBX 9 9 1 -1
BITMAP
0200
EF80
A500
A880
A500
A500
E200
0500
0880
ENDCHAR
STARTCHAR 54AF
ENCODING 21679
SWIDTH 960 0
DWIDTH 10 0
BBX 9 9 1 -1
BITMAP
0400
E700
A500
AA00
A500
A880
E700
0500
0700
ENDCHAR
STARTCHAR 54B2
ENCODING 21682
SWIDTH 960 0
DWIDTH 10 0
BBX 9 9 1 -1
BITMAP
0880
E500
AF80
A200
AF80
A200
E500
0500
0880
ENDCHAR
STARTCHAR 54B3
ENCODING 21683
SWIDTH 960 0
DWIDTH 10 0
BBX 9 9 1 -1
BITMAP
0200
EF80
A200
A500
A200
A480
E900
0300
0C80
ENDCHAR
STARTCHAR 54B8
ENCODING 21688
SWIDTH 960 0
DWIDTH 10 0
BBX 9 9 1 -1
BITMAP
0500
0480
FF80
8400
BA80
8280
B900
A900
BA80
ENDCHAR
STARTCHAR 54BC
ENCODING 21692
SWIDTH 960 0
DWIDTH 10 0
BBX 8 9 1 -1
BITMAP
7E
42
4E
FF
81
BD
A5
BD
83
ENDCHAR
STARTCHAR 54BD
ENCODING 21693
SWIDTH 960 0
DWIDTH 10 0
BBX 9 9 1 -1
BITMAP
0F80
E880
AA80
AF80
AA80
AA80
ED80
0880
0F80
ENDCHAR
STARTCHAR 54BE
ENCODING 21694
SWIDTH 960 0
DWIDTH 10 0
BBX 9 9 1 -1
BITMAP
0280
EF80
A300
BF80
A400
AD80
F600
0480
0780
ENDCHAR
STARTCHAR 54C0
ENCODING 21696
SWIDTH 960 0
DWIDTH 10 0
BBX 9 9 1 -1
BITMAP
0800
FF80
0000
3E00
2200
3E00
1500
6200
B980
ENDCHAR
STARTCHAR 54C1
ENCODING 21697
SWIDTH 960 0
DWIDTH 10 0
BBX 9 9 1 -1
BITMAP
3E00
2200
2200
3E00
0000
F780
9480
9480
F780
ENDCHAR
STARTCHAR 54C2
ENCODING 21698
SWIDTH 960 0
DWIDTH 10 0
BBX 9 9 1 -1
BITMAP
0F80
E200
AF80
AA80
AA80
AD80
E880
0880
0F80
ENDCHAR
STARTCHAR 54C4
ENCODING 21700
SWIDTH 960 0
DWIDTH 10 0
BBX 9 9 1 -1
BITMAP
0500
E500
AF80
A500
A500
A500
EF80
0500
0880
ENDCHAR
STARTCHAR 54C7
ENCODING 21703
SWIDTH 960 0
DWIDTH 10 0
BBX 9 9 1 -1
BITMAP
0200
E700
A200
AF80
A000
A200
E700
0200
0F80
ENDCHAR
STARTCHAR 54C8
ENCODING 21704
SWIDTH 960 0
DWIDTH 10 0
BBX 9 9 1 -1
BITMAP
0600
E900
B080
A600
A000
AF00
E900
0900
0F00
ENDCHAR
STARTCHAR 54C9
ENCODING 21705
SWIDTH 960 0
DWIDTH 10 0
BBX 9 9 1 -1
BITMAP
2400
FD00
2400
FF80
0200
F280
9100
F300
0C80
ENDCHAR
STARTCHAR 54D8
ENCODING 21720
SWIDTH 960 0
DWIDTH 10 0
BBX 9 9 1 -1
BITMAP
0800
F380
A000
AB80
B900
A900
E900
0900
0B00
ENDCHAR
STARTCHAR 54E1
ENCODING 21729
SWIDTH 960 0
DWIDTH 10 0
BBX 7 9 2 -1
BITMAP
7C
44
FE
82
FE
82
FE
44
82
ENDCHAR
STARTCHAR 54E2
ENCODING 21730
SWIDTH 960 0
DWIDTH 10 0
BBX 9 9 1 -1
BITMAP
0F80
E200
A700
A200
AF80
A500
EF80
0500
0900
ENDCHAR
STARTCHAR 54E5
ENCODING 21733
SWIDTH 960 0
DWIDTH 10 0
BBX 9 9 1 -1
BITMAP
FF80
4900
7B00
0000
FF80
7900
4900
7900
0700
ENDCHAR
STARTCHAR 54E6
ENCODING 21734
SWIDTH 960 0
DWIDTH 10 0
BBX 9 9 1 -1
BITMAP
0600
FA80
AA00
BF80
AA00
AE80
F900
0900
1A80
ENDCHAR
STARTCHAR 54E8
ENCODING 21736
SWIDTH 960 0
DWIDTH 10 0
BBX 9 9 1 -1
BITMAP
0A80
E200
AF80
A880
AF80
A880
EF80
0880
0980
ENDCHAR
STARTCHAR 54E9
ENCODING 21737
SWIDTH 960 0
DWIDTH 10 0
BBX 9 9 1 -1
BITMAP
0F80
EA80
AF80
AA80
AF80
A200
EF80
0200
0F80
ENDCHAR
STARTCHAR 54ED
ENCODING 21741
SWIDTH 960 0
DWIDTH 10 0
BBX 9 9 1 -1
BITMAP
F780
9480
F780
0A00
0900
FF80
1400
2200
C180
ENDCHAR
STARTCHAR 54EE
ENCODING 21742
SWIDTH 960 0
DWIDTH 10 0
BBX 9 9 1 -1
BITMAP
0280
EF80
A200
AF80
A500
AA00
F780
0200
0600
ENDCHAR
STARTCHAR 54F2
ENCODING 21746
SWIDTH 960 0
DWIDTH 10 0
BBX 9 9 1 -1
BITMAP
4700
E400
4780
E500
4900
0000
7F00
4100
7F00
ENDCHAR
STARTCHAR 54FA
ENCODING 21754
SWIDTH 960 0
DWIDTH 10 0
BBX 9 9 1 -1
BITMAP
0280
EF80
A200
AF80
AA80
AF80
EA80
0F80
0A80
ENDCHAR
STARTCHAR 54FD
ENCODING 21757
SWIDTH 960 0
DWIDTH 10 0
BBX 9 9 1 -1
BITMAP
0F80
E200
AF80
AF80
AA80
AF80
EA00
0600
1980
ENDCHAR
STARTCHAR 5504
ENCODING 21764
SWIDTH 960 0
DWIDTH 10 0
BBX 9 9 1 -1
BITMAP
0F00
E900
AF00
A900
AF00
A900
EF00
0900
1080
ENDCHAR
STARTCHAR 5506
ENCODING 21766
SWIDTH 960 0
DWIDTH 10 0
BBX 9 9 1 -1
BITMAP
0400
0900
EF80
A500
A980
A700
A900
E600
1980
ENDCHAR
STARTCHAR 5507
ENCODING 21767
SWIDTH 960 0
DWIDTH 10 0
BBX 9 9 1 -1
BITMAP
7F80
4000
7F80
5200
9980
0000
3F00
2100
3F00
ENDCHAR
STARTCHAR 550F
ENCODING 21775
SWIDTH 960 0
DWIDTH 10 0
BBX 9 9 1 -1
BITMAP
0480
E300
AC80
A400
BF80
AA00
FF80
2A80
0200
ENDCHAR
STARTCHAR 5510
ENCODING 21776
SWIDTH 960 0
DWIDTH 10 0
BBX 9 9 1 -1
BITMAP
0400
7F80
4400
5F00
7F80
4500
5F00
9100
9F00
ENDCHAR
STARTCHAR 5514
ENCODING 21780
SWIDTH 960 0
DWIDTH 10 0
BBX 9 9 1 -1
BITMAP
0F80
E200
AF00
A500
AF80
A000
EF00
0900
0F00
ENDCHAR
STARTCHAR 5516
ENCODING 21782
SWIDTH 960 0
DWIDTH 10 0
BBX 9 9 1 -1
BITMAP
3F80
0A00
EA00
BF80
AA80
BF80
EA00
0A00
3F80
ENDCHAR
STARTCHAR 552E
ENCODING 21806
SWIDTH 960 0
DWIDTH 10 0
BBX 9 9 1 -1
BITMAP
2200
7F80
FF00
4400
7F80
0000
3F00
2100
3F00
ENDCHAR
STARTCHAR 552F
ENCODING 21807
SWIDTH 960 0
DWIDTH 10 0
BBX 9 9 1 -1
BITMAP
0500
EA00
AF80
AA00
AF80
AA00
EF80
0A00
0F80
ENDCHAR
STARTCHAR 5531
ENCODING 21809
SWIDTH 960 0
DWIDTH 10 0
BBX 9 9 1 -1
BITMAP
0700
E500
A700
A500
AF80
A880
EF80
0880
0F80
ENDCHAR
STARTCHAR 5533
ENCODING 21811
SWIDTH 960 0
DWIDTH 10 0
BBX 9 9 1 -1
BITMAP
0F80
E000
AF80
A880
AF80
AA00
EF80
1500
2880
ENDCHAR
STARTCHAR 5538
ENCODING 21816
SWIDTH 960 0
DWIDTH 10 0
BBX 9 9 1 -1
BITMAP
0600
E900
B680
A000
AF00
A200
E000
1480
1680
ENDCHAR
STARTCHAR 5539
ENCODING 21817
SWIDTH 960 0
DWIDTH 10 0
BBX 9 9 1 -1
BITMAP
0900
EA80
BC00
A800
AD00
B480
F400
2500
0C80
ENDCHAR
STARTCHAR 553E
ENCODING 21822
SWIDTH 960 0
DWIDTH 10 0
BBX 10 9 0 -1
BITMAP
0F80
E200
BFC0
AA80
BFC0
AA80
FFC0
0200
0F80
ENDCHAR
STARTCHAR 5540
ENCODING 21824
SWIDTH 960 0
DWIDTH 10 0
BBX 9 9 1 -1
BITMAP
0F80
E900
AB80
A900
AF80
A900
EB80
1100
2780
ENDCHAR
STARTCHAR 5544
ENCODING 21828
SWIDTH 960 0
DWIDTH 10 0
BBX 9 9 1 -1
BITMAP
1F80
E400
A680
BB00
A600
BB00
E680
1A80
0400
ENDCHAR
STARTCHAR 5545
ENCODING 21829
SWIDTH 960 0
DWIDTH 10 0
BBX 9 9 1 -1
BITMAP
0200
E380
A200
AF80
A880
AF80
E200
0F80
0200
ENDCHAR
STARTCHAR 5546
ENCODING 21830
SWIDTH 960 0
DWIDTH 10 0
BBX 9 9 1 -1
BITMAP
0800
FF80
2200
FF80
9480
E780
9C80
9480
9D80
ENDCHAR
STARTCHAR 554C
ENCODING 21836
SWIDTH 960 0
DWIDTH 10 0
BBX 9 9 1 -1
BITMAP
0200
EF80
A880
A500
A980
A000
E700
0200
0F80
ENDCHAR
STARTCHAR 554F
ENCODING 21839
SWIDTH 960 0
DWIDTH 10 0
BBX 9 9 1 -1
BITMAP
F780
9480
F780
8080
BE80
A280
A280
BE80
8180
ENDCHAR
STARTCHAR 5553
ENCODING 21843
SWIDTH 960 0
DWIDTH 10 0
BBX 9 9 1 -1
BITMAP
F400
0780
7500
5200
7580
8000
7F00
4100
7F00
ENDCHAR
STARTCHAR 5556
ENCODING 21846
SWIDTH 960 0
DWIDTH 10 0
BBX 9 9 1 -1
BITMAP
0200
EA80
A600
A980
A000
A200
EA80
0600
0980
ENDCHAR
STARTCHAR 5557
ENCODING 21847
SWIDTH 960 0
DWIDTH 10 0
BBX 9 9 1 -1
BITMAP
0780
E880
A100
A400
A980
A880
ED80
0880
0F80
ENDCHAR
STARTCHAR 555C
ENCODING 21852
SWIDTH 960 0
DWIDTH 10 0
BBX 9 9 1 -1
BITMAP
1F80
E480
A900
B680
A000
BF80
E480
0900
1680
ENDCHAR
STARTCHAR 555D
ENCODING 21853
SWIDTH 960 0
DWIDTH 10 0
BBX 10 9 0 -1
BITMAP
0200
EDC0
A540
BF40
A540
A540
EFC0
1500
04C0
ENDCHAR
STARTCHAR 5563
ENCODING 21859
SWIDTH 960 0
DWIDTH 10 0
BBX 10 9 0 -1
BITMAP
1000
DDC0
C940
DD40
C940
CD40
D940
1DC0
0100
ENDCHAR
STARTCHAR 557B
ENCODING 21883
SWIDTH 960 0
DWIDTH 10 0
BBX 9 9 1 -1
BITMAP
0800
7F00
1400
FF80
AA80
0800
7F00
4100
7F00
ENDCHAR
STARTCHAR 557C
ENCODING 21884
SWIDTH 960 0
DWIDTH 10 0
BBX 9 9 1 -1
BITMAP
0200
EF80
A500
BF80
B280
AF80
EA80
0A80
0200
ENDCHAR
STARTCHAR 557E
ENCODING 21886
SWIDTH 960 0
DWIDTH 10 0
BBX 9 9 1 -1
BITMAP
0500
F900
AB80
BD00
A900
AD00
F900
0A80
0A80
ENDCHAR
STARTCHAR 5580
ENCODING 21888
SWIDTH 960 0
DWIDTH 10 0
BBX 9 9 1 -1
BITMAP
0200
EF80
A880
A300
A500
A200
E700
0D80
0700
ENDCHAR
STARTCHAR 5583
ENCODING 21891
SWIDTH 960 0
DWIDTH 10 0
BBX 10 9 0 -1
BITMAP
0200
EFC0
A200
AFC0
AD40
AF40
EA40
0F40
0AC0
ENDCHAR
STARTCHAR 5584
ENCODING 21892
SWIDTH 960 0
DWIDTH 10 0
BBX 9 9 1 -1
BITMAP
2200
FF80
0800
3E00
FF80
2A00
FF80
4100
7F00
ENDCHAR
STARTCHAR 5587
ENCODING 21895
SWIDTH 960 0
DWIDTH 10 0
BBX 9 9 1 -1
BITMAP
0880
FE80
AA80
BE80
BA80
BE80
E880
1C80
2980
ENDCHAR
STARTCHAR 5589
ENCODING 21897
SWIDTH 960 0
DWIDTH 10 0
BBX 9 9 1 -1
BITMAP
0580
E480
AB80
B800
AB80
AD00
AB80
E900
0A80
ENDCHAR
STARTCHAR 558A
ENCODING 21898
SWIDTH 960 0
DWIDTH 10 0
BBX 10 9 0 -1
BITMAP
0140
E100
AFC0
A900
AD40
A940
AE80
EA80
1740
ENDCHAR
STARTCHAR 558B
ENCODING 21899
SWIDTH 960 0
DWIDTH 10 0
BBX 9 9 1 -1
BITMAP
0B00
FF80
AB00
A800
AF80
A200
EF80
0700
0A80
ENDCHAR
STARTCHAR 5598
ENCODING 21912
SWIDTH 960 0
DWIDTH 10 0
BBX 9 9 1 -1
BITMAP
0A80
EF80
A000
AF80
A400
AF80
EA80
0A80
0A80
ENDCHAR
STARTCHAR 5599
ENCODING 21913
SWIDTH 960 0
DWIDTH 10 0
BBX 9 9 1 -1
BITMAP
0700
E900
BF80
A400
AA80
A500
FB00
0580
1A00
ENDCHAR
STARTCHAR 559A
ENCODING 21914
SWIDTH 960 0
DWIDTH 10 0
BBX 9 9 1 -1
BITMAP
0600
EA00
BF00
AB00
A900
BF80
A400
EA00
1180
ENDCHAR
STARTCHAR 559C
ENCODING 21916
SWIDTH 960 0
DWIDTH 10 0
BBX 9 9 1 -1
BITMAP
0800
FF80
7F00
2200
3E00
1400
FF80
2200
3E00
ENDCHAR
STARTCHAR 559D
ENCODING 21917
SWIDTH 960 0
DWIDTH 10 0
BBX 9 9 1 -1
BITMAP
0F00
E900
AF00
AF00
A400
AF80
B480
E680
0100
ENDCHAR
STARTCHAR 559E
ENCODING 21918
SWIDTH 960 0
DWIDTH 10 0
BBX 9 9 1 -1
BITMAP
0800
DF80
D680
DE80
D280
DE80
D280
1B80
1200
ENDCHAR
STARTCHAR 559F
ENCODING 21919
SWIDTH 960 0
DWIDTH 10 0
BBX 9 9 1 -1
BITMAP
1F80
F480
BF80
A900
AF00
A900
EF00
0900
0B00
ENDCHAR
STARTCHAR 55A7
ENCODING 21927
SWIDTH 960 0
DWIDTH 10 0
BBX 9 9 1 -1
BITMAP
0400
FF80
B080
AF00
A900
AF00
E900
0900
1F80
ENDCHAR
STARTCHAR 55A8
ENCODING 21928
SWIDTH 960 0
DWIDTH 10 0
BBX 9 9 1 -1
BITMAP
0200
EF80
A700
A000
AF80
A880
E500
0500
0980
ENDCHAR
STARTCHAR 55A9
ENCODING 21929
SWIDTH 960 0
DWIDTH 10 0
BBX 9 9 1 -1
BITMAP
0E00
E500
AA80
A000
AE80
AA80
EF00
0A80
0A80
ENDCHAR
STARTCHAR 55AA
ENCODING 21930
SWIDTH 960 0
DWIDTH 10 0
BBX 9 9 1 -1
BITMAP
0800
FF80
0800
6B00
0800
FF80
4500
5A00
E180
ENDCHAR
STARTCHAR 55AB
ENCODING 21931
SWIDTH 960 0
DWIDTH 10 0
BBX 9 9 1 -1
BITMAP
0B80
FD80
AA80
BD80
A000
A400
FF80
0A00
3180
ENDCHAR
STARTCHAR 55AC
ENCODING 21932
SWIDTH 960 0
DWIDTH 10 0
BBX 9 9 1 -1
BITMAP
3E00
0800
FF80
2200
DD80
0000
7F00
5D00
4300
ENDCHAR
STARTCHAR 55AE
ENCODING 21934
SWIDTH 960 0
DWIDTH 10 0
BBX 9 9 1 -1
BITMAP
F780
9480
F780
7F00
4900
7F00
0800
FF80
0800
ENDCHAR
STARTCHAR 55B0
ENCODING 21936
SWIDTH 960 0
DWIDTH 10 0
BBX 9 9 1 -1
BITMAP
0600
E900
B480
AF00
A900
AF00
AA80
E900
1C80
ENDCHAR
STARTCHAR 55B6
ENCODING 21942
SWIDTH 960 0
DWIDTH 10 0
BBX 9 9 1 -1
BITMAP
5100
2A00
FF80
A280
3E00
1000
7F00
4100
7F00
ENDCHAR
STARTCHAR 55C4
ENCODING 21956
SWIDTH 960 0
DWIDTH 10 0
BBX 9 9 1 -1
BITMAP
1F80
E200
AF80
A880
AF80
A700
ED00
0200
1D80
ENDCHAR
STARTCHAR 55C5
ENCODING 21957
SWIDTH 960 0
DWIDTH 10 0
BBX 9 9 1 -1
BITMAP
0400
EF00
A900
AF00
A500
BF80
E400
0A00
1180
ENDCHAR
STARTCHAR 55C7
ENCODING 21959
SWIDTH 960 0
DWIDTH 10 0
BBX 9 9 1 -1
BITMAP
0800
FF80
4900
AA80
FF80
A280
BE80
8080
FF80
ENDCHAR
STARTCHAR 55D4
ENCODING 21972
SWIDTH 960 0
DWIDTH 10 0
BBX 9 9 1 -1
BITMAP
0B00
EC00
AF80
A500
B700
B500
BF80
E500
0880
ENDCHAR
STARTCHAR 55DA
ENCODING 21978
SWIDTH 960 0
DWIDTH 10 0
BBX 9 9 1 -1
BITMAP
0400
EF00
A900
AF80
A800
AF80
E080
2A80
0180
ENDCHAR
STARTCHAR 55DC
ENCODING 21980
SWIDTH 960 0
DWIDTH 10 0
BBX 9 9 1 -1
BITMAP
0500
EF00
BF80
AC00
B700
A000
EF00
0900
0F00
ENDCHAR
STARTCHAR 55DF
ENCODING 21983
SWIDTH 960 0
DWIDTH 10 0
BBX 9 9 1 -1
BITMAP
0880
E500
AF80
A200
AF80
A400
EF00
1200
0F80
ENDCHAR
STARTCHAR 55E3
ENCODING 21987
SWIDTH 960 0
DWIDTH 10 0
BBX 9 9 1 -1
BITMAP
EF80
A080
EE80
0080
EE80
AA80
EE80
A080
A180
ENDCHAR
STARTCHAR 55E4
ENCODING 21988
SWIDTH 960 0
DWIDTH 10 0
BBX 9 9 1 -1
BITMAP
0A80
EF80
A400
BF80
AA80
AF80
E200
0380
0E80
ENDCHAR
STARTCHAR 55F7
ENCODING 22007
SWIDTH 960 0
DWIDTH 10 0
BBX 9 9 1 -1
BITMAP
0900
FD00
AB80
BE80
AA80
AE80
EB00
1280
1680
ENDCHAR
STARTCHAR 55F9
ENCODING 22009
SWIDTH 960 0
DWIDTH 10 0
BBX 9 9 1 -1
BITMAP
1100
EB80
B100
AB80
A380
B900
EB80
0900
1780
ENDCHAR
STARTCHAR 55FD
ENCODING 22013
SWIDTH 960 0
DWIDTH 10 0
BBX 10 9 0 -1
BITMAP
0500
EFC0
A540
AE00
AA80
AE80
E480
0F40
1540
ENDCHAR
STARTCHAR 55FE
ENCODING 22014
SWIDTH 960 0
DWIDTH 10 0
BBX 9 9 1 -1
BITMAP
0A00
EB80
BC00
AA00
AF80
B500
B780
E500
0A80
ENDCHAR
STARTCHAR 5606
ENCODING 22022
SWIDTH 960 0
DWIDTH 10 0
BBX 9 9 1 -1
BITMAP
0A00
FF80
B500
BF00
A400
BF00
E400
0A00
3180
ENDCHAR
STARTCHAR 5609
ENCODING 22025
SWIDTH 960 0
DWIDTH 10 0
BBX 9 9 1 -1
BITMAP
0800
FF80
0800
7F00
2200
FF80
2100
F780
5780
ENDCHAR
STARTCHAR 5614
ENCODING 22036
SWIDTH 960 0
DWIDTH 10 0
BBX 10 9 0 -1
BITMAP
0FC0
E800
AB80
AA80
AFC0
AD40
EFC0
0800
0FC0
ENDCHAR
STARTCHAR 5616
ENCODING 22038
SWIDTH 960 0
DWIDTH 10 0
BBX 9 9 1 -1
BITMAP
0200
EF80
A200
AF80
A500
A700
E500
0700
0880
ENDCHAR
STARTCHAR 5617
ENCODING 22039
SWIDTH 960 0
DWIDTH 10 0
BBX 9 9 1 -1
BITMAP
4900
FF80
9C80
4000
7E00
4080
7F80
2200
3E00
ENDCHAR
STARTCHAR 5618
ENCODING 22040
SWIDTH 960 0
DWIDTH 10 0
BBX 9 9 1 -1
BITMAP
0300
E200
AF80
AA00
AB80
A800
EA80
0B00
1780
ENDCHAR
STARTCHAR 561B
ENCODING 22043
SWIDTH 960 0
DWIDTH 10 0
BBX 10 9 0 -1
BITMAP
0200
3FC0
E000
A480
AFC0
A480
EEC0
2CC0
4480
ENDCHAR
STARTCHAR 5629
ENCODING 22057
SWIDTH 960 0
DWIDTH 10 0
BBX 9 9 1 -1
BITMAP
0A00
FF80
CA00
FF80
D500
FF80
D500
3F80
0400
ENDCHAR
STARTCHAR 562F
ENCODING 22063
SWIDTH 960 0
DWIDTH 10 0
BBX 9 9 1 -1
BITMAP
0200
E700
A980
A700
AA80
AA80
EF80
0A80
1280
ENDCHAR
STARTCHAR 5631
ENCODING 22065
SWIDTH 960 0
DWIDTH 10 0
BBX 9 9 1 -1
BITMAP
3F80
E080
BF80
AA80
AF80
E200
3F80
5680
9080
ENDCHAR
STARTCHAR 5632
ENCODING 22066
SWIDTH 960 0
DWIDTH 10 0
BBX 9 9 1 -1
BITMAP
0B80
FE80
AB80
BE80
B680
BF80
EA80
1E80
0A80
ENDCHAR
STARTCHAR 5634
ENCODING 22068
SWIDTH 960 0
DWIDTH 10 0
BBX 9 9 1 -1
BITMAP
0A80
FF00
BB80
A600
BA00
AF80
EA80
0F80
1080
ENDCHAR
STARTCHAR 5636
ENCODING 22070
SWIDTH 960 0
DWIDTH 10 0
BBX 10 9 0 -1
BITMAP
0A40
FF80
AB00
AFC0
AB40
AB40
BF40
EA40
1140
ENDCHAR
STARTCHAR 5638
ENCODING 22072
SWIDTH 960 0
DWIDTH 10 0
BBX 10 9 0 -1
BITMAP
0800
EFC0
BA80
AFC0
AA80
AA80
FFC0
0000
1540
ENDCHAR
STARTCHAR 5642
ENCODING 22082
SWIDTH 960 0
DWIDTH 10 0
BBX 9 9 1 -1
BITMAP
0900
FF80
AF00
A900
AF00
A200
FF80
0A00
0600
ENDCHAR
STARTCHAR 564C
ENCODING 22092
SWIDTH 960 0
DWIDTH 10 0
BBX 9 9 1 -1
BITMAP
0500
EF80
AA80
AF80
AA80
AF80
E500
0500
0700
ENDCHAR
STARTCHAR 564E
ENCODING 22094
SWIDTH 960 0
DWIDTH 10 0
BBX 9 9 1 -1
BITMAP
0200
EF80
A200
AF80
A880
A700
E700
0200
0F80
ENDCHAR
STARTCHAR 5650
ENCODING 22096
SWIDTH 960 0
DWIDTH 10 0
BBX 9 9 1 -1
BITMAP
7700
7700
0000
7F00
0800
FF80
0000
7700
7700
ENDCHAR
STARTCHAR 565B
ENCODING 22107
SWIDTH 960 0
DWIDTH 10 0
BBX 9 9 1 -1
BITMAP
0380
0A00
EF80
A000
AF80
AA80
AD80
EA80
0F80
ENDCHAR
STARTCHAR 5664
ENCODING 22116
SWIDTH 960 0
DWIDTH 10 0
BBX 9 9 1 -1
BITMAP
0500
EF80
A500
AA80
A700
A000
EF80
0200
0A80
ENDCHAR
STARTCHAR 5668
ENCODING 22120
SWIDTH 960 0
DWIDTH 10 0
BBX 9 9 1 -1
BITMAP
7700
5500
7700
0800
FF80
4100
F780
5500
7700
ENDCHAR
STARTCHAR 566A
ENCODING 22122
SWIDTH 960 0
DWIDTH 10 0
BBX 9 9 1 -1
BITMAP
0700
E500
AF80
AA80
AF80
A200
EF80
0700
0A80
ENDCHAR
STARTCHAR 566B
ENCODING 22123
SWIDTH 960 0
DWIDTH 10 0
BBX 9 9 1 -1
BITMAP
0200
EF80
A500
AF80
A500
A700
E000
1480
1680
ENDCHAR
STARTCHAR 566C
ENCODING 22124
SWIDTH 960 0
DWIDTH 10 0
BBX 10 9 0 -1
BITMAP
0500
E7C0
AA80
A000
AFC0
A680
AB40
E200
0FC0
ENDCHAR
STARTCHAR 5674
ENCODING 22132
SWIDTH 960 0
DWIDTH 10 0
BBX 10 9 0 -1
BITMAP
0200
FFC0
AA80
BFC0
A880
AF80
E880
0F80
1040
ENDCHAR
STARTCHAR 5678
ENCODING 22136
SWIDTH 960 0
DWIDTH 10 0
BBX 9 9 1 -1
BITMAP
0B80
1D00
EB80
B680
B780
BE80
AB80
E800
0E80
ENDCHAR
STARTCHAR 567A
ENCODING 22138
SWIDTH 960 0
DWIDTH 10 0
BBX 9 9 1 -1
BITMAP
0B80
FE00
B780
BE80
AA80
BE80
EA80
1E80
0880
ENDCHAR
STARTCHAR 5680
ENCODING 22144
SWIDTH 960 0
DWIDTH 10 0
BBX 10 10 0 -2
BITMAP
0200
FFC0
B540
AA80
A000
AF80
EA80
1FC0
0200
0600
ENDCHAR
STARTCHAR 5686
ENCODING 22150
SWIDTH 960 0
DWIDTH 10 0
BBX 9 9 1 -1
BITMAP
0500
EF80
A200
AF80
A700
A000
EF80
0A80
0980
ENDCHAR
STARTCHAR 5687
ENCODING 22151
SWIDTH 960 0
DWIDTH 10 0
BBX 9 9 1 -1
BITMAP
0900
FF80
C900
FF80
DB00
F680
DB00
DB00
2D00
ENDCHAR
STARTCHAR 568A
ENCODING 22154
SWIDTH 960 0
DWIDTH 10 0
BBX 9 9 1 -1
BITMAP
0200
E700
A500
AF80
AA80
AF80
E000
1F80
0500
ENDCHAR
STARTCHAR 568F
ENCODING 22159
SWIDTH 960 0
DWIDTH 10 0
BBX 10 9 0 -1
BITMAP
0780
E200
AFC0
A300
A7C0
A240
AB80
EE00
0BC0
ENDCHAR
STARTCHAR 5694
ENCODING 22164
SWIDTH 960 0
DWIDTH 10 0
BBX 10 9 0 -1
BITMAP
0780
E200
AFC0
AB40
A780
A200
AB80
EE00
0BC0
ENDCHAR
STARTCHAR 56A0
ENCODING 22176
SWIDTH 960 0
DWIDTH 10 0
BBX 10 9 0 -1
BITMAP
0640
EA40
A540
AF40
A540
AD40
EB40
0440
0EC0
ENDCHAR
STARTCHAR 56A2
ENCODING 22178
SWIDTH 960 0
DWIDTH 10 0
BBX 9 9 1 -1
BITMAP
0800
FF80
2200
FF80
9480
6B00
FF80
6600
BB80
ENDCHAR
STARTCHAR 56A5
ENCODING 22181
SWIDTH 960 0
DWIDTH 10 0
BBX 9 9 1 -1
BITMAP
0500
EF80
A500
A700
AF80
A500
EF80
0000
0A80
ENDCHAR
STARTCHAR 56AE
ENCODING 22190
SWIDTH 960 0
DWIDTH 10 0
BBX 9 9 1 -1
BITMAP
5D80
8900
DD80
5180
9D00
0800
FF80
9480
9D80
ENDCHAR
STARTCHAR 56B4
ENCODING 22196
SWIDTH 960 0
DWIDTH 10 0
BBX 9 9 1 -1
BITMAP
7700
5500
FF80
B800
9200
FB80
AA80
F900
8A80
ENDCHAR
STARTCHAR 56B6
ENCODING 22198
SWIDTH 960 0
DWIDTH 10 0
BBX 9 9 1 -1
BITMAP
0D80
ED80
A000
AA80
A000
A200
EF80
0500
0E80
ENDCHAR
STARTCHAR 56BC
ENCODING 22204
SWIDTH 960 0
DWIDTH 10 0
BBX 10 9 0 -1
BITMAP
0F80
E500
AF80
AA80
AF80
A080
EDC0
0880
0C80
ENDCHAR
STARTCHAR 56C0
ENCODING 22208
SWIDTH 960 0
DWIDTH 10 0
BBX 10 9 0 -1
BITMAP
0900
1FC0
EA80
BF80
B500
BFC0
E880
1D80
0880
ENDCHAR
STARTCHAR 56C1
ENCODING 22209
SWIDTH 960 0
DWIDTH 10 0
BBX 10 9 0 -1
BITMAP
0F80
E500
A500
AF80
A100
BFC0
EA80
1FC0
0280
ENDCHAR
STARTCHAR 56C2
ENCODING 22210
SWIDTH 960 0
DWIDTH 10 0
BBX 9 9 1 -1
BITMAP
7700
5500
FF80
2200
3E00
4100
F780
9480
F780
ENDCHAR
STARTCHAR 56C3
ENCODING 22211
SWIDTH 960 0
DWIDTH 10 0
BBX 10 9 0 -1
BITMAP
0940
FE80
B7C0
AE80
ABC0
BE80
EBC0
3E80
0BC0
ENDCHAR
STARTCHAR 56C8
ENCODING 22216
SWIDTH 960 0
DWIDTH 10 0
BBX 10 9 0 -1
BITMAP
0500
EFC0
A480
AAC0
A740
A000
EFC0
0480
0FC0
ENDCHAR
STARTCHAR 56CE
ENCODING 22222
SWIDTH 960 0
DWIDTH 10 0
BBX 10 9 0 -1
BITMAP
3A80
EC40
BB80
AA80
BB80
A800
FB80
0280
2B80
ENDCHAR
STARTCHAR 56D1
ENCODING 22225
SWIDTH 960 0
DWIDTH 10 0
BBX 10 9 0 -1
BITMAP
0FC0
E840
AFC0
AA80
AFC0
AA00
EFC0
1240
1740
ENDCHAR
STARTCHAR 56D3
ENCODING 22227
SWIDTH 960 0
DWIDTH 10 0
BBX 10 9 0 -1
BITMAP
1DC0
E8C0
BD40
A380
AA00
BFC0
FAC0
1540
1FC0
ENDCHAR
STARTCHAR 56D7
ENCODING 22231
SWIDTH 960 0
DWIDTH 10 0
BBX 9 9 1 -1
BITMAP
FF80
8080
8080
8080
8080
8080
8080
8080
FF80
ENDCHAR
STARTCHAR 56D8
ENCODING 22232
SWIDTH 960 0
DWIDTH 10 0
BBX 9 9 1 -1
BITMAP
FF80
8080
BE80
A280
BE80
A080
A280
BE80
8180
ENDCHAR
STARTCHAR 56DA
ENCODING 22234
SWIDTH 960 0
DWIDTH 10 0
BBX 9 9 1 -1
BITMAP
FF80
8080
8880
8880
8880
9480
A280
8080
FF80
ENDCHAR
STARTCHAR 56DB
ENCODING 22235
SWIDTH 960 0
DWIDTH 10 0
BBX 9 8 1 -1
BITMAP
FF80
9480
9480
A480
C780
8080
8080
FF80
ENDCHAR
STARTCHAR 56DE
ENCODING 22238
SWIDTH 960 0
DWIDTH 10 0
BBX 9 9 1 -1
BITMAP
FF80
8080
BE80
A280
A280
A280
BE80
8080
FF80
ENDCHAR
STARTCHAR 56E0
ENCODING 22240
SWIDTH 960 0
DWIDTH 10 0
BBX 9 9 1 -1
BITMAP
FF80
8080
8880
BE80
8880
9480
A280
8080
FF80
ENDCHAR
STARTCHAR 56E3
ENCODING 22243
SWIDTH 960 0
DWIDTH 10 0
BBX 9 9 1 -1
BITMAP
FF80
8080
8480
BE80
8480
9480
8480
8080
FF80
ENDCHAR
STARTCHAR 56EE
ENCODING 22254
SWIDTH 960 0
DWIDTH 10 0
BBX 9 9 1 -1
BITMAP
FF80
8080
9480
A680
E480
A480
A680
8080
FF80
ENDCHAR
STARTCHAR 56F0
ENCODING 22256
SWIDTH 960 0
DWIDTH 10 0
BBX 9 9 1 -1
BITMAP
FF80
8080
8880
BE80
8880
9C80
AA80
8080
FF80
ENDCHAR
STARTCHAR 56F2
ENCODING 22258
SWIDTH 960 0
DWIDTH 10 0
BBX 9 9 1 -1
BITMAP
FF80
8080
9480
BE80
9480
BE80
9480
A480
FF80
ENDCHAR
STARTCHAR 56F3
ENCODING 22259
SWIDTH 960 0
DWIDTH 10 0
BBX 9 9 1 -1
BITMAP
FF80
8080
AA80
8280
9480
8880
B480
8080
FF80
ENDCHAR
STARTCHAR 56F9
ENCODING 22265
SWIDTH 960 0
DWIDTH 10 0
BBX 9 9 1 -1
BITMAP
FF80
8880
9480
BE80
C180
BE80
8A80
8880
FF80
ENDCHAR
STARTCHAR 56FA
ENCODING 22266
SWIDTH 960 0
DWIDTH 10 0
BBX 9 9 1 -1
BITMAP
FF80
8880
BE80
8880
BE80
A280
BE80
8080
FF80
ENDCHAR
STARTCHAR 56FD
ENCODING 22269
SWIDTH 960 0
DWIDTH 10 0
BBX 9 9 1 -1
BITMAP
FF80
8080
BE80
8880
BC80
8A80
BE80
8080
FF80
ENDCHAR
STARTCHAR 56FF
ENCODING 22271
SWIDTH 960 0
DWIDTH 10 0
BBX 9 9 1 -1
BITMAP
FF80
8880
FF80
9080
BE80
D280
9E80
9280
FF80
ENDCHAR
STARTCHAR 5700
ENCODING 22272
SWIDTH 960 0
DWIDTH 10 0
BBX 9 9 1 -1
BITMAP
FF80
9480
A680
8880
BE80
9080
9E80
A280
FF80
ENDCHAR
STARTCHAR 5703
ENCODING 22275
SWIDTH 960 0
DWIDTH 10 0
BBX 9 9 1 -1
BITMAP
FF80
8A80
BE80
8880
BE80
AA80
BE80
AA80
FF80
ENDCHAR
STARTCHAR 5704
ENCODING 22276
SWIDTH 960 0
DWIDTH 10 0
BBX 9 9 1 -1
BITMAP
FF80
BE80
9080
BC80
9480
FF80
A280
BE80
FF80
ENDCHAR
STARTCHAR 5708
ENCODING 22280
SWIDTH 960 0
DWIDTH 10 0
BBX 9 9 1 -1
BITMAP
FF80
AA80
DD80
8880
FF80
BE80
D180
9E80
FF80
ENDCHAR
STARTCHAR 5709
ENCODING 22281
SWIDTH 960 0
DWIDTH 10 0
BBX 9 9 1 -1
BITMAP
FF80
8880
BE80
FF80
9480
FF80
BE80
8880
FF80
ENDCHAR
STARTCHAR 570B
ENCODING 22283
SWIDTH 960 0
DWIDTH 10 0
BBX 9 9 1 -1
BITMAP
FF80
8A80
FF80
8880
B480
B580
8280
B580
FF80
ENDCHAR
STARTCHAR 570D
ENCODING 22285
SWIDTH 960 0
DWIDTH 10 0
BBX 9 9 1 -1
BITMAP
FF80
8880
9E80
8A80
BF80
9480
BF80
8480
FF80
ENDCHAR
STARTCHAR 570F
ENCODING 22287
SWIDTH 960 0
DWIDTH 10 0
BBX 9 9 1 -1
BITMAP
FF80
AA80
9480
FF80
A280
FD80
9480
A480
FF80
ENDCHAR
STARTCHAR 5712
ENCODING 22290
SWIDTH 960 0
DWIDTH 10 0
BBX 9 9 1 -1
BITMAP
FF80
8880
BE80
FF80
A280
BE80
9C80
AA80
FF80
ENDCHAR
STARTCHAR 5713
ENCODING 22291
SWIDTH 960 0
DWIDTH 10 0
BBX 9 9 1 -1
BITMAP
FF80
A280
BE80
9480
9C80
9480
9C80
A280
FF80
ENDCHAR
STARTCHAR 5716
ENCODING 22294
SWIDTH 960 0
DWIDTH 10 0
BBX 9 9 1 -1
BITMAP
FF80
A280
BE80
8880
FF80
AA80
A280
BE80
FF80
ENDCHAR
STARTCHAR 5718
ENCODING 22296
SWIDTH 960 0
DWIDTH 10 0
BBX 9 9 1 -1
BITMAP
FF80
8880
BE80
9480
BE80
8480
BE80
8480
FF80
ENDCHAR
STARTCHAR 571C
ENCODING 22300
SWIDTH 960 0
DWIDTH 10 0
BBX 9 9 1 -1
BITMAP
FF80
AA80
BE80
8080
FF80
AA80
B480
D280
FF80
ENDCHAR
STARTCHAR 571F
ENCODING 22303
SWIDTH 960 0
DWIDTH 10 0
BBX 9 9 1 -1
BITMAP
0800
0800
0800
7F00
0800
0800
0800
0800
FF80
ENDCHAR
STARTCHAR 5726
ENCODING 22310
SWIDTH 960 0
DWIDTH 10 0
BBX 9 9 1 -1
BITMAP
4C00
4400
E400
4400
4400
4A00
6A00
9100
2080
ENDCHAR
STARTCHAR 5727
ENCODING 22311
SWIDTH 960 0
DWIDTH 10 0
BBX 9 9 1 -1
BITMAP
7F80
4000
4400
4400
5F00
4400
4400
8400
BF80
ENDCHAR
STARTCHAR 5728
ENCODING 22312
SWIDTH 960 0
DWIDTH 10 0
BBX 9 9 1 -1
BITMAP
1000
1000
FF80
2200
6200
6F80
A200
2200
2F80
ENDCHAR
STARTCHAR 572D
ENCODING 22317
SWIDTH 960 0
DWIDTH 10 0
BBX 9 9 1 -1
BITMAP
0800
7F00
0800
FF80
0000
0800
7F00
0800
FF80
ENDCHAR
STARTCHAR 5730
ENCODING 22320
SWIDTH 960 0
DWIDTH 10 0
BBX 9 9 1 -1
BITMAP
4200
4A00
EB80
4E80
5A80
4B80
6A00
C880
0F80
ENDCHAR
STARTCHAR 5737
ENCODING 22327
SWIDTH 960 0
DWIDTH 10 0
BBX 9 9 1 -1
BITMAP
4000
5F80
E400
4600
4500
4400
6400
8400
0400
ENDCHAR
STARTCHAR 5738
ENCODING 22328
SWIDTH 960 0
DWIDTH 10 0
BBX 9 9 1 -1
BITMAP
4200
4200
EA80
4A80
4A80
4A80
6A80
8A80
0F80
ENDCHAR
STARTCHAR 573B
ENCODING 22331
SWIDTH 960 0
DWIDTH 10 0
BBX 9 9 1 -1
BITMAP
4300
4C00
E800
4F80
4A00
4A00
6A00
8A00
1200
ENDCHAR
STARTCHAR 5740
ENCODING 22336
SWIDTH 960 0
DWIDTH 10 0
BBX 9 9 1 -1
BITMAP
4200
4200
EA00
4B80
4A00
4A00
6A00
8A00
1F80
ENDCHAR
STARTCHAR 5742
ENCODING 22338
SWIDTH 960 0
DWIDTH 10 0
BBX 9 9 1 -1
BITMAP
4F80
4800
E800
4F80
4A80
4A80
6900
D300
1480
ENDCHAR
STARTCHAR 5747
ENCODING 22343
SWIDTH 960 0
DWIDTH 10 0
BBX 9 9 1 -1
BITMAP
4400
4400
EF80
5080
4680
4080
6280
CC80
0300
ENDCHAR
STARTCHAR 574A
ENCODING 22346
SWIDTH 960 0
DWIDTH 10 0
BBX 9 9 1 -1
BITMAP
4200
4200
EF80
4400
4780
4480
6480
8880
1180
ENDCHAR
STARTCHAR 574E
ENCODING 22350
SWIDTH 960 0
DWIDTH 10 0
BBX 9 9 1 -1
BITMAP
4400
4780
E880
4280
4200
4200
6500
8500
0880
ENDCHAR
STARTCHAR 574F
ENCODING 22351
SWIDTH 960 0
DWIDTH 10 0
BBX 9 9 1 -1
BITMAP
4000
4F80
E200
4200
4700
4A80
6200
8200
0200
ENDCHAR
STARTCHAR 5750
ENCODING 22352
SWIDTH 960 0
DWIDTH 10 0
BBX 9 9 1 -1
BITMAP
0800
4900
4900
AA80
AA80
0800
7F00
0800
FF80
ENDCHAR
STARTCHAR 5751
ENCODING 22353
SWIDTH 960 0
DWIDTH 10 0
BBX 9 9 1 -1
BITMAP
4400
5F80
E000
4E00
4A00
6A00
4A00
9280
2380
ENDCHAR
STARTCHAR 5761
ENCODING 22369
SWIDTH 960 0
DWIDTH 10 0
BBX 10 9 0 -1
BITMAP
4200
4FC0
EA80
4A00
4FC0
4A80
6A80
C900
16C0
ENDCHAR
STARTCHAR 5764
ENCODING 22372
SWIDTH 960 0
DWIDTH 10 0
BBX 9 9 1 -1
BITMAP
4200
4F80
EA80
4F80
4A80
4F80
6200
C200
0200
ENDCHAR
STARTCHAR 5766
ENCODING 22374
SWIDTH 960 0
DWIDTH 10 0
BBX 9 9 1 -1
BITMAP
4F00
4900
E900
4F00
4900
4900
6F00
C000
1F80
ENDCHAR
STARTCHAR 5769
ENCODING 22377
SWIDTH 960 0
DWIDTH 10 0
BBX 9 9 1 -1
BITMAP
4500
4500
EF80
4500
4500
4700
6500
8500
0700
ENDCHAR
STARTCHAR 576A
ENCODING 22378
SWIDTH 960 0
DWIDTH 10 0
BBX 9 9 1 -1
BITMAP
4000
4F80
E200
4A80
4200
4F80
6200
C200
0200
ENDCHAR
STARTCHAR 577F
ENCODING 22399
SWIDTH 960 0
DWIDTH 10 0
BBX 9 9 1 -1
BITMAP
4500
4500
EF80
5900
4D00
4B00
6900
8900
0B00
ENDCHAR
STARTCHAR 5782
ENCODING 22402
SWIDTH 960 0
DWIDTH 10 0
BBX 9 9 1 -1
BITMAP
3E00
0800
7F00
2A00
FF80
2A00
7F00
0800
7F00
ENDCHAR
STARTCHAR 5788
ENCODING 22408
SWIDTH 960 0
DWIDTH 10 0
BBX 9 9 1 -1
BITMAP
2500
4400
DF80
4200
4180
0800
7F00
0800
FF80
ENDCHAR
STARTCHAR 5789
ENCODING 22409
SWIDTH 960 0
DWIDTH 10 0
BBX 9 9 1 -1
BITMAP
4800
4F80
D080
4E80
4A80
4E80
6900
8880
0F80
ENDCHAR
STARTCHAR 578B
ENCODING 22411
SWIDTH 960 0
DWIDTH 10 0
BBX 9 9 1 -1
BITMAP
FA80
5280
FA80
5080
5180
0800
7F00
0800
FF80
ENDCHAR
STARTCHAR 5793
ENCODING 22419
SWIDTH 960 0
DWIDTH 10 0
BBX 9 9 1 -1
BITMAP
4400
5F80
E400
4900
4600
4900
6200
8500
1880
ENDCHAR
STARTCHAR 57A0
ENCODING 22432
SWIDTH 960 0
DWIDTH 10 0
BBX 9 9 1 -1
BITMAP
4F00
4900
EF00
4900
4F00
4800
6D00
8A00
1D80
ENDCHAR
STARTCHAR 57A2
ENCODING 22434
SWIDTH 960 0
DWIDTH 10 0
BBX 9 9 1 -1
BITMAP
4300
4C00
E800
4F80
4800
6B80
4A80
9280
1380
ENDCHAR
STARTCHAR 57A3
ENCODING 22435
SWIDTH 960 0
DWIDTH 10 0
BBX 9 9 1 -1
BITMAP
5F80
4000
EF00
4900
4F00
4900
6F00
C000
1F80
ENDCHAR
STARTCHAR 57A4
ENCODING 22436
SWIDTH 960 0
DWIDTH 10 0
BBX 9 9 1 -1
BITMAP
4F80
4200
E480
4F80
4200
4700
6200
8200
0F80
ENDCHAR
STARTCHAR 57AA
ENCODING 22442
SWIDTH 960 0
DWIDTH 10 0
BBX 9 9 1 -1
BITMAP
4880
4500
EF80
4500
4500
4F80
6500
8500
0900
ENDCHAR
STARTCHAR 57B0
ENCODING 22448
SWIDTH 960 0
DWIDTH 10 0
BBX 9 9 1 -1
BITMAP
4400
4700
E400
5F80
4000
5F80
6600
8500
0400
ENDCHAR
STARTCHAR 57B3
ENCODING 22451
SWIDTH 960 0
DWIDTH 10 0
BBX 9 9 1 -1
BITMAP
4800
5380
E800
5B80
4900
4900
6900
8900
0B00
ENDCHAR
STARTCHAR 57C0
ENCODING 22464
SWIDTH 960 0
DWIDTH 10 0
BBX 9 9 1 -1
BITMAP
3E00
0800
FF80
2A00
E980
0800
7F00
0800
FF80
ENDCHAR
STARTCHAR 57C3
ENCODING 22467
SWIDTH 960 0
DWIDTH 10 0
BBX 9 9 1 -1
BITMAP
4200
4480
EF80
4400
4700
4200
6F80
8500
0880
ENDCHAR
STARTCHAR 57C6
ENCODING 22470
SWIDTH 960 0
DWIDTH 10 0
BBX 9 9 1 -1
BITMAP
4600
4A00
DF80
4A80
4F80
4A80
6F80
8880
1180
ENDCHAR
STARTCHAR 57CB
ENCODING 22475
SWIDTH 960 0
DWIDTH 10 0
BBX 9 9 1 -1
BITMAP
4F80
4A80
EF80
4A80
4F80
4200
6F80
C200
0F80
ENDCHAR
STARTCHAR 57CE
ENCODING 22478
SWIDTH 960 0
DWIDTH 10 0
BBX 9 9 1 -1
BITMAP
4280
4200
DF80
5200
5280
5E80
D500
1500
2E80
ENDCHAR
STARTCHAR 57D2
ENCODING 22482
SWIDTH 960 0
DWIDTH 10 0
BBX 9 9 1 -1
BITMAP
4300
4E80
EA80
4100
4F80
4100
6500
8100
0300
ENDCHAR
STARTCHAR 57D3
ENCODING 22483
SWIDTH 960 0
DWIDTH 10 0
BBX 9 9 1 -1
BITMAP
4300
4E00
E580
4E00
4100
4F80
6100
8500
0300
ENDCHAR
STARTCHAR 57D4
ENCODING 22484
SWIDTH 960 0
DWIDTH 10 0
BBX 9 9 1 -1
BITMAP
4280
4F80
E200
4F80
4A80
4F80
6A80
8F80
0A80
ENDCHAR
STARTCHAR 57D6
ENCODING 22486
SWIDTH 960 0
DWIDTH 10 0
BBX 9 9 1 -1
BITMAP
4900
5F80
E900
4600
4A80
5B00
4A00
CA80
0B80
ENDCHAR
STARTCHAR 57DC
ENCODING 22492
SWIDTH 960 0
DWIDTH 10 0
BBX 9 9 1 -1
BITMAP
4200
F780
6300
D680
4200
0800
7F00
0800
FF80
ENDCHAR
STARTCHAR 57DF
ENCODING 22495
SWIDTH 960 0
DWIDTH 10 0
BBX 9 9 1 -1
BITMAP
4280
4200
FF80
4200
5A80
5A80
6100
DB00
0480
ENDCHAR
STARTCHAR 57E0
ENCODING 22496
SWIDTH 960 0
DWIDTH 10 0
BBX 9 9 1 -1
BITMAP
4400
4F80
E880
4F00
4880
4F80
6200
CF80
0200
ENDCHAR
STARTCHAR 57E3
ENCODING 22499
SWIDTH 960 0
DWIDTH 10 0
BBX 9 9 1 -1
BITMAP
4200
4F80
E500
4500
4A80
4200
6F80
8200
0200
ENDCHAR
STARTCHAR 57F4
ENCODING 22516
SWIDTH 960 0
DWIDTH 10 0
BBX 9 9 1 -1
BITMAP
4200
4F80
E200
5700
5500
5500
5700
D000
1F80
ENDCHAR
STARTCHAR 57F7
ENCODING 22519
SWIDTH 960 0
DWIDTH 10 0
BBX 10 9 0 -1
BITMAP
2200
7A00
2780
FA80
5680
FB80
2280
7A80
24C0
ENDCHAR
STARTCHAR 57F9
ENCODING 22521
SWIDTH 960 0
DWIDTH 10 0
BBX 9 9 1 -1
BITMAP
4200
4F80
E500
5F80
4000
6F80
C880
0880
0F80
ENDCHAR
STARTCHAR 57FA
ENCODING 22522
SWIDTH 960 0
DWIDTH 10 0
BBX 9 9 1 -1
BITMAP
2200
FF80
3E00
2200
FF80
2A00
5D00
8880
7F00
ENDCHAR
STARTCHAR 57FC
ENCODING 22524
SWIDTH 960 0
DWIDTH 10 0
BBX 9 9 1 -1
BITMAP
4400
5F80
EA00
5100
5F80
4100
6D00
CD00
0300
ENDCHAR
STARTCHAR 5800
ENCODING 22528
SWIDTH 960 0
DWIDTH 10 0
BBX 9 9 1 -1
BITMAP
5F80
5080
DF80
5200
5A80
5F80
D200
2A80
2F80
ENDCHAR
STARTCHAR 5802
ENCODING 22530
SWIDTH 960 0
DWIDTH 10 0
BBX 9 9 1 -1
BITMAP
4900
2A00
FF80
A280
3E00
0800
3E00
0800
FF80
ENDCHAR
STARTCHAR 5805
ENCODING 22533
SWIDTH 960 0
DWIDTH 10 0
BBX 9 9 1 -1
BITMAP
F780
A480
F280
A300
F480
0800
7F00
0800
FF80
ENDCHAR
STARTCHAR 5806
ENCODING 22534
SWIDTH 960 0
DWIDTH 10 0
BBX 9 9 1 -1
BITMAP
4500
4A00
FF80
4A00
4F80
4A00
6F80
8A00
0F80
ENDCHAR
STARTCHAR 580A
ENCODING 22538
SWIDTH 960 0
DWIDTH 10 0
BBX 9 9 1 -1
BITMAP
FF80
1400
6300
1400
FF80
0800
7F00
0800
FF80
ENDCHAR
STARTCHAR 580B
ENCODING 22539
SWIDTH 960 0
DWIDTH 10 0
BBX 9 9 1 -1
BITMAP
4F80
4A80
EF80
4A80
4A80
4F80
6A80
8A80
1280
ENDCHAR
STARTCHAR 5815
ENCODING 22549
SWIDTH 960 0
DWIDTH 10 0
BBX 9 9 1 -1
BITMAP
E400
DF80
AD00
D700
8500
0800
7F00
0800
FF80
ENDCHAR
STARTCHAR 5819
ENCODING 22553
SWIDTH 960 0
DWIDTH 10 0
BBX 9 9 1 -1
BITMAP
4F80
4500
EF80
4A80
4F80
4200
6700
8200
0F80
ENDCHAR
STARTCHAR 581D
ENCODING 22557
SWIDTH 960 0
DWIDTH 10 0
BBX 9 9 1 -1
BITMAP
4F00
4900
EB00
5F80
5080
5E80
7A80
9E80
1180
ENDCHAR
STARTCHAR 5821
ENCODING 22561
SWIDTH 960 0
DWIDTH 10 0
BBX 9 9 1 -1
BITMAP
2F00
4900
DF80
4B00
5280
0800
3E00
0800
FF80
ENDCHAR
STARTCHAR 5824
ENCODING 22564
SWIDTH 960 0
DWIDTH 10 0
BBX 9 9 1 -1
BITMAP
4F80
4880
EF80
4000
5F80
4200
6B80
CA00
1780
ENDCHAR
ENDFONT
